<svg width="107" height="122" viewBox="0 0 107 122" fill="none" xmlns="http://www.w3.org/2000/svg">
<path d="M75.2402 13.1026V26.2134H76.083H76.9258V29.8422V33.4711L77.7687 33.4711C78.5272 33.4711 78.6115 33.5413 78.6115 34.1735C78.6115 34.7822 78.6958 34.8758 79.4262 34.8758C80.2129 34.8758 80.241 34.829 80.4376 33.4945C80.6062 32.2068 80.6905 32.0898 81.3647 32.0195C81.9828 31.9727 82.1514 31.8088 82.2076 31.1767C82.2919 30.5212 82.4042 30.4275 83.1347 30.4275C83.8651 30.4275 83.9494 30.3573 83.9494 29.7252C83.9494 29.093 84.0337 29.0228 84.7923 29.0228C85.5508 29.0228 85.6351 28.9526 85.6351 28.3204C85.6351 27.6883 85.7194 27.6181 86.4779 27.6181C87.2365 27.6181 87.3208 27.5479 87.3208 26.9157C87.3208 26.2836 87.405 26.2134 88.1636 26.2134C88.894 26.2134 89.0064 26.1431 89.0064 25.5344C89.0064 24.9023 89.0626 24.8555 90.664 24.715C92.2373 24.5745 92.3497 24.5043 92.4339 23.919C92.4901 23.4039 92.6868 23.2635 93.4172 23.2166C94.1758 23.1464 94.3444 23.0293 94.3444 22.6079C94.3444 22.1397 94.5129 22.046 95.6367 21.9056C96.3672 21.8353 97.4909 21.7651 98.1652 21.7651C99.2609 21.7651 99.3733 21.7183 99.4575 21.1096L99.5418 20.4774L103.953 20.4072L108.392 20.337V19.658C108.392 19.0259 108.476 18.9556 109.234 18.9556C109.993 18.9556 110.077 19.0259 110.077 19.658V20.3604H114.291H118.506V21.0393C118.506 21.6948 118.562 21.7183 120.332 21.8821C122.017 22.0226 122.158 22.0928 122.158 22.5845C122.158 23.0293 122.326 23.1464 123.057 23.2166C123.815 23.2635 124.012 23.4039 124.068 23.919C124.153 24.4809 124.293 24.5511 125.838 24.6916C127.44 24.8555 127.496 24.8789 127.496 25.5344C127.496 26.1431 127.608 26.2134 128.339 26.2134C129.097 26.2134 129.181 26.2836 129.181 26.9157C129.181 27.5479 129.266 27.6181 130.024 27.6181C130.783 27.6181 130.867 27.6883 130.867 28.3204C130.867 28.9526 130.951 29.0228 131.682 29.0228C132.412 29.0228 132.525 29.1165 132.609 29.772C132.665 30.4041 132.834 30.568 133.452 30.6148C134.042 30.6851 134.21 30.8255 134.295 31.3172C134.351 31.8088 134.547 31.9727 135.137 32.0195C135.812 32.0898 135.896 32.2068 136.065 33.4945C136.261 34.829 136.289 34.8758 137.076 34.8758C137.806 34.8758 137.891 34.946 137.891 35.6952C137.891 36.4444 137.947 36.5147 138.734 36.5147H139.576V37.9194V39.3241H140.419C141.234 39.3241 141.262 39.3709 141.262 40.3542C141.262 40.9161 141.346 41.8526 141.431 42.4613C141.599 43.3744 141.712 43.5383 142.245 43.5383C142.807 43.5383 142.892 43.6787 143.088 45.06C143.257 46.4413 143.341 46.5818 143.903 46.5818C144.465 46.5818 144.577 46.7457 144.746 47.6588C144.83 48.2675 144.914 49.5786 144.914 50.5853V52.4348H145.757H146.6V63.2043V73.9739H145.757H144.914V75.8234C144.914 76.8301 144.83 78.1412 144.746 78.7499C144.577 79.6864 144.465 79.8269 143.903 79.8269C143.313 79.8269 143.229 79.9439 143.229 80.8102C143.229 81.3721 143.144 82.3788 143.06 83.0343C142.892 84.1113 142.779 84.2752 142.245 84.2752C141.712 84.2752 141.599 84.439 141.431 85.3521C141.346 85.9608 141.262 86.8973 141.262 87.4592C141.262 88.4425 141.234 88.4893 140.419 88.4893H139.576V90.0111V91.5329H138.734H137.891V92.9376C137.891 94.3189 137.891 94.3423 137.076 94.3423C136.317 94.3423 136.261 94.3892 136.093 95.747C135.924 97.0347 135.84 97.1518 135.222 97.1518C134.688 97.1518 134.547 97.2922 134.463 97.901C134.407 98.5331 134.238 98.697 133.62 98.7438C132.946 98.814 132.862 98.9311 132.693 100.219C132.497 101.553 132.468 101.6 131.682 101.6C130.951 101.6 130.867 101.694 130.867 102.302C130.867 102.935 130.783 103.005 130.024 103.005C129.238 103.005 129.181 103.075 129.181 103.824C129.181 104.573 129.125 104.644 128.339 104.644C127.58 104.644 127.496 104.714 127.496 105.346C127.496 105.978 127.411 106.048 126.653 106.048C125.894 106.048 125.81 106.119 125.81 106.751C125.81 107.383 125.726 107.453 124.967 107.453C124.209 107.453 124.124 107.523 124.124 108.155C124.124 108.811 124.04 108.858 123.141 108.858C122.242 108.858 122.158 108.905 122.158 109.56C122.158 110.192 122.074 110.262 121.315 110.262C120.556 110.262 120.472 110.333 120.472 110.941C120.472 111.55 120.36 111.644 119.545 111.714C118.815 111.761 118.618 111.901 118.562 112.416C118.477 113.002 118.365 113.072 116.792 113.212C115.19 113.353 115.134 113.4 115.134 114.032V114.711H109.937H104.739V114.008C104.739 113.376 104.655 113.306 103.896 113.306C103.138 113.306 103.054 113.376 103.054 114.008V114.711H101.227H99.4014V115.413C99.4014 116.045 99.3171 116.116 98.5585 116.116C97.8 116.116 97.7157 116.186 97.7157 116.818C97.7157 117.45 97.6314 117.52 96.8729 117.52C96.0862 117.52 96.03 117.59 96.03 118.34C96.03 119.089 95.9738 119.159 95.1872 119.159C94.4286 119.159 94.3444 119.229 94.3444 119.861C94.3444 120.494 94.2601 120.564 93.5015 120.564C92.743 120.564 92.6587 120.634 92.6587 121.266V121.969H87.6579C81.4209 121.969 80.5781 121.875 80.5781 121.126C80.5781 120.564 80.5219 120.564 77.9091 120.564L75.2402 120.564V119.885C75.2402 119.229 75.184 119.206 73.414 119.042C71.7564 118.902 71.5879 118.831 71.5879 118.34C71.5879 117.848 71.4193 117.778 69.9022 117.637C68.3851 117.497 68.2166 117.427 68.2166 116.935C68.2166 116.49 68.0199 116.396 66.9242 116.256C66.1938 116.186 65.07 116.116 64.3957 116.116C63.2157 116.116 63.1596 116.092 63.1596 115.413V114.711H61.3334H59.5073V114.032C59.5073 113.376 59.4511 113.353 57.8216 113.189C56.3045 113.049 56.136 112.978 56.136 112.487C56.136 112.042 55.9674 111.925 55.2088 111.855C54.4784 111.808 54.2817 111.667 54.2255 111.152C54.1413 110.59 54.0008 110.52 52.4556 110.38C50.8542 110.216 50.798 110.192 50.798 109.537C50.798 108.858 50.798 108.858 49.1124 108.858H47.4267V108.155C47.4267 107.5 47.3424 107.453 46.4434 107.453C45.5444 107.453 45.4601 107.383 45.4601 106.774C45.4601 106.142 45.3758 106.095 43.943 105.955C42.5383 105.791 42.3978 105.721 42.3135 105.159C42.2573 104.644 42.0607 104.503 41.3021 104.456C40.5155 104.386 40.4031 104.292 40.4031 103.684C40.4031 103.075 40.3188 103.005 39.5602 103.005C38.8017 103.005 38.7174 102.935 38.7174 102.302C38.7174 101.67 38.6331 101.6 37.8746 101.6C37.116 101.6 37.0318 101.53 37.0318 100.898C37.0318 100.289 36.9475 100.195 36.217 100.195C35.4304 100.195 35.4023 100.149 35.2056 98.7906C35.0089 97.4327 34.9809 97.3859 34.1942 97.3859C33.4638 97.3859 33.3795 97.3157 33.3795 96.5665C33.3795 95.8173 33.3233 95.747 32.5366 95.747C31.7781 95.747 31.6938 95.6768 31.6938 95.0447C31.6938 94.4126 31.6095 94.3423 30.851 94.3423H30.0081V92.9376C30.0081 91.5329 30.0081 91.5329 29.1934 91.5329C28.3787 91.5329 28.3506 91.5095 28.182 90.0111C27.9853 88.5361 27.9573 88.4893 27.1706 88.4893C26.3559 88.4893 26.3559 88.4659 26.3559 87.0846C26.3559 85.7735 26.3278 85.6799 25.6816 85.6799C25.1197 85.6799 25.0073 85.5394 24.8388 84.6029C24.7545 83.9942 24.6702 82.6831 24.6702 81.6764V79.8269H23.8274H22.9845V75.8703C22.9845 73.7163 22.9003 71.4454 22.816 70.8367C22.6474 69.9002 22.535 69.7597 21.9731 69.7597C21.2989 69.7597 21.2989 69.7129 21.2989 67.5356C21.2989 65.3583 21.2989 65.3114 21.9731 65.3114C22.535 65.3114 22.6474 65.171 22.816 64.2345C22.9003 63.6258 22.9845 61.3548 22.9845 59.2009V55.2443H23.8274C24.6702 55.2443 24.6702 55.2209 24.6702 54.0034C24.6702 51.8261 24.9511 51.0301 25.6535 51.0301C26.2154 51.0301 26.2997 50.8896 26.4963 49.5083C26.6649 48.0099 26.693 47.9865 27.5077 47.9865C28.2101 47.9865 28.3225 47.8929 28.3225 47.3076C28.3225 46.7223 28.4349 46.6052 29.081 46.535C29.7272 46.4882 29.8958 46.3477 29.952 45.6922C30.0362 45.0366 30.1486 44.943 30.8791 44.943C31.6095 44.943 31.6938 44.8727 31.6938 44.2406C31.6938 43.6085 31.7781 43.5383 32.5366 43.5383C33.2952 43.5383 33.3795 43.468 33.3795 42.8359C33.3795 42.2038 33.4638 42.1335 34.2223 42.1335C34.9809 42.1335 35.0651 42.0633 35.0651 41.4312C35.0651 40.7522 35.0932 40.7522 36.807 40.682C38.4927 40.6118 38.5769 40.5883 38.6612 39.9796C38.7455 39.4177 38.886 39.3475 40.4312 39.207C41.9202 39.0666 42.0887 38.9963 42.0887 38.5047C42.0887 37.9896 42.173 37.9662 45.6005 37.8023C49 37.6384 49.1124 37.615 49.1124 37.1C49.1124 36.6551 49.309 36.5615 50.4047 36.421C52.0904 36.2337 63.8057 36.2337 65.1824 36.421C66.0533 36.5381 66.2499 36.6785 66.2499 37.1C66.2499 37.5916 66.3904 37.6384 68.6661 37.7555C69.9865 37.8023 71.5598 37.8257 72.1779 37.7555C73.105 37.6384 73.2735 37.5448 73.2735 37.0765C73.2735 36.6785 73.105 36.5381 72.4869 36.4678C71.7565 36.3976 71.7284 36.3274 71.6441 34.9226C71.5598 33.4945 71.5598 33.4711 70.745 33.4711H69.9022V31.2469V29.0228H69.0594H68.2166V26.2134V23.4039H67.3737C66.5871 23.4039 66.5309 23.3337 66.5309 22.5845V21.7651H64.8452H63.1596V21.0627C63.1596 20.4072 63.0753 20.3604 62.1763 20.3604C61.2772 20.3604 61.1929 20.4072 61.1929 21.0627C61.1929 21.6948 61.1087 21.7651 60.3501 21.7651H59.5073V23.2869V24.8086H58.6645C57.9059 24.8086 57.8216 24.8789 57.8216 25.511C57.8216 26.1665 57.7373 26.2134 56.8383 26.2134C55.9393 26.2134 55.855 26.2602 55.855 26.9157V27.6181H54.1693C52.5118 27.6181 52.4837 27.6181 52.4837 28.2736V28.9526L46.64 29.093C43.4373 29.1633 40.375 29.2101 39.8412 29.1633C39.3074 29.1399 37.6217 29.093 36.1046 29.0696L33.3795 29.0228V28.3204V27.6181H30.7105H28.0415V26.9157V26.2134H26.3559H24.6702V25.511V24.8086H22.9845C21.2989 24.8086 21.2989 24.8086 21.2989 24.1297C21.2989 23.4742 21.2427 23.4508 19.6413 23.2869C18.0961 23.1464 17.9556 23.0762 17.8714 22.5143C17.8152 21.9992 17.6185 21.8587 16.86 21.8119C16.0733 21.7417 15.9609 21.648 15.9609 21.0393C15.9609 20.3604 15.9609 20.3604 14.2753 20.3604H12.5896V19.658C12.5896 19.0259 12.5053 18.9556 11.7468 18.9556C10.9882 18.9556 10.9039 18.8854 10.9039 18.2533C10.9039 17.5977 10.8197 17.5509 9.92064 17.5509C9.02162 17.5509 8.93733 17.4807 8.93733 16.872C8.93733 16.2164 8.88115 16.193 7.25166 16.0291C5.62219 15.8653 5.56601 15.8418 5.56601 15.1863C5.56601 14.5776 5.48172 14.5074 4.5827 14.5074C3.73987 14.5074 3.5994 14.4371 3.5994 13.9221C3.5994 13.407 3.45892 13.3368 1.91373 13.1963L0.199982 13.0324L0.284256 10.9019C0.368546 8.77142 0.368546 8.77142 1.12709 8.70118C1.71707 8.63094 1.88564 8.49047 1.96992 7.99883C2.02611 7.48376 2.22278 7.34328 2.95323 7.29646C3.76796 7.22623 3.88034 7.13258 3.88034 6.52386C3.88034 5.84491 3.88034 5.84492 5.56601 5.84492H7.25166V5.14256V4.44019H9.0778H10.9039V3.73783V3.03547H13.2077C16.6914 3.03547 17.6466 2.84818 17.6466 2.21605C17.6466 1.7244 17.8152 1.70098 20.2313 1.53709C21.636 1.46686 23.6026 1.39663 24.5859 1.39663C26.2997 1.39663 26.3559 1.37322 26.3559 0.811333V0.226028H30.7105H35.0651V0.811333C35.0651 1.37322 35.1213 1.39663 37.0879 1.39663C38.2117 1.39663 39.785 1.46686 40.5997 1.53709C41.9202 1.67757 42.0607 1.74781 42.1449 2.3097C42.2292 2.895 42.3135 2.91841 43.9711 2.98865C45.6286 3.05888 45.741 3.0823 45.741 3.62077C45.741 4.13583 45.8815 4.20608 47.4267 4.34655C49.0562 4.48701 49.1124 4.53384 49.1124 5.16597C49.1124 5.84492 49.1404 5.84492 50.798 5.84492H52.4837V6.54727C52.4837 7.1794 52.568 7.24963 53.3265 7.24963C54.0851 7.24963 54.1693 7.31987 54.1693 7.92858C54.1693 8.53729 54.2817 8.63094 55.0684 8.70118C55.8831 8.77142 55.9955 8.86507 56.0798 9.5206C56.164 10.1996 56.2764 10.2932 57.0069 10.2932C57.7373 10.2932 57.8216 10.3634 57.8216 10.9956C57.8216 11.6277 57.9059 11.6979 58.6645 11.6979H59.5073V13.805V15.9121H60.3501H61.1929V17.4339V18.9556H62.1763C63.0753 18.9556 63.1596 19.0025 63.1596 19.658V20.3604H64.8452H66.5309V11.6979V3.03547H67.3737C68.1604 3.03547 68.2166 2.96523 68.2166 2.21605C68.2166 1.46687 68.2727 1.39663 69.0594 1.39663C69.8179 1.39663 69.9022 1.32639 69.9022 0.694267V-0.00808716H72.5712H75.2402V13.1026ZM22.9845 3.73783V4.44019H20.3156H17.6466V5.14256V5.84492H15.1181H12.5896V6.52386C12.5896 7.1794 12.5334 7.20281 10.7635 7.36669C9.0778 7.50716 8.93733 7.5774 8.93733 8.06905C8.93733 8.58412 8.79686 8.65436 7.25166 8.79483C5.62219 8.9353 5.56601 8.98212 5.56601 9.61425C5.56601 10.223 5.45363 10.2932 4.72318 10.2932C3.96461 10.2932 3.88034 10.3634 3.88034 10.9956V11.6979H5.56601H7.25166V12.4003V13.1026H8.93733H10.623V13.805C10.623 14.4605 10.7073 14.5074 11.6063 14.5074C12.5053 14.5074 12.5896 14.5542 12.5896 15.1863C12.5896 15.7716 12.702 15.8887 13.3482 15.9589C13.9662 16.0057 14.1629 16.1696 14.2191 16.6613C14.3034 17.1763 14.4719 17.2934 15.2024 17.3636C15.9328 17.4105 16.1295 17.5509 16.1857 18.066C16.27 18.6279 16.4104 18.6981 17.8152 18.862C19.248 19.0025 19.3323 19.0493 19.3323 19.6814C19.3323 20.2901 19.4165 20.3604 20.3156 20.3604C21.2146 20.3604 21.2989 20.4072 21.2989 21.0627C21.2989 21.6948 21.3832 21.7651 22.1417 21.7651C22.8722 21.7651 22.9845 21.8353 22.9845 22.444C22.9845 23.123 23.0126 23.1464 24.8107 23.2869C26.4682 23.4508 26.6368 23.521 26.6368 23.9892C26.6368 24.4341 26.8335 24.5277 27.9292 24.6682C28.6596 24.7384 29.7834 24.8086 30.4577 24.8086C31.6376 24.8086 31.6938 24.8321 31.6938 25.511V26.2134H35.0651H38.4365V26.9157V27.6181H42.9316H47.4267V26.9157V26.2134H49.9552H52.4837V25.5344C52.4837 24.9257 52.5961 24.8321 53.3827 24.7618C54.1413 24.715 54.3379 24.5745 54.3941 24.0595C54.4784 23.5678 54.6469 23.4273 55.2369 23.3571C55.8269 23.3103 56.0236 23.1464 56.0798 22.6547C56.164 22.1631 56.3326 22.0226 56.9226 21.9524C57.5407 21.9056 57.7092 21.7417 57.7654 21.1096C57.8497 20.454 57.9621 20.3604 58.6926 20.3604C59.423 20.3604 59.5073 20.2901 59.5073 19.658C59.5073 19.0259 59.423 18.9556 58.6645 18.9556C57.9059 18.9556 57.8216 18.8854 57.8216 18.2533C57.8216 17.5743 57.7654 17.5509 56.5855 17.5509C55.9112 17.5509 54.7874 17.4807 54.057 17.4104C52.9613 17.27 52.7646 17.1763 52.7646 16.7315C52.7646 16.2633 52.5961 16.193 50.9385 16.0291C49.2809 15.8887 49.1124 15.8184 49.1124 15.3502C49.1124 14.882 48.9157 14.7883 47.82 14.6478C47.0895 14.5776 45.8815 14.5074 45.151 14.5074C43.8025 14.5074 43.7744 14.4839 43.7744 13.805V13.1026H39.5602H35.3461V12.4003V11.7213L30.9072 11.6511L26.4963 11.5809L26.4121 10.9721C26.3278 10.3868 26.384 10.34 28.0696 10.1995C29.0529 10.1059 32.5928 10.1059 35.9642 10.1995L42.0887 10.3634V11.019V11.6979H44.7577H47.4267V12.4003V13.1026H49.9552H52.4837V13.805V14.5074H54.3098H56.136V13.805C56.136 13.1963 56.0517 13.1026 55.3212 13.1026C54.5346 13.1026 54.5065 13.0558 54.3098 11.6979C54.1132 10.34 54.0851 10.2932 53.2984 10.2932C52.5961 10.2932 52.4837 10.1995 52.4837 9.61425C52.4837 8.95871 52.4275 8.9353 50.798 8.77142C49.1685 8.60753 49.1124 8.58412 49.1124 7.92858C49.1124 7.31987 49.0281 7.24963 48.129 7.24963C47.23 7.24963 47.1457 7.20281 47.1457 6.54727V5.84492H45.4601H43.7744V5.14256V4.44019H41.1054H38.4365V3.73783V3.03547H30.7105H22.9845V3.73783ZM69.9022 5.96198V7.48376H69.0594H68.2166V12.4003V17.3168H69.0594H69.8741L69.9584 20.9925L70.0427 24.6916L70.8012 24.7618L71.5317 24.8321L71.7284 27.7586C71.925 30.568 71.9531 30.6617 72.5712 30.6617C73.3297 30.6617 73.5545 31.4577 73.5545 34.3373V36.2805H74.3973H75.2402V37.8023V39.3241H76.083C76.8415 39.3241 76.9258 39.3943 76.9258 40.0265C76.9258 40.799 76.8696 40.799 74.8468 40.5883C73.7512 40.4479 73.5545 40.3542 73.5545 39.9094V39.3943L65.8004 39.2304C61.5582 39.1368 55.2369 39.1368 51.7532 39.2304L45.4601 39.3943V40.0499V40.7288H42.9316H40.4031V41.4312C40.4031 42.0867 40.3188 42.1335 39.4198 42.1335C38.5208 42.1335 38.4365 42.1804 38.4365 42.8359C38.4365 43.4914 38.4084 43.5148 36.807 43.5851C35.2337 43.6553 35.2056 43.6553 35.1213 44.4045C35.037 45.0835 34.9247 45.1771 34.1942 45.1771C33.4638 45.1771 33.3795 45.2473 33.3795 45.8795C33.3795 46.5116 33.2952 46.5818 32.5366 46.5818C31.7781 46.5818 31.6938 46.6521 31.6938 47.2842C31.6938 47.8929 31.6095 47.9865 30.8791 47.9865C30.0924 47.9865 30.0643 48.0334 29.8677 49.3913C29.6991 50.6555 29.6148 50.796 29.0248 50.796C28.4349 50.796 28.3506 50.9365 28.182 52.3178C27.9853 53.6991 27.9011 53.8395 27.3392 53.8395C26.6087 53.8395 26.3559 54.6356 26.3559 56.9299C26.3559 58.1942 26.2997 58.2878 25.6816 58.2878C24.7264 58.2878 24.6702 58.8497 24.6702 67.8165L24.6702 75.6127H25.513H26.3278L26.4121 78.469L26.4963 81.3487L27.2549 81.4189C27.9573 81.4891 28.0415 81.5828 28.0415 82.3554C28.0415 82.8236 28.1258 83.7835 28.2101 84.439C28.3787 85.5394 28.4911 85.6799 29.0248 85.6799C29.6148 85.6799 29.6991 85.8204 29.8677 87.0846C30.0643 88.4425 30.0924 88.4893 30.8791 88.4893H31.6938V90.0111V91.5329H32.5366C33.2952 91.5329 33.3795 91.6031 33.3795 92.2352C33.3795 92.8674 33.4638 92.9376 34.2223 92.9376H35.0651V94.3423C35.0651 95.747 35.0651 95.747 35.8799 95.747C36.6103 95.747 36.7227 95.8407 36.807 96.4962C36.8913 97.1752 37.0037 97.2688 37.7903 97.3391C38.605 97.4093 38.7174 97.503 38.7174 98.1117C38.7174 98.7204 38.8017 98.7906 39.5602 98.7906C40.3188 98.7906 40.4031 98.8608 40.4031 99.493C40.4031 100.125 40.4874 100.195 41.2459 100.195C42.0045 100.195 42.0887 100.266 42.0887 100.898C42.0887 101.53 42.173 101.6 42.9316 101.6C43.6901 101.6 43.7744 101.67 43.7744 102.279C43.7744 102.888 43.8868 102.981 44.6734 103.052C45.432 103.098 45.6286 103.239 45.6848 103.754C45.7691 104.246 45.9377 104.386 46.5277 104.456C47.1176 104.503 47.3143 104.667 47.3705 105.159C47.4548 105.744 47.5672 105.814 49.1404 105.955C50.7418 106.095 50.798 106.142 50.798 106.774C50.798 107.383 50.8823 107.453 51.7813 107.453C52.6803 107.453 52.7646 107.5 52.7646 108.155V108.858H54.4503C56.136 108.858 56.136 108.858 56.136 109.537C56.136 110.192 56.1921 110.216 57.8216 110.38C59.3387 110.52 59.5073 110.59 59.5073 111.082C59.5073 111.574 59.6758 111.644 61.1649 111.784C62.71 111.925 62.8505 111.995 62.9348 112.557C63.0191 113.166 63.1034 113.189 64.7609 113.259C66.5028 113.329 66.5309 113.329 66.5309 114.008C66.5309 114.711 66.5309 114.711 68.2166 114.711C69.9022 114.711 69.9022 114.711 69.9022 115.413V116.092L72.4869 116.162L75.0997 116.233L75.184 116.865C75.2682 117.473 75.3806 117.52 76.4763 117.52C77.1506 117.52 78.2744 117.59 79.0048 117.661C80.1005 117.801 80.2971 117.895 80.2971 118.34C80.2971 118.855 80.4095 118.878 83.9494 119.042C87.5455 119.206 87.6017 119.229 87.6017 119.768C87.6017 120.283 87.7141 120.33 89.1188 120.33H90.664L90.8326 119.065C91.0292 117.895 91.1135 117.778 91.7878 117.708C92.3778 117.661 92.5463 117.497 92.6025 116.865C92.6868 116.209 92.7992 116.116 93.5296 116.116C94.3444 116.116 94.3444 116.116 94.3444 114.711C94.3444 113.306 94.3444 113.306 95.1591 113.306C95.8896 113.306 96.0019 113.212 96.0862 112.533C96.1424 111.925 96.311 111.761 96.929 111.714C97.519 111.644 97.6876 111.503 97.7719 111.012C97.8562 110.38 97.8843 110.38 100.385 110.309C101.761 110.262 103.7 110.309 104.655 110.38C106.284 110.52 106.425 110.567 106.425 111.105C106.425 111.667 106.453 111.667 109.094 111.667C111.735 111.667 111.763 111.667 111.763 111.105C111.763 110.567 111.903 110.52 113.589 110.38C115.359 110.216 115.415 110.192 115.415 109.537C115.415 108.858 115.443 108.858 117.101 108.858H118.787V108.155C118.787 107.523 118.871 107.453 119.629 107.453C120.388 107.453 120.472 107.383 120.472 106.751C120.472 106.119 120.556 106.048 121.315 106.048C122.074 106.048 122.158 105.978 122.158 105.369C122.158 104.761 122.27 104.667 123.057 104.597C123.815 104.55 124.012 104.409 124.068 103.894C124.153 103.403 124.321 103.262 124.911 103.192C125.529 103.145 125.698 102.981 125.754 102.349C125.838 101.694 125.951 101.6 126.681 101.6C127.411 101.6 127.496 101.53 127.496 100.898C127.496 100.266 127.58 100.195 128.339 100.195C129.125 100.195 129.181 100.125 129.181 99.3759C129.181 98.6267 129.238 98.5565 130.024 98.5565C130.867 98.5565 130.867 98.5331 130.867 97.2688C130.867 96.0046 130.895 95.9812 131.682 95.9812C132.468 95.9812 132.497 95.9343 132.693 94.4594C132.862 92.961 132.89 92.9376 133.705 92.9376C134.435 92.9376 134.519 92.844 134.519 92.2352C134.519 91.6499 134.632 91.5329 135.194 91.5329C135.756 91.5329 135.868 91.3924 136.036 90.4559C136.121 89.8472 136.205 88.9107 136.205 88.3489C136.205 87.3655 136.233 87.3187 137.048 87.3187H137.891V85.7969V84.2752H138.734H139.576V82.051V79.8269H140.419H141.262V78.1178C141.262 77.2047 141.346 75.8702 141.431 75.1913C141.599 74.1378 141.712 73.9739 142.245 73.9739C142.863 73.9739 142.863 73.9505 143.088 68.6125C143.201 65.6626 143.201 60.7695 143.088 57.7259C142.863 52.2241 142.863 52.2007 142.245 52.2007C141.712 52.2007 141.599 52.0368 141.431 51.1237C141.346 50.515 141.262 49.2508 141.262 48.3143V46.5818H140.419H139.576V45.06V43.5383H138.734H137.891V42.1335C137.891 40.7288 137.891 40.7288 137.048 40.7288C136.233 40.7288 136.233 40.7054 136.149 39.2539C136.065 37.8726 136.036 37.8023 135.306 37.7321C134.632 37.6618 134.547 37.5448 134.379 36.2571C134.182 34.9226 134.154 34.8758 133.368 34.8758C132.637 34.8758 132.553 34.7822 132.553 34.1735C132.553 33.5413 132.468 33.4711 131.71 33.4711C130.951 33.4711 130.867 33.4009 130.867 32.7687C130.867 32.1366 130.783 32.0664 130.024 32.0664C129.238 32.0664 129.181 31.9961 129.181 31.2469C129.181 30.4978 129.125 30.4275 128.339 30.4275C127.58 30.4275 127.496 30.3573 127.496 29.7252C127.496 29.093 127.411 29.0228 126.653 29.0228C125.894 29.0228 125.81 28.9526 125.81 28.3204C125.81 27.6649 125.726 27.6181 124.827 27.6181C123.928 27.6181 123.843 27.5713 123.843 26.9157V26.2134H122.158C120.472 26.2134 120.472 26.2134 120.472 25.5344C120.472 24.8789 120.416 24.8555 118.787 24.6916C117.269 24.5511 117.101 24.4809 117.101 23.9892C117.101 23.5444 116.932 23.4508 115.612 23.3103C114.825 23.24 113.617 23.1698 112.943 23.1698C111.875 23.1698 111.763 23.123 111.763 22.5845V21.9992H108.251H104.739V22.5845C104.739 23.123 104.627 23.1698 103.531 23.1698C102.885 23.1698 101.677 23.24 100.862 23.3103C99.5699 23.4508 99.4014 23.5444 99.4014 23.9892C99.4014 24.4809 99.2328 24.5511 97.7157 24.6916C96.0862 24.8555 96.03 24.8789 96.03 25.5344C96.03 26.2134 96.03 26.2134 94.3444 26.2134H92.6587V26.9157C92.6587 27.6181 92.6587 27.6181 91.0011 27.6181H89.3155L89.2312 28.3673C89.175 28.9994 89.0064 29.1633 88.3883 29.2101C87.7984 29.2803 87.6298 29.4208 87.5455 29.9125C87.4893 30.4275 87.2927 30.568 86.5341 30.6148C85.7475 30.6851 85.6351 30.7787 85.6351 31.3874C85.6351 31.9961 85.5508 32.0664 84.7923 32.0664H83.9494V33.4711V34.8758H83.1066C82.348 34.8758 82.2638 34.946 82.2638 35.5782C82.2638 36.1869 82.1795 36.2805 81.449 36.2805C80.6343 36.2805 80.6062 36.3039 80.4376 37.8023C80.241 39.2773 80.2129 39.3241 79.4262 39.3241C78.6958 39.3241 78.6115 39.2304 78.6115 38.6217C78.6115 37.9896 78.5272 37.9194 77.7687 37.9194L76.9258 37.9194V36.3976V34.8758H76.083C75.2682 34.8758 75.2402 34.8524 75.2402 33.7286C75.2402 33.1199 75.1559 32.1132 75.0716 31.5045C74.903 30.5914 74.7906 30.4275 74.2569 30.4275H73.6107L73.414 20.3604L73.1893 10.2932H72.5431C71.9812 10.2932 71.8688 10.1761 71.8688 9.59084C71.8688 9.00554 71.9812 8.88847 72.5712 8.88847C73.2174 8.88847 73.2735 8.81824 73.2735 7.74129C73.2735 7.13258 73.3578 6.12586 73.4421 5.51714L73.6388 4.44019H71.7565H69.9022V5.96198Z" fill="#EA580C" fill-opacity="0.3"/>
</svg>
