<svg width="100" height="96" viewBox="0 0 100 96" fill="none" xmlns="http://www.w3.org/2000/svg">
<path d="M113.881 0.549175C113.881 1.12231 113.823 1.12231 109.955 1.26559C107.805 1.36111 103.822 1.43276 101.071 1.43276H96.1135V2.00589C96.1135 2.4835 95.9415 2.57903 94.7952 2.72231C94.0502 2.79395 91.2705 2.86559 88.634 2.86559L83.7911 2.86559V3.58201V4.29843H80.209H76.6269V5.01485V5.73127H73.6466C72.0132 5.73127 70.0932 5.80291 69.3481 5.87455C68.2305 6.01783 68.0299 6.11335 68.0299 6.56709C68.0299 7.09246 67.9152 7.11634 64.4478 7.2835C60.9803 7.45067 60.8657 7.47455 60.8657 7.99992C60.8657 8.45365 60.6651 8.54918 59.5475 8.69246C58.8024 8.7641 57.5702 8.83574 56.8251 8.83574C55.5355 8.83574 55.4209 8.8835 55.4209 9.40888C55.4209 9.88649 55.249 9.98201 54.1027 10.1253C53.3576 10.1969 51.8102 10.2686 50.6639 10.2686H48.5433V10.985V11.7014H45.8209L43.0985 11.7014V12.4178V13.1343H40.8347C39.6024 13.1343 37.9976 13.2059 37.2526 13.2775C36.135 13.4208 35.9344 13.5163 35.9344 13.9701C35.9344 14.4238 35.7338 14.5193 34.4442 14.6626C33.6132 14.7343 32.4382 14.8059 31.8651 14.8059C30.9194 14.8059 30.8048 14.8775 30.7188 15.4507C30.6329 16.0954 30.5469 16.1193 28.8561 16.191C27.1941 16.2626 27.0508 16.3104 27.0508 16.8119C27.0508 17.2895 26.8788 17.385 25.7326 17.5283C24.9875 17.5999 23.7552 17.6716 23.0102 17.6716C21.6347 17.6716 21.606 17.6954 21.606 18.388V19.1044H19.0269H16.4478V19.8208C16.4478 20.5134 16.4191 20.5134 14.6711 20.585C12.9517 20.6566 12.8657 20.6805 12.7797 21.3014C12.6938 21.8746 12.5505 21.9462 10.9744 22.0895C9.34092 22.2566 9.28361 22.2805 9.28361 22.9492C9.28361 23.5462 9.16898 23.6417 8.45256 23.6417C7.73614 23.6417 7.59286 23.7372 7.50689 24.2865C7.42092 24.9313 7.33495 24.9551 5.78749 25.0268C4.15405 25.0984 4.1254 25.1223 4.1254 25.791C4.1254 26.4119 4.01077 26.5074 3.29435 26.5074C2.49196 26.5074 2.46331 26.5551 2.26271 27.9402C2.06211 29.3253 2.03346 29.3731 1.23107 29.3731H0.400024L0.400024 30.9253L0.400024 32.4775H2.11943H3.83883L3.83883 33.194C3.83883 33.8626 3.9248 33.9104 4.84182 33.9104C5.75883 33.9104 5.8448 33.9581 5.8448 34.6268V35.3432H7.5642C9.25495 35.3432 9.28361 35.3432 9.28361 36.0357V36.7044L11.92 36.8716C13.3529 36.9432 15.3588 37.0149 16.3618 37.0149C18.1099 37.0149 18.1672 37.0387 18.1672 37.6119V38.2089H26.1911L34.215 38.2089V37.6119C34.215 37.0149 34.2436 37.0149 36.88 37.0149C38.3129 37.0149 41.9236 36.9432 44.9039 36.8477C50.1767 36.7044 50.2627 36.7044 50.2627 36.179C50.2627 35.7253 50.4633 35.6298 51.5809 35.4865C52.326 35.4149 54.332 35.3432 56.0227 35.3432H59.1463V34.6268V33.9104H63.4448H67.7433V33.194V32.4775H71.3254H74.9075V31.7611V31.0447L77.6299 31.0447H80.3523V30.3283C80.3523 29.6357 80.4096 29.6119 81.5845 29.6119C82.2436 29.6119 83.4758 29.5402 84.3069 29.4686C85.5964 29.3253 85.797 29.2298 85.797 28.776C85.797 28.179 86.7714 27.9402 89.4651 27.9402C90.9266 27.9402 90.9552 27.9402 90.9552 27.2238V26.5074H92.8179H94.6806V25.791V25.0746L96.4 25.0746H98.1194V24.3581V23.6417H99.8388C101.558 23.6417 101.558 23.6417 101.558 22.9492C101.558 22.2805 101.616 22.2566 103.249 22.0895C104.825 21.9462 104.968 21.8746 105.054 21.3014C105.112 20.776 105.312 20.6328 106.086 20.585C106.888 20.5134 107.003 20.4178 107.003 19.7969C107.003 19.1044 107.003 19.1044 108.722 19.1044H110.442V18.388C110.442 17.7432 110.528 17.6716 111.273 17.6716C112.018 17.6716 112.133 17.576 112.219 16.8835C112.305 16.2149 112.419 16.1193 113.25 16.0477C114.053 15.976 114.167 15.8805 114.167 15.2596C114.167 14.6387 114.253 14.5671 115.027 14.5671C115.801 14.5671 115.887 14.4954 115.887 13.8507C115.887 13.2059 115.973 13.1343 116.746 13.1343H117.606V11.7014C117.606 10.2686 117.606 10.2686 118.437 10.2686C119.182 10.2686 119.297 10.1731 119.383 9.48052C119.44 8.85963 119.612 8.69246 120.242 8.6447C120.93 8.57306 121.016 8.45365 121.188 7.14022C121.36 5.87455 121.446 5.73127 122.048 5.73127C122.678 5.73127 122.764 5.58798 122.936 4.29843C123.108 2.91335 123.165 2.86559 123.939 2.86559C124.684 2.86559 124.77 2.77007 124.77 2.14918C124.77 1.5044 124.684 1.43276 123.91 1.43276C123.137 1.43276 123.051 1.36111 123.051 0.716339V-7.62939e-05H118.466H113.881V0.549175ZM119.497 3.9641C119.411 4.585 119.325 5.54022 119.325 6.11336C119.325 7.11634 119.297 7.1641 118.466 7.1641C117.663 7.1641 117.606 7.23574 117.606 8.0238V8.88351L113.25 8.83574C110.843 8.78798 106.831 8.78798 104.367 8.81186L99.8388 8.83574V9.55216V10.2686H96.2567H92.6747V10.985V11.7014H97.1164H101.558V10.985V10.2686L107.863 10.2686H114.167V11.6775V13.1104L113.25 13.182C112.476 13.2298 112.276 13.3731 112.219 13.8984C112.133 14.3999 111.961 14.5432 111.359 14.6149C110.757 14.6626 110.556 14.8298 110.499 15.3313C110.413 15.8328 110.241 15.976 109.639 16.0477C109.009 16.0954 108.837 16.2626 108.78 16.8835L108.694 17.6716H106.974C105.284 17.6716 105.284 17.6716 105.284 18.388C105.284 19.0566 105.198 19.1044 104.281 19.1044C103.364 19.1044 103.278 19.1522 103.278 19.8208C103.278 20.4895 103.249 20.5134 101.644 20.585C100.097 20.6566 99.9821 20.7044 99.8962 21.3014C99.8102 21.8746 99.6669 21.9462 98.1194 22.0895C96.572 22.2328 96.4287 22.3044 96.3427 22.8775C96.2567 23.4745 96.1421 23.5223 94.6233 23.594C93.1045 23.6656 92.9899 23.7134 92.9039 24.3104C92.8179 24.9313 92.732 24.9551 91.0412 25.0268C89.2645 25.0984 89.2358 25.0984 89.2358 25.791V26.5074H86.6567H84.0776V27.2238C84.0776 27.9163 84.049 27.9402 82.6735 27.9402C81.9284 27.9402 80.6961 28.0119 79.9511 28.0835C78.8048 28.2268 78.6329 28.3223 78.6329 28.7999C78.6329 29.3014 78.4896 29.3731 77.4293 29.3731C76.7415 29.3731 75.5093 29.4447 74.7069 29.5163C73.3887 29.6596 73.1881 29.7551 73.1881 30.2089C73.1881 30.6626 72.9875 30.7581 71.8699 30.9014C71.1248 30.9731 69.52 31.0447 68.2878 31.0447H66.0239V31.7611V32.4775H61.7254H57.4269V33.194V33.9104H51.9821H46.5373V34.6268V35.3432H41.1499C38.1696 35.3432 34.5588 35.4149 33.126 35.4865C30.6615 35.6537 30.4896 35.6775 30.4896 36.179C30.4896 36.6328 30.289 36.7283 29.1714 36.8716C28.4263 36.9432 26.2484 37.0149 24.3284 37.0149C22.4084 37.0149 20.2305 36.9432 19.4854 36.8716C18.2532 36.7283 18.1672 36.6566 18.1672 36.0357V35.3432H14.5851H11.003V34.6268V33.9104H8.42391H5.8448V33.194C5.8448 32.5253 5.75883 32.4775 4.84182 32.4775C3.9248 32.4775 3.83883 32.4298 3.83883 31.7611C3.83883 31.1641 3.7242 31.0447 3.12241 31.0447C2.52062 31.0447 2.40599 30.9253 2.40599 30.3522C2.40599 29.7552 2.52062 29.6357 3.20838 29.5641C3.81017 29.5163 4.01077 29.3492 4.06808 28.8477C4.15405 28.2507 4.26868 28.179 5.87346 28.0357C7.50689 27.8925 7.5642 27.8447 7.5642 27.1999C7.5642 26.579 7.67883 26.5074 8.42391 26.5074C9.19764 26.5074 9.28361 26.4357 9.28361 25.791V25.0746H11.003C12.6938 25.0746 12.7224 25.0746 12.7224 24.382C12.7224 23.7372 12.7797 23.6895 14.4418 23.5462C15.9893 23.4029 16.1612 23.3313 16.1612 22.8298C16.1612 22.3044 16.3332 22.2566 18.0239 22.0895C19.8579 21.9462 19.8866 21.9223 19.8866 21.2298V20.5372H21.7493H23.612V19.8208V19.1044H25.3314H27.0508V18.388V17.6716H29.7732H32.4955V16.979V16.2865L35.9344 16.1193C39.2585 15.9522 39.3732 15.9283 39.3732 15.4029C39.3732 14.9492 39.5738 14.8537 40.892 14.7104C41.6944 14.6387 42.9266 14.5671 43.6144 14.5671C44.6747 14.5671 44.8179 14.4954 44.8179 13.994C44.8179 13.5163 44.9899 13.4208 46.1361 13.2775C46.8812 13.2059 48.4287 13.1343 49.575 13.1343C51.6382 13.1343 51.6669 13.1343 51.7529 12.4656L51.8388 11.8208L54.6472 11.7492L57.4269 11.6775V10.985V10.2925L60.9517 10.2208L64.4478 10.1492L64.5338 9.48052L64.6197 8.83574H68.0585H71.4687V8.11933V7.40291L73.5606 7.40291C74.6782 7.40291 76.3117 7.33126 77.1427 7.25962C78.4323 7.11634 78.6329 7.02082 78.6329 6.56709C78.6329 6.11335 78.8335 6.01783 79.9511 5.87455C80.6961 5.80291 83.0747 5.73127 85.2526 5.73127L89.2358 5.73127V5.01485V4.29843H95.5403H101.845V3.58201V2.86559H110.757H119.698L119.497 3.9641Z" fill="#EA580C" fill-opacity="0.3"/>
<path d="M85.5102 12.4179V13.1105L82.0141 13.1821L78.4893 13.2538L78.4034 13.8746C78.2888 14.6388 77.4864 14.806 73.847 14.806H71.4685V15.5224V16.2388H68.8893L66.3102 16.2388V16.9552V17.6717H63.5879H60.8655V18.3881V19.1045H57.2834H53.7013V19.8209V20.5373H50.1192H46.5371V21.2299C46.5371 21.6358 46.6804 22.0179 46.8237 22.0896C46.9956 22.1851 48.6004 22.1612 50.4058 22.0657L53.7013 21.8985V21.2299V20.5373H57.2834H60.8655V19.8209V19.1045H63.5879L66.3102 19.1045V18.3881V17.6717L68.8893 17.6717H71.4685V16.9552V16.2388H73.5604C74.678 16.2388 76.3114 16.1672 77.1425 16.0955C78.432 15.9523 78.6326 15.8567 78.6326 15.403C78.6326 14.9493 78.8332 14.8538 79.9508 14.7105C80.6959 14.6388 82.2434 14.5672 83.3897 14.5672H85.5102V13.8508V13.1343H89.0923L92.6744 13.1343V12.4179V11.7015L89.0923 11.7015H85.5102V12.4179Z" fill="#EA580C" fill-opacity="0.3"/>
<path d="M37.6539 22.7821C37.6539 23.2597 37.8259 23.3552 38.8862 23.4508C39.5453 23.5224 41.1501 23.5224 42.4683 23.4508C44.7035 23.3552 44.8181 23.3075 44.8181 22.7821C44.8181 22.209 44.8181 22.209 41.236 22.209C37.6539 22.209 37.6539 22.209 37.6539 22.7821Z" fill="#EA580C" fill-opacity="0.3"/>
<path d="M29.0565 24.3582V25.0746H31.1771C32.3234 25.0746 33.8708 25.003 34.6159 24.9313C35.7622 24.788 35.9341 24.6925 35.9341 24.2149C35.9341 23.6418 35.9055 23.6418 32.4953 23.6418H29.0565V24.3582Z" fill="#EA580C" fill-opacity="0.3"/>
<path d="M23.6115 25.791V26.5074H26.1906H28.7697V25.791V25.0745H26.1906H23.6115V25.791Z" fill="#EA580C" fill-opacity="0.3"/>
<path d="M19.8865 27.2238C19.8865 27.8925 19.9724 27.9403 20.8895 27.9403C21.8065 27.9403 21.8924 27.8925 21.8924 27.2238C21.8924 26.5552 21.8065 26.5074 20.8895 26.5074C19.9724 26.5074 19.8865 26.5552 19.8865 27.2238Z" fill="#EA580C" fill-opacity="0.3"/>
<path d="M16.3621 28.1075C16.2475 28.1791 16.1615 28.5134 16.1615 28.8239C16.1615 29.3015 16.3048 29.3731 17.1645 29.3731C18.0815 29.3731 18.1675 29.3254 18.1675 28.6567C18.1675 28.0358 18.0528 27.9403 17.3651 27.9403C16.9066 27.9403 16.4481 28.0119 16.3621 28.1075Z" fill="#EA580C" fill-opacity="0.3"/>
<path d="M12.7793 30.2567C12.8653 30.8298 13.0086 30.9253 13.725 30.9253C14.4414 30.9253 14.5847 30.8298 14.6707 30.2567C14.7566 29.6596 14.6993 29.6119 13.725 29.6119C12.7507 29.6119 12.6933 29.6596 12.7793 30.2567Z" fill="#EA580C" fill-opacity="0.3"/>
<path d="M11.0598 31.6895C11.1171 32.2149 11.3177 32.3821 11.9482 32.4298C12.6359 32.5015 12.7219 32.4298 12.7219 31.7851C12.7219 31.1164 12.6359 31.0448 11.8335 31.0448C11.0598 31.0448 10.9738 31.1164 11.0598 31.6895Z" fill="#EA580C" fill-opacity="0.3"/>
<path d="M133.367 3.58211V4.29852H131.647C129.957 4.29852 129.928 4.29853 129.928 4.99107C129.928 5.63584 129.842 5.6836 128.495 5.82689C126.747 6.01793 126.489 5.92241 126.489 4.99107C126.489 4.37017 126.403 4.29852 125.629 4.29852H124.77V5.85076V7.403H125.629H126.489V11.1045V14.806H127.349H128.18L128.266 18.4358L128.352 22.0896L129.154 22.1612C129.928 22.2328 129.928 22.2567 129.928 23.9523C129.928 24.9075 130.014 27.2 130.129 29.0627C130.301 32.4299 130.301 32.4776 130.988 32.4776C131.533 32.4776 131.647 32.597 131.647 33.194C131.647 33.7911 131.533 33.9105 130.931 33.9105C130.329 33.9105 130.215 34.0299 130.215 34.6269C130.215 35.2239 130.329 35.3433 130.902 35.3433C131.475 35.3433 131.59 35.4866 131.733 36.3463C131.819 36.9194 131.819 38.2567 131.733 39.3314C131.561 41.1702 131.533 41.3134 130.931 41.3134C130.3 41.3134 130.272 41.3612 130.071 45.7314L129.871 50.1493H129.04H128.209V52.4179V54.6866H127.349H126.489V56.1194V57.5523H125.629H124.77V59.1045V60.6567H123.939C123.136 60.6567 123.108 60.7045 122.907 62.0896C122.706 63.4746 122.678 63.5224 121.875 63.5224C121.13 63.5224 121.044 63.6179 121.044 64.2388C121.044 64.8836 120.958 64.9552 120.185 64.9552C119.411 64.9552 119.325 65.0269 119.325 65.6478C119.325 66.2448 119.21 66.3642 118.551 66.4358C117.892 66.4836 117.72 66.6269 117.663 67.2717C117.577 67.9642 117.462 68.0597 116.717 68.0597C115.972 68.0597 115.886 68.1314 115.886 68.7761C115.886 69.4209 115.8 69.4926 115.026 69.4926C114.253 69.4926 114.167 69.5642 114.167 70.209C114.167 70.8776 114.081 70.9254 113.164 70.9254C112.247 70.9254 112.161 70.9732 112.161 71.6418C112.161 72.2866 112.075 72.3582 111.301 72.3582C110.556 72.3582 110.441 72.4299 110.441 73.0508C110.441 73.7194 110.384 73.7433 108.722 73.9105C107.06 74.0776 107.003 74.1015 107.003 74.7702C107.003 75.3672 106.888 75.4627 106.172 75.4627C105.455 75.4627 105.312 75.5582 105.226 76.1075C105.14 76.7523 105.054 76.7761 103.506 76.8478C101.873 76.9194 101.844 76.9433 101.844 77.612V78.3284H99.9817C98.119 78.3284 98.119 78.3284 98.119 79.0209C98.119 79.6657 98.0617 79.7134 96.3996 79.8567C94.8521 80 94.6802 80.0717 94.6802 80.5732C94.6802 81.0985 94.5083 81.1463 92.8175 81.3134C91.1268 81.4567 90.9548 81.5284 90.9548 82.006C90.9548 82.4836 90.7542 82.5791 89.6366 82.7224C88.8915 82.794 87.6593 82.8657 86.9142 82.8657C85.5387 82.8657 85.5101 82.8896 85.5101 83.5821V84.2985H81.0683L76.6265 84.2985V85.0149V85.7314H73.0444H69.4623V86.4478V87.1642H59.8623H50.2623V86.4478V85.7314H46.6802H43.0981V85.0149V84.2985H41.2354H39.3727V83.5821C39.3727 82.8896 39.3154 82.8657 38.1119 82.8657C37.4241 82.8657 36.2778 82.794 35.5327 82.7224C34.3005 82.5791 34.2145 82.5075 34.2145 81.8866C34.2145 81.2657 34.1286 81.194 33.2116 81.194C32.2945 81.194 32.2086 81.1463 32.2086 80.4776V79.7612H30.4892H28.7698V79.0448C28.7698 78.4 28.6838 78.3284 27.9101 78.3284C27.1363 78.3284 27.0504 78.2567 27.0504 77.612C27.0504 76.9672 26.9644 76.8955 26.1907 76.8955C25.4169 76.8955 25.331 76.8239 25.331 76.1791C25.331 75.5343 25.245 75.4627 24.4999 75.4627C23.7548 75.4627 23.6402 75.3672 23.5542 74.6746C23.4683 74.006 23.3536 73.9105 22.5513 73.8388C21.7202 73.7672 21.6056 73.6717 21.6056 73.0508C21.6056 72.4299 21.5196 72.3582 20.7459 72.3582C19.9722 72.3582 19.8862 72.2866 19.8862 71.6418C19.8862 70.997 19.8002 70.9254 19.0265 70.9254H18.1668V69.4926C18.1668 68.0597 18.1668 68.0597 17.3357 68.0597C16.5907 68.0597 16.476 67.9642 16.3901 67.2717C16.3327 66.6508 16.1608 66.4836 15.5304 66.4358C14.8426 66.3642 14.7566 66.2448 14.5847 64.9314C14.3841 63.5702 14.3554 63.5224 13.553 63.5224C12.808 63.5224 12.722 63.4508 12.722 62.6866C12.722 61.9702 12.636 61.8508 12.0056 61.8508C11.3751 61.8508 11.2892 61.7314 11.1172 60.4179C10.9453 59.0329 10.888 58.9851 10.1142 58.9851H9.2832V56.8358L9.2832 54.6866H8.4235H7.56379V53.1343V51.5821H6.70409C5.87305 51.5821 5.84439 51.5343 5.84439 50.5314C5.84439 49.9582 5.75842 49.003 5.67245 48.3821C5.50051 47.3552 5.41454 47.2836 4.66947 47.2836H3.83842L3.83842 45.0149L3.83842 42.7463H2.97872H2.11902L2.11902 45.0149L2.11902 47.2836H2.97872H3.80976L3.89573 49.4806C3.9817 51.6776 3.98171 51.7015 4.72678 51.7732C5.38588 51.8448 5.50051 51.9881 5.67245 52.9433C5.75842 53.5403 5.84439 54.4955 5.84439 55.0687C5.84439 56.0239 5.9017 56.1194 6.53215 56.1194C7.10529 56.1194 7.21991 56.2627 7.39185 57.2179C7.47782 57.8388 7.56379 58.794 7.56379 59.3672C7.56379 60.3702 7.59245 60.4179 8.4235 60.4179C9.22588 60.4179 9.2832 60.4896 9.2832 61.2537C9.2832 62.0179 9.34051 62.0896 10.1429 62.0896C10.9739 62.0896 10.9739 62.1134 11.0599 63.5702C11.1459 65.003 11.1745 65.0746 11.9196 65.1463C12.636 65.2179 12.6933 65.3135 12.7793 66.5791C12.8653 67.9164 12.8653 67.9403 13.811 68.012C14.6133 68.0836 14.728 68.1791 14.728 68.8C14.728 69.3731 14.8426 69.4926 15.4157 69.4926C16.0462 69.4926 16.1322 69.612 16.3041 70.9254C16.5047 72.3105 16.5333 72.3582 17.3357 72.3582C18.0808 72.3582 18.1668 72.4537 18.1668 73.0746C18.1668 73.7194 18.2527 73.7911 18.9978 73.7911C19.7429 73.7911 19.8575 73.8866 19.9435 74.5552C20.0008 75.2239 20.1728 75.3672 20.8319 75.4149C21.491 75.4866 21.6056 75.606 21.6056 76.203C21.6056 76.8478 21.6916 76.8955 22.6086 76.8955C23.5256 76.8955 23.6116 76.9433 23.6116 77.612C23.6116 78.2567 23.6975 78.3284 24.4713 78.3284C25.245 78.3284 25.331 78.4 25.331 79.0448C25.331 79.6896 25.4169 79.7612 26.1907 79.7612C26.9357 79.7612 27.0504 79.8329 27.0504 80.4537C27.0504 81.0985 27.1077 81.1463 28.7411 81.2896C30.3459 81.4329 30.4605 81.5045 30.5465 82.1015C30.6324 82.6985 30.7184 82.7463 32.2659 82.8179C33.7847 82.8896 33.8993 82.9373 33.9853 83.5343C34.0713 84.1552 34.1572 84.1791 35.8766 84.2508C37.6247 84.3224 37.6533 84.3224 37.6533 85.0149V85.7314H39.516H41.3787V86.4478V87.1642H43.9578H46.5369V87.8806V88.597H50.119H53.7011V89.3134C53.7011 89.9582 53.7871 90.0299 54.5608 90.0299C55.3632 90.0299 55.4205 90.1015 55.4205 90.8657C55.4205 91.6299 55.4778 91.7015 56.2802 91.7015C57.0539 91.7015 57.1399 91.7731 57.1399 92.4179C57.1399 93.0866 57.2259 93.1343 58.1429 93.1343C59.0599 93.1343 59.1459 93.1821 59.1459 93.8508V94.5672H61.725H64.3041V95.2836V96H67.0551H69.7775L84.1806 93.1343L89.9519 91.4655C85.5101 90.0299 91.839 90.794 70.4324 93.8508C68.6557 93.7791 66.0235 94.5433 66.0235 93.8508V93.1343H63.4444H60.8653V92.4179C60.8653 91.7493 60.7793 91.7015 59.8336 91.7015C58.8593 91.7015 58.8307 91.6776 58.9166 90.9134C59.0026 90.1493 59.0026 90.1493 60.808 90.0776C62.4414 90.006 62.5847 89.9582 62.5847 89.4567C62.5847 88.9314 62.728 88.9075 65.2211 88.7403C66.6539 88.6687 68.6599 88.597 69.6629 88.597H71.4683V87.8806V87.1642H74.0474H76.6265V86.4478V85.7314L81.928 85.7314H87.2295V85.0149V84.2985H89.9519H92.6742V83.5821V82.8657H94.5369H96.3996V82.1732C96.3996 81.4806 96.4283 81.4567 98.2623 81.3134C99.953 81.1463 100.125 81.0985 100.125 80.5732C100.125 80.0717 100.297 80 101.844 79.8567C103.506 79.7134 103.564 79.6657 103.564 79.0209C103.564 78.3284 103.592 78.3284 105.283 78.3284C107.203 78.3284 107.203 78.3523 106.831 80.2866C106.687 81.0269 106.515 81.194 105.971 81.194C105.455 81.194 105.312 81.3373 105.226 81.9582C105.169 82.603 104.997 82.7702 104.366 82.8179C103.764 82.8896 103.592 83.0329 103.506 83.5343C103.449 84.0597 103.249 84.203 102.503 84.2508C101.672 84.3224 101.558 84.4179 101.558 85.0388C101.558 85.6597 101.472 85.7314 100.698 85.7314C99.9244 85.7314 99.8384 85.803 99.8384 86.4478C99.8384 87.0926 99.7524 87.1642 98.9787 87.1642C98.205 87.1642 98.119 87.2358 98.119 87.8806C98.119 88.5732 98.0903 88.5732 96.3423 88.6448C94.5369 88.7164 94.5369 88.7164 94.451 89.4806L94.365 90.2687H91.7859C89.2927 90.2687 89.2354 90.2926 89.2354 90.8418C89.2354 91.3433 89.4074 91.4149 90.6396 91.5582C91.4133 91.6537 92.5883 91.6537 93.2187 91.5582C94.193 91.4388 94.3936 91.3194 94.3936 90.8657C94.3936 90.3881 94.5656 90.3164 96.2563 90.1493C98.0904 90.006 98.119 89.9821 98.119 89.2896C98.119 88.597 98.119 88.597 99.8384 88.597H101.558V87.8806C101.558 87.2358 101.644 87.1642 102.418 87.1642C103.191 87.1642 103.277 87.0926 103.277 86.4478C103.277 85.7791 103.363 85.7314 104.28 85.7314C105.197 85.7314 105.283 85.6836 105.283 85.0388C105.283 84.4418 105.398 84.3224 106.086 84.2508C106.831 84.1791 106.859 84.1075 106.945 82.794C107.031 81.4567 107.06 81.4329 107.862 81.4329H108.693L108.779 79.0926L108.865 76.7761L109.668 76.7045C110.327 76.6329 110.441 76.5135 110.441 75.9164C110.441 75.3194 110.556 75.2239 111.272 75.2239C111.989 75.2239 112.132 75.1284 112.218 74.5552C112.275 74.0299 112.447 73.8866 113.25 73.8388C114.052 73.7672 114.167 73.6717 114.167 73.0508C114.167 72.4299 114.253 72.3582 115.026 72.3582C115.8 72.3582 115.886 72.2866 115.886 71.6418C115.886 70.997 115.972 70.9254 116.746 70.9254C117.52 70.9254 117.606 70.8537 117.606 70.209C117.606 69.5642 117.692 69.4926 118.465 69.4926C119.239 69.4926 119.325 69.4209 119.325 68.7761C119.325 68.1314 119.411 68.0597 120.156 68.0597C120.901 68.0597 121.016 67.9642 121.102 67.2717C121.159 66.6508 121.331 66.4836 121.961 66.4358C122.678 66.3642 122.764 66.2687 122.936 64.9314C123.108 63.5702 123.165 63.5224 123.939 63.5224C124.684 63.5224 124.77 63.4508 124.77 62.6866C124.77 61.9224 124.827 61.8508 125.629 61.8508H126.489V60.4179V58.9851H127.349H128.209V57.5523C128.209 56.1433 128.209 56.1194 129.04 56.1194H129.871L130.071 53.2776L130.272 50.412L131.046 50.3403C131.791 50.2687 131.791 50.2448 131.877 48.0478L131.963 45.8508H133.195C133.883 45.8508 135.029 45.7791 135.774 45.7075C136.892 45.5642 137.092 45.4687 137.092 44.9911C137.092 44.5135 137.264 44.4418 138.955 44.2985C140.646 44.1314 140.818 44.0836 140.818 43.5821C140.818 43.0806 140.989 43.009 142.537 42.8657C144.199 42.6985 144.256 42.6746 144.256 42.006C144.256 41.3851 144.371 41.3134 145.116 41.3134C145.89 41.3134 145.976 41.2418 145.976 40.6209C145.976 40 146.09 39.9045 146.921 39.8329C147.666 39.7851 147.867 39.6418 147.924 39.1164C148.01 38.6149 148.182 38.4717 148.784 38.4C149.5 38.3284 149.558 38.2567 149.644 36.9672C149.73 35.7015 149.787 35.606 150.503 35.5343C151.134 35.4866 151.306 35.3194 151.363 34.6746C151.449 34.006 151.564 33.9105 152.309 33.9105H153.14V31.6418V29.3732H154H154.859V23.5224V17.6717H154H153.14V16.1194V14.5672H152.28H151.421V13.1343V11.7015H150.561C149.787 11.7015 149.701 11.6299 149.701 10.9851C149.701 10.3403 149.615 10.2687 148.87 10.2687C148.125 10.2687 148.01 10.1732 147.924 9.48062C147.867 8.85973 147.695 8.69257 147.065 8.64481C146.463 8.57316 146.291 8.42988 146.205 7.92838C146.148 7.40301 145.947 7.25973 145.202 7.21197C144.371 7.14032 144.256 7.0448 144.256 6.4239C144.256 5.80301 144.17 5.73136 143.397 5.73136C142.68 5.73136 142.537 5.63584 142.537 5.15823C142.537 4.68062 142.365 4.5851 141.219 4.44182C140.474 4.37017 139.241 4.29852 138.496 4.29852C137.121 4.29852 137.092 4.27464 137.092 3.58211V2.86569H135.229H133.367V3.58211ZM137.092 5.01495V5.73136H138.955H140.818V6.4239C140.818 7.09256 140.875 7.11644 142.537 7.2836C144.199 7.45077 144.256 7.47466 144.256 8.14331C144.256 8.76421 144.371 8.83584 145.116 8.83584C145.89 8.83584 145.976 8.90748 145.976 9.55225C145.976 10.197 146.062 10.2687 146.835 10.2687C147.609 10.2687 147.695 10.3403 147.695 10.9851C147.695 11.6537 147.781 11.7015 148.698 11.7015H149.701V13.1343V14.5672H150.561H151.421V16.8358V19.1045H152.28H153.14V23.6418V28.1791H152.28H151.421V30.3284V32.4776H150.589C149.787 32.4776 149.758 32.5254 149.558 33.9105C149.357 35.2955 149.329 35.3433 148.526 35.3433C147.81 35.3433 147.695 35.4388 147.695 36.0358C147.695 36.6329 147.58 36.7523 146.921 36.8239C146.262 36.8717 146.09 37.0149 146.033 37.6597C145.947 38.3523 145.832 38.4478 145.087 38.4478C144.342 38.4478 144.256 38.5194 144.256 39.1642V39.8806H142.537H140.818V40.597C140.818 41.2657 140.732 41.3134 139.815 41.3134C138.898 41.3134 138.812 41.3851 138.812 42.006C138.812 42.6746 138.754 42.6985 137.092 42.8657C135.516 43.009 135.373 43.0806 135.373 43.606C135.373 44.1552 135.287 44.1791 133.653 44.1791C132.02 44.1791 131.934 44.1552 131.934 43.606C131.934 43.1523 132.106 43.009 132.736 42.9373L133.51 42.8657L133.596 40.6448L133.682 38.4478H135.373C137.063 38.4478 137.092 38.4478 137.092 37.7552C137.092 37.1105 137.149 37.0627 138.783 36.9194C140.388 36.7761 140.502 36.7045 140.588 36.1075C140.646 35.5821 140.846 35.4388 141.62 35.3911C142.422 35.3194 142.537 35.2239 142.537 34.603C142.537 33.9821 142.623 33.9105 143.397 33.9105H144.256V32.4776V31.0448H145.116C145.947 31.0448 145.976 31.0209 145.976 29.8746C145.976 29.2538 146.062 28.2269 146.148 27.606C146.32 26.6508 146.434 26.5075 147.007 26.5075H147.695V22.806V19.1045H146.835H145.976V17.6717V16.2388H145.116H144.228L144.314 17.7194C144.4 19.1523 144.428 19.2239 145.202 19.2955L145.976 19.3672V22.9493V26.5075H145.116H144.256V28.0597V29.612H143.397C142.594 29.612 142.566 29.6358 142.48 30.9732C142.394 32.3344 142.394 32.3582 141.477 32.4299C140.646 32.5015 140.531 32.597 140.531 33.2179C140.531 33.8388 140.445 33.9105 139.671 33.9105C138.926 33.9105 138.812 33.9821 138.812 34.603C138.812 35.2478 138.726 35.2955 137.264 35.4388C135.831 35.606 135.688 35.6776 135.602 36.2508C135.545 36.7761 135.344 36.9194 134.599 36.9672L133.682 37.0388L133.596 33.2657L133.51 29.4926L132.736 29.4209L131.934 29.3493L131.877 25.003L131.791 20.6567L131.017 20.5851L130.215 20.5135V18.2448C130.215 16 130.215 16 130.931 16C131.504 16 131.647 15.8806 131.647 15.4269C131.647 14.9732 131.475 14.8299 130.874 14.7582C130.215 14.7105 130.043 14.5672 129.985 13.8985C129.899 13.2776 129.756 13.1343 129.24 13.1343C128.667 13.1343 128.552 12.9911 128.381 12.0358C128.295 11.4149 128.209 10.0776 128.209 9.05077V7.1642H129.068C129.842 7.1642 129.928 7.09256 129.928 6.44778V5.73136H131.647H133.367V5.01495V4.29852H135.229H137.092V5.01495Z" fill="#EA580C" fill-opacity="0.3"/>
<path d="M0.400024 38.3283L0.400024 41.3134H1.25973H2.11943L2.11943 38.3283L2.11943 35.3432H1.25973H0.400024L0.400024 38.3283Z" fill="#EA580C" fill-opacity="0.3"/>
<path d="M92.9037 39.0925L92.8177 39.7612L90.1813 39.8328L87.5162 39.9045V40.597C87.5162 41.2657 87.4302 41.3134 86.5132 41.3134C85.5962 41.3134 85.5102 41.3612 85.5102 42.0299C85.5102 42.6746 85.4243 42.7463 84.6505 42.7463C83.8768 42.7463 83.7908 42.8179 83.7908 43.4627C83.7908 44.1075 83.7049 44.1791 82.9311 44.1791C82.1574 44.1791 82.0714 44.2507 82.0714 44.8955C82.0714 45.5403 81.9855 45.6119 81.2117 45.6119C80.4094 45.6119 80.352 45.6836 80.352 46.4478C80.352 47.2119 80.2947 47.2836 79.4923 47.2836H78.6326V48.7164C78.6326 50.1493 78.6326 50.1493 77.8016 50.1493C76.9705 50.1493 76.9419 50.1731 76.7699 51.7015C76.5694 53.1104 76.512 53.2537 75.9102 53.2537C75.2798 53.2537 75.2511 53.3493 75.0505 56.0955C74.9359 57.6716 74.9359 59.0567 75.0505 59.2C75.1365 59.3433 75.1365 60.0597 75.0505 60.7761C74.8499 62.0179 74.7926 62.0896 74.0189 62.0896C73.2738 62.0896 73.1879 61.994 73.1879 61.3731C73.1879 60.7284 73.1019 60.6567 72.3282 60.6567H71.4685V59.1045V57.5522H70.6088C69.835 57.5522 69.7491 57.4806 69.7491 56.8358C69.7491 56.1672 69.6631 56.1194 68.7461 56.1194C67.8291 56.1194 67.7431 56.0478 67.7431 55.4269C67.7431 54.7821 67.6571 54.7343 66.167 54.5672C64.7341 54.4239 64.5908 54.3522 64.5908 53.8269C64.5908 53.3254 64.4476 53.2537 63.5879 53.2537C62.6708 53.2537 62.5849 53.206 62.5849 52.5612C62.5849 51.8687 62.5562 51.8448 60.7222 51.7015C59.0314 51.5343 58.8595 51.4627 58.8595 50.9851C58.8595 50.3881 57.8852 50.1493 55.2201 50.1493C53.7299 50.1493 53.7013 50.1493 53.7013 49.4328V48.7164H51.9819H50.2625V48V47.2836H47.5401H44.8177L44.8177 46.5672C44.8177 45.8746 44.7891 45.8746 43.041 45.803C41.3216 45.7313 41.2356 45.7075 41.1496 45.1104C41.0637 44.5612 40.8917 44.4657 39.7455 44.3224C39.0291 44.2507 37.4816 44.1791 36.3353 44.1791H34.2147V44.8955C34.2147 45.5403 34.3007 45.6119 35.0744 45.6119H35.9341V48V50.3881H36.7938H37.6535L37.6535 52.5373V54.6866H38.5132C39.3443 54.6866 39.3729 54.7343 39.3729 55.7373C39.3729 56.3104 39.4589 57.2657 39.5449 57.8627C39.7168 58.8179 39.8314 58.9612 40.4905 59.0328C41.1783 59.1045 41.2356 59.2 41.3216 60.4657C41.4076 61.7313 41.4649 61.8269 42.1813 61.8985C42.9264 61.9701 42.955 62.0418 43.041 63.4507C43.127 64.9313 43.127 64.9552 43.958 64.9552C44.7604 64.9552 44.8177 65.0269 44.8177 65.791C44.8177 66.5552 44.875 66.6269 45.6774 66.6269C46.5371 66.6269 46.5371 66.6507 46.5371 67.9164C46.5371 69.206 46.5371 69.2299 47.4828 69.3015C48.2852 69.3731 48.3998 69.4687 48.4858 70.1373C48.5717 70.8299 48.6864 70.9254 49.4314 70.9254C50.1765 70.9254 50.2625 70.997 50.2625 71.6418C50.2625 72.2866 50.3485 72.3582 51.1222 72.3582C51.8959 72.3582 51.9819 72.4299 51.9819 73.0746C51.9819 73.7194 52.0679 73.791 52.8416 73.791C53.5867 73.791 53.7013 73.8627 53.7013 74.4836C53.7013 75.1761 53.7299 75.2 55.564 75.3433C57.2547 75.5104 57.4267 75.5821 57.4267 76.0597C57.4267 76.8 58.315 76.8955 65.5365 76.8955H71.4685V76.1791C71.4685 75.4627 71.4685 75.4627 73.1592 75.4627H74.8786L74.9646 74.6746C75.0505 74.006 75.1652 73.9104 75.9962 73.8388C76.7413 73.7672 76.9132 73.6478 76.9132 73.194C76.9132 72.7642 77.0852 72.6209 77.7156 72.5493C78.3461 72.5015 78.518 72.3582 78.5753 71.6896C78.6613 70.9731 78.604 70.9254 77.8016 70.9254H76.9132V69.4925V68.0597H79.4923H82.0714V67.3672C82.0714 66.6985 82.1288 66.6746 83.7908 66.5075C85.4529 66.3403 85.5102 66.3164 85.5102 65.6478C85.5102 65.0507 85.6249 64.9552 86.3413 64.9552C87.1437 64.9552 87.1723 64.9075 87.3729 63.5224C87.5735 62.1373 87.6022 62.0896 88.4046 62.0896C89.1497 62.0896 89.2356 62.0179 89.2356 61.2537C89.2356 60.4896 89.2929 60.4179 90.0953 60.4179H90.955V58.2687V56.1194H91.8147H92.6744V53.2537C92.6744 50.3881 92.6744 50.3881 91.9867 50.3881C91.1843 50.3881 90.955 51.1522 90.955 54.1373V56.1194H90.0953H89.2356V57.6716V59.2239H88.3759C87.5735 59.2239 87.5449 59.2478 87.4589 60.5851C87.3729 61.9463 87.3729 61.9701 86.4559 62.0418C85.6249 62.1134 85.5102 62.209 85.5102 62.8299C85.5102 63.5224 85.5102 63.5224 83.7908 63.5224C82.0714 63.5224 82.0714 63.5224 82.0714 64.2149C82.0714 64.8836 82.0141 64.9075 80.352 65.0746C78.7759 65.2179 78.6326 65.2896 78.6326 65.8149C78.6326 66.3881 78.5753 66.3881 76.0535 66.3881C73.5317 66.3881 73.4744 66.3881 73.4744 65.8149C73.4744 65.3134 73.6464 65.2418 75.0505 65.0746C76.5694 64.9313 76.6267 64.8836 76.6267 64.2149C76.6267 63.5701 76.7126 63.5224 77.6297 63.5224L78.6326 63.5224V62.0896V60.6567H79.4923C80.2947 60.6567 80.352 60.5851 80.352 59.8209C80.352 59.0567 80.4094 58.9851 81.2117 58.9851C81.9855 58.9851 82.0714 58.9134 82.0714 58.2687C82.0714 57.6239 82.1574 57.5522 82.9311 57.5522H83.7908V56.1194C83.7908 54.7104 83.7908 54.6866 84.6219 54.6866C85.3956 54.6866 85.4529 54.6149 85.6535 53.3493C85.8541 51.8687 85.6535 51.5104 84.6219 51.6299C84.0774 51.6776 83.9055 51.8687 83.8482 52.4657C83.7622 53.1582 83.6476 53.2537 82.9025 53.2537C82.0714 53.2537 82.0714 53.2537 82.0714 54.6866V56.1194H81.2117H80.352V57.5522V58.9851H79.4923C78.6899 58.9851 78.6326 59.0567 78.6326 59.8448C78.6326 60.6567 78.604 60.6806 77.7156 60.609C76.7699 60.5373 76.77 60.5373 76.684 59.1045C76.6267 58.3164 76.6553 57.003 76.7699 56.1672C76.9419 54.7343 76.9705 54.6866 77.8016 54.6866H78.6326V53.1343V51.5821H79.4923H80.352V50.1493V48.7164H81.2117C81.9855 48.7164 82.0714 48.6448 82.0714 48C82.0714 47.3552 82.1574 47.2836 82.9311 47.2836C83.7049 47.2836 83.7908 47.2119 83.7908 46.5672C83.7908 45.9224 83.8768 45.8507 84.6219 45.8507C85.367 45.8507 85.4816 45.7552 85.5676 45.0627C85.6535 44.394 85.7682 44.2985 86.5992 44.2269C87.4016 44.1552 87.5162 44.0597 87.5162 43.4388C87.5162 42.8179 87.6022 42.7463 88.3759 42.7463C89.1497 42.7463 89.2356 42.6746 89.2356 42.0299V41.3134H91.8147H94.3938V42.0299C94.3938 42.6507 94.4798 42.7463 95.2249 42.7463C95.9986 42.7463 96.0559 42.6746 96.2565 41.4328C96.4571 39.9284 96.3425 39.6418 95.3682 39.6418C94.8237 39.6418 94.6804 39.5224 94.6804 39.0448C94.6804 38.5433 94.5371 38.4478 93.8494 38.4478C93.1329 38.4478 92.9896 38.5433 92.9037 39.0925ZM39.6595 46.5672V47.2836H42.2386H44.8177V48V48.7164H47.3968H49.9759V49.4328V50.1493H51.8386H53.7013V50.8657V51.5821H55.564H57.4267V52.2746C57.4267 52.9433 57.484 52.9672 59.1461 53.1343C60.6935 53.2776 60.8655 53.3493 60.8655 53.8507C60.8655 54.3522 61.0374 54.4239 62.5849 54.5672C64.247 54.7343 64.3043 54.7582 64.3043 55.4269C64.3043 56.0478 64.3902 56.1194 65.3073 56.1194C66.2243 56.1194 66.3102 56.1672 66.3102 56.8358C66.3102 57.4806 66.3962 57.5522 67.1699 57.5522C67.9437 57.5522 68.0296 57.6239 68.0296 58.2687C68.0296 58.9134 68.1156 58.9851 68.8894 58.9851C69.6917 58.9851 69.7491 59.0567 69.7491 59.8209C69.7491 60.5851 69.8064 60.6567 70.6088 60.6567H71.4685V62.806V64.9552H70.6088C69.835 64.9552 69.7491 64.8836 69.7491 64.2388C69.7491 63.594 69.6631 63.5224 68.8894 63.5224C68.1156 63.5224 68.0296 63.4507 68.0296 62.8299C68.0296 62.209 67.915 62.1134 67.1126 62.0418C66.3102 61.994 66.1383 61.8507 66.081 61.3015C65.995 60.7522 65.8517 60.6567 65.1353 60.6567C64.4189 60.6567 64.3043 60.5612 64.3043 59.9642C64.3043 59.2955 64.247 59.2716 62.5849 59.1045C60.9228 58.9373 60.8655 58.9134 60.8655 58.2448C60.8655 57.6239 60.7508 57.5522 60.0058 57.5522C59.232 57.5522 59.1461 57.4806 59.1461 56.8358V56.1194H57.2834H55.4207V55.403C55.4207 54.7104 55.392 54.7104 53.644 54.6388C51.9246 54.5672 51.8386 54.5433 51.7526 53.8985C51.6667 53.2776 51.6093 53.2537 49.9473 53.2537C48.2565 53.2537 48.2565 53.2537 48.2565 53.9701C48.2565 54.6388 48.3425 54.6866 49.2595 54.6866C50.1765 54.6866 50.2625 54.7343 50.2625 55.403V56.1194H51.9819H53.7013V56.8358C53.7013 57.4806 53.7873 57.5522 54.561 57.5522C55.3061 57.5522 55.4207 57.6239 55.4207 58.2448C55.4207 58.8896 55.478 58.9373 57.1114 59.0806C58.7162 59.2239 58.8308 59.2955 58.9168 59.8925C58.9741 60.4179 59.1747 60.5612 59.9485 60.609C60.6935 60.6806 60.8655 60.8 60.8655 61.2537C60.8655 61.7552 61.0374 61.8269 62.5849 61.9701C64.247 62.1373 64.3043 62.1612 64.3043 62.8299C64.3043 63.4507 64.3902 63.5224 65.3073 63.5224C66.2243 63.5224 66.3102 63.594 66.3102 64.2149C66.3102 64.8597 66.3962 64.9075 67.8577 65.0507C69.2905 65.2179 69.4338 65.2896 69.5198 65.8627C69.5771 66.3881 69.7777 66.5313 70.5514 66.5791C71.3538 66.6507 71.4685 66.7463 71.4685 67.3672C71.4685 67.9881 71.5544 68.0597 72.3282 68.0597C73.1019 68.0597 73.1879 68.1313 73.1879 68.7761C73.1879 69.4209 73.2738 69.4925 74.0476 69.4925C74.8213 69.4925 74.9073 69.5642 74.9073 70.209C74.9073 70.8537 74.9932 70.9254 75.767 70.9254C76.5407 70.9254 76.6267 70.997 76.6267 71.6418C76.6267 72.2866 76.5407 72.3582 75.767 72.3582C74.9932 72.3582 74.9073 72.4299 74.9073 73.0746C74.9073 73.7672 74.8499 73.791 73.6464 73.791C72.9586 73.791 71.8123 73.8627 71.0673 73.9343C69.9496 74.0776 69.7491 74.1731 69.7491 74.6269C69.7491 75.0806 69.5485 75.1761 68.4308 75.3194C66.7114 75.5104 62.1837 75.5104 60.4643 75.3194C59.3467 75.1761 59.1461 75.0806 59.1461 74.603C59.1461 74.1254 58.9741 74.0537 57.2834 73.9104C55.478 73.7433 55.4207 73.7194 55.4207 73.0507C55.4207 72.4299 55.3061 72.3582 54.561 72.3582C53.7873 72.3582 53.7013 72.2866 53.7013 71.6418C53.7013 70.997 53.6153 70.9254 52.8416 70.9254C52.0679 70.9254 51.9819 70.8537 51.9819 70.209C51.9819 69.5642 51.8959 69.4925 51.1508 69.4925C50.4058 69.4925 50.2911 69.397 50.2052 68.7045C50.1479 68.0836 49.9759 67.9164 49.3455 67.8687C48.6577 67.797 48.5717 67.6776 48.3711 66.4836C48.1992 65.2657 48.1419 65.194 47.3682 65.194C46.6231 65.194 46.5371 65.1224 46.5371 64.3582C46.5371 63.594 46.4798 63.5224 45.6774 63.5224H44.8177V62.0896C44.8177 60.6806 44.8177 60.6567 43.9867 60.6567C43.1843 60.6567 43.1556 60.609 42.955 59.1045C42.7831 57.6955 42.6971 57.5522 42.0953 57.5522C41.4935 57.5522 41.4076 57.409 41.2356 56.1194C41.035 54.7343 41.0064 54.6866 40.204 54.6866H39.3729V52.4179V50.1493H38.5132H37.6535V48V45.8507H38.6565C39.5735 45.8507 39.6595 45.8985 39.6595 46.5672Z" fill="#EA580C" fill-opacity="0.3"/>
<path d="M92.8461 45.5164C92.7602 46.1373 92.6742 47.4268 92.6742 48.3821V50.1492H93.5052H94.3076L94.4509 48.1671C94.6515 45.2776 94.4796 44.4179 93.6772 44.4179C93.1327 44.4179 93.0181 44.585 92.8461 45.5164Z" fill="#EA580C" fill-opacity="0.3"/>
</svg>
