<svg width="91" height="121" viewBox="0 0 91 121" fill="none" xmlns="http://www.w3.org/2000/svg">
<path d="M8.59874 37.2727C4.8215 40.0134 4.02788 41.2611 2.70076 45.5643C1.77337 48.5714 1.65276 51.812 3.03587 54.7252C5.78247 60.5102 11.7952 63.1505 17.9484 63.1505C19.3743 63.1505 21.4672 62.5264 22.774 61.9469C23.5088 61.6211 25.3774 59.5594 25.4549 59.9074C25.9348 62.0619 25.2463 63.799 26.3932 65.8587C27.4303 67.7211 28.0928 67.9699 29.5768 69.3024C31.8545 71.3476 35.4593 72.1149 38.1557 73.2476C41.0375 74.4582 43.9949 73.9924 46.9021 73.3479C49.84 72.6965 52.4193 70.1761 53.8389 67.6976C54.1981 67.0704 54.4554 64.4343 55.3134 65.2903C56.5048 66.479 57.6402 67.7114 59.2677 68.4331C62.1624 69.7167 65.7625 69.7705 68.919 69.7705C72.3973 69.7705 74.1252 66.8601 77.0622 65.5578C80.6532 63.9655 83.83 50.38 79.7766 48.239C78.3952 47.5094 77.7308 47.6169 79.7766 47.5035C80.9531 47.4383 81.8691 45.8059 82.7926 45.23C85.3494 43.6357 87.0167 40.2781 88.2215 37.5736C89.3364 35.0708 89.2694 30.97 87.9198 28.5464C86.4336 25.8774 83.5462 25.8383 80.6814 25.8383C79.7622 25.8383 77.9534 25.8754 77.3973 26.7076C76.8316 27.5542 78.5288 24.9911 78.8718 24.0329C79.9881 20.9145 80.4903 17.0372 78.5702 14.2702C75.9146 10.4431 74.2044 9.58352 70.5945 12.4647C69.5118 13.3289 68.4756 14.0364 67.7126 12.5985C66.2742 9.88785 63.9261 7.35843 62.887 4.50745C60.6291 -1.68723 48.6816 4.98421 48.4101 9.5894C48.0605 15.5187 46.0247 9.27025 43.5845 7.91771C41.4883 6.75583 36.9392 5.70814 34.5029 6.01197C31.082 6.4386 28.6059 8.81951 26.3597 11.0605C25.3549 12.063 24.9669 13.8284 25.79 15.3066C26.8951 17.2911 28.2756 17.7512 24.8852 17.4129C21.506 17.0758 18.3854 14.7092 14.7648 15.7412C10.9026 16.8422 6.53439 17.8044 5.61624 21.9265C5.00889 24.6533 4.97953 27.5078 4.97953 30.3519C4.97953 32.6688 7.62879 34.7354 8.59874 36.6709" stroke="#EA580C" stroke-opacity="0.3" stroke-width="3" stroke-linecap="round"/>
<path d="M30 70.0337C33.068 73.1017 40.5 89.3739 37.5 107.817C34.5 126.259 63.7817 116.829 66.6676 113.943C67.8558 112.755 68.0981 109.477 68.0981 107.817C68.0981 105.728 68.6578 103.436 68.6578 101.1C68.6578 95.6888 68.6578 90.2779 68.6578 84.867C68.6578 82.1624 67.5383 79.6122 67.5383 77.0306C67.5383 76.2094 65.574 70.171 65.2993 70.0337" stroke="#EA580C" stroke-opacity="0.3" stroke-width="3" stroke-linecap="round"/>
<path d="M34.584 53.7952C36.2152 56.5818 37.6971 58.8552 39.0457 61.5526C39.8659 63.193 40.9724 66.8561 40.9724 68.5748C40.9724 70.8442 41.4181 64.0468 41.9104 61.8314C42.2023 60.5178 42.9879 56.2098 44.1666 55.6204" stroke="#EA580C" stroke-opacity="0.3" stroke-width="3" stroke-linecap="round"/>
<path d="M47.8172 51.5135C48.8784 54.2329 51.2379 57.0948 51.4677 60.0822C51.5478 61.1235 52.3306 62.8731 52.7352 63.8341C52.8956 64.215 53.5825 66.9296 53.7239 66.2932C54.3434 63.5056 55.5745 61.0982 55.5745 58.1301C55.5745 56.7389 56.1586 52.5905 57.3998 51.9699" stroke="#EA580C" stroke-opacity="0.3" stroke-width="3" stroke-linecap="round"/>
<path d="M28.356 45.4048C23.3786 43.341 21.7519 38.6614 24.4378 33.9611C25.994 31.2377 30.5256 33.1105 32.523 33.6812C32.7125 33.7354 33.7047 34.9156 33.7047 34.5209C33.7047 33.4877 32.834 32.7185 32.834 31.691C32.834 29.8197 32.4539 28.2387 34.0779 27.0576C35.2314 26.2187 38.3657 26.3734 39.8308 26.3734C41.5251 26.3734 41.8497 28.0825 42.9095 28.6124" stroke="#EA580C" stroke-opacity="0.3" stroke-width="3" stroke-linecap="round"/>
<path d="M57.4629 34.2099C61.1431 32.9261 65.8591 33.9327 65.8591 38.408C65.8591 39.4888 65.3439 42.0287 66.1701 42.8549C67.1909 43.8757 68.7049 44.2694 69.7773 45.4048C71.6288 47.3652 69.4889 50.1712 67.8182 51.8419C66.2698 53.3904 64.0493 53.801 61.9409 53.801" stroke="#EA580C" stroke-opacity="0.3" stroke-width="3" stroke-linecap="round"/>
</svg>
