<svg width="123" height="174" viewBox="0 0 123 174" fill="none" xmlns="http://www.w3.org/2000/svg">
<path d="M-7.11034 0.967346C-7.11034 1.83797 -7.22643 1.93471 -8.27116 1.93471C-9.3159 1.93471 -9.43198 2.03143 -9.43198 2.90205C-9.43198 3.77266 -9.54806 3.8694 -10.5928 3.8694C-11.6375 3.8694 -11.7536 3.96614 -11.7536 4.8045C-11.7536 5.64287 -11.9084 5.77185 -12.9918 5.86858C-14.1139 5.96532 -14.2687 6.0943 -14.3848 6.99716C-14.5009 7.86777 -14.6943 8.06123 -15.3908 8.06123C-16.5517 8.06123 -16.7838 9.09308 -16.7838 14.091V17.7347H-17.9446C-19.0281 17.7347 -19.1055 17.8314 -19.1055 18.8633C-19.1055 19.9274 -19.1828 19.9919 -20.4597 19.9919C-21.6979 19.9919 -21.814 20.0563 -21.814 20.9592C-21.814 21.7653 -21.9688 21.9265 -22.7814 21.9265C-23.7487 21.9265 -23.7487 21.9588 -23.7487 24.7963V27.6984L-24.9869 27.7951C-26.0317 27.8596 -26.3025 28.0531 -26.3799 28.7625C-26.496 29.5363 -26.6895 29.6331 -28.8176 29.8265C-31.0232 30.0523 -31.1006 30.0845 -31.1006 30.9874C-31.1006 31.9225 -31.1006 31.9225 -33.4222 31.9225C-35.7438 31.9225 -35.7438 31.9225 -35.7438 32.8576C-35.7438 33.6959 -35.8986 33.8249 -36.982 33.9216C-38.0655 33.9861 -38.2976 34.1796 -38.375 34.889C-38.4911 35.7596 -38.5685 35.7919 -40.8127 35.7919C-43.0957 35.7919 -43.0957 35.7919 -43.0957 34.8245C-43.0957 33.9539 -43.2117 33.8572 -44.2565 33.8572C-45.3012 33.8572 -45.4173 33.7604 -45.4173 32.8898V31.9225H-50.254H-55.0908V32.8898C-55.0908 33.7604 -55.2069 33.8572 -56.2516 33.8572C-57.2963 33.8572 -57.4124 33.9539 -57.4124 34.7923C-57.4124 35.6306 -57.5672 35.7596 -58.6506 35.8563C-59.6953 35.9208 -59.9662 36.1143 -60.0436 36.8237C-60.1597 37.5008 -60.3918 37.6943 -61.2044 37.791C-62.0557 37.8555 -62.2878 38.0812 -62.3652 38.9196C-62.4813 39.8547 -62.6361 39.9837 -63.6421 39.9837C-64.7642 39.9837 -64.7642 39.9837 -64.7642 41.9184V43.8531H-65.9251H-67.0859V46.9163V49.9796H-65.9251C-64.8803 49.9796 -64.7642 50.0763 -64.7642 50.947C-64.7642 51.8176 -64.6482 51.9143 -63.6034 51.9143C-62.5587 51.9143 -62.4426 52.011 -62.4426 52.8817C-62.4426 53.7523 -62.3265 53.849 -61.2818 53.849C-60.2371 53.849 -60.121 53.9457 -60.121 54.8163C-60.121 55.7192 -60.0049 55.7837 -58.728 55.7837C-57.4124 55.7837 -57.3737 55.8159 -57.4898 56.8155C-57.5672 57.7184 -57.7993 57.9118 -58.6506 57.9763C-59.6953 58.0731 -59.734 58.1376 -59.734 60.0078C-59.734 61.878 -59.734 61.9102 -60.8562 61.9102C-61.9009 61.9102 -61.9783 62.007 -62.2104 63.587C-62.3265 64.5221 -62.4426 65.8441 -62.4426 66.489C-62.4426 67.6176 -62.52 67.7143 -63.6034 67.7143H-64.7642V69.8102V71.9061H-65.9251H-67.0859V74.8082V77.7102H-68.2467H-69.4075V81.7408V85.7715H-70.4909H-71.6131L-71.8839 94.1551C-72.0387 98.7662 -72.0387 105.57 -71.8839 109.31C-71.6131 116.017 -71.6131 116.082 -70.7618 116.082C-69.7171 116.082 -69.4075 117.178 -69.4075 121.144V123.82H-68.2467H-67.0859V125.916V128.012H-65.9251H-64.7642V129.947C-64.7642 131.882 -64.7642 131.882 -63.6421 131.882C-62.5587 131.882 -62.52 131.946 -62.2491 133.784C-62.017 135.558 -61.9009 135.719 -60.9722 135.816C-60.121 135.88 -59.8888 136.106 -59.8114 136.944C-59.6953 137.815 -59.5019 138.008 -58.7667 138.008C-57.9154 138.008 -57.7993 138.169 -57.5672 139.943C-57.335 141.813 -57.2576 141.878 -56.2129 141.878C-55.2069 141.878 -55.0908 142.007 -55.0908 142.845C-55.0908 143.716 -54.9747 143.812 -53.93 143.812C-52.8852 143.812 -52.7691 143.909 -52.7691 144.78C-52.7691 145.65 -52.6531 145.747 -51.647 145.747C-50.641 145.747 -50.4862 145.876 -50.3701 146.779C-50.2927 147.649 -50.0606 147.875 -49.2093 147.94C-48.3967 148.036 -48.1646 148.23 -48.0485 148.907C-47.9711 149.616 -47.7002 149.81 -46.6555 149.874C-45.5721 149.971 -45.4173 150.1 -45.4173 150.938C-45.4173 151.777 -45.3012 151.874 -44.2565 151.874C-43.2117 151.874 -43.0957 151.97 -43.0957 152.841C-43.0957 153.711 -42.9796 153.808 -41.9348 153.808C-40.9288 153.808 -40.774 153.905 -40.774 154.743C-40.774 155.614 -40.6966 155.678 -38.4524 155.872C-36.3242 156.065 -36.1308 156.162 -36.1308 156.871C-36.1308 157.484 -35.8986 157.645 -34.8539 157.742C-33.8478 157.807 -33.577 158 -33.4996 158.709C-33.3835 159.483 -33.19 159.58 -31.0619 159.774C-28.8563 159.999 -28.7789 160.031 -28.7789 160.934C-28.7789 161.773 -28.6628 161.869 -27.4246 161.869C-26.1864 161.869 -26.0704 161.934 -26.0704 162.837V163.804H-23.7487H-21.4271V164.771V165.739H-17.9446H-14.4622V166.706C-14.4622 167.641 -14.4235 167.641 -12.0245 167.738C-9.74153 167.835 -9.62545 167.867 -9.50937 168.673C-9.39329 169.415 -9.16113 169.544 -7.61337 169.737C-6.64602 169.834 -4.98218 169.931 -3.97614 169.931C-2.23492 169.931 -2.08014 169.995 -2.08014 170.705C-2.08014 171.349 -1.84798 171.478 -0.300224 171.672C0.705818 171.769 3.41439 171.865 5.69733 171.865H9.91496V172.833V173.8H26.5533H43.1917V172.833V171.865L48.0285 171.865H52.8652V170.898V169.963L56.4637 169.866C59.9849 169.769 60.0236 169.769 60.1396 168.931C60.2557 168.189 60.4879 168.06 62.0356 167.867C63.003 167.77 64.5507 167.674 65.4794 167.674C67.1045 167.674 67.1819 167.641 67.1819 166.706V165.739H69.5036H71.8252V164.771V163.804H74.3403H76.8554V162.837C76.8554 161.966 76.9715 161.869 78.0162 161.869C79.0223 161.869 79.177 161.773 79.177 160.934C79.177 160.064 79.2544 159.999 81.46 159.806C83.6268 159.612 83.7816 159.516 83.8977 158.709C83.9751 158 84.2459 157.807 85.2907 157.742C86.3741 157.645 86.5289 157.516 86.5289 156.678C86.5289 155.84 86.645 155.743 87.6897 155.743C88.7344 155.743 88.8505 155.646 88.8505 154.776C88.8505 153.808 88.8505 153.808 91.1334 153.808H93.4551L93.5712 152.744C93.6485 151.906 93.8807 151.68 94.732 151.616C95.5445 151.519 95.7767 151.325 95.8928 150.648C95.9702 149.971 96.241 149.745 97.0536 149.681C97.9823 149.584 98.0983 149.423 98.3305 147.843C98.6014 146.263 98.7174 146.102 99.6461 146.005C100.459 145.94 100.691 145.715 100.768 144.844C100.884 143.941 101.039 143.812 102.045 143.812C103.051 143.812 103.167 143.716 103.167 142.845C103.167 142.007 103.283 141.878 104.289 141.878C105.334 141.878 105.411 141.813 105.644 139.975C105.876 138.169 105.992 138.04 106.959 137.944C107.811 137.879 108.043 137.654 108.12 136.783C108.236 135.945 108.43 135.751 109.165 135.751C109.977 135.751 110.093 135.558 110.326 133.816C110.596 131.946 110.635 131.882 111.719 131.882H112.841V129.786V127.69H114.002C115.124 127.69 115.162 127.625 115.162 126.271C115.162 125.497 115.278 124.207 115.395 123.369C115.627 122.079 115.781 121.886 116.555 121.886C117.407 121.886 117.484 121.757 117.484 120.306C117.484 119.467 117.6 118.081 117.716 117.242C117.948 115.985 118.103 115.759 118.838 115.759C119.651 115.759 119.69 115.566 119.96 112.793C120.076 111.18 120.193 108.923 120.193 107.795C120.193 105.86 120.231 105.763 121.121 105.763C121.895 105.763 122.05 105.57 122.282 104.28C122.592 102.345 122.592 93.5425 122.282 91.3176C122.05 89.8343 121.934 89.6408 121.121 89.6408C120.27 89.6408 120.193 89.5119 120.193 87.7706C120.193 86.771 120.076 84.5139 119.922 82.7727C119.69 79.8062 119.651 79.6449 118.838 79.6449C117.794 79.6449 117.484 78.5486 117.484 74.5502V71.9061H116.323H115.162V69.8102V67.7143H114.002H112.841V65.7796V63.8449H111.68H110.519V61.9102C110.519 59.9755 110.519 59.9755 109.397 59.9755C108.314 59.9755 108.275 59.911 108.004 58.0731C107.772 56.2996 107.656 56.1384 106.727 56.0416C105.876 55.9772 105.644 55.7514 105.566 54.8808C105.45 53.978 105.295 53.849 104.289 53.849C103.283 53.849 103.167 53.7523 103.167 52.8817C103.167 52.011 103.051 51.9143 102.006 51.9143C100.846 51.9143 100.846 51.9143 100.846 50.0119V48.0772L99.6074 47.9804C98.5627 47.9159 98.2918 47.7225 98.2144 47.0131C98.0983 46.3359 97.8662 46.1425 97.0536 46.0457C96.2023 45.9812 95.9702 45.7555 95.8928 44.8849C95.7767 43.9821 95.6219 43.8531 94.6159 43.8531C93.6098 43.8531 93.4938 43.7563 93.4938 42.8857C93.4938 42.0151 93.3777 41.9184 92.333 41.9184C91.3269 41.9184 91.1721 41.8217 91.1721 40.9833C91.1721 40.0804 91.0948 40.0482 88.8505 39.8225C86.6063 39.5968 86.5289 39.5645 86.5289 38.6617C86.5289 37.8555 86.3741 37.7265 85.4067 37.7265C84.4394 37.7265 84.2459 37.5976 84.1299 36.8237C84.0525 36.1143 83.8203 35.9208 82.7756 35.8563L81.4987 35.7596V33.4057C81.4987 32.1159 81.6147 30.3747 81.7308 29.5363C81.963 28.2466 82.1178 28.0531 82.8916 28.0531C83.8203 28.0531 83.8203 27.9886 83.8203 24.9898V21.9265H82.6595C81.6147 21.9265 81.4987 21.8298 81.4987 20.9592C81.4987 20.0886 81.3826 19.9919 80.3378 19.9919C79.3318 19.9919 79.177 19.8951 79.177 19.0567C79.177 18.1539 79.0996 18.1216 76.8554 17.8959C74.7659 17.7025 74.5338 17.6057 74.5338 16.9286C74.5338 16.2514 74.3016 16.1547 72.0187 15.9612C69.7357 15.7355 69.5036 15.6388 69.5036 14.9939C69.5036 14.0265 68.2654 13.8653 59.7527 13.8653H52.8652V15.8V17.7347H51.7044H50.5436V19.8306V21.9265H45.7068L40.8701 21.9265V20.9914C40.8701 20.1531 40.7153 20.0241 39.6319 19.9274C38.5484 19.8629 38.3163 19.6694 38.2389 18.9278C38.1228 18.2506 37.8907 18.0572 37.1942 18.0572C36.459 18.0572 36.2655 17.8637 36.1494 16.9931C36.072 16.1225 35.8399 15.929 34.9886 15.8645C34.06 15.7678 33.9052 15.6065 33.9052 14.8004C33.9052 13.9298 33.7891 13.8653 32.5509 13.8653C31.3127 13.8653 31.1966 13.8008 31.1966 12.898V11.9629L27.6368 11.8661C24.0382 11.7694 24.0382 11.7694 23.9221 10.8988C23.8061 10.2216 23.5739 10.0282 22.7613 9.93143C21.794 9.8347 21.7166 9.73798 21.6005 7.96451C21.4844 6.15878 21.4457 6.12654 20.3623 6.12654C19.3563 6.12654 19.2015 5.99756 19.2015 5.19142C19.2015 4.28857 19.1241 4.25633 16.8799 4.03062C14.6356 3.8049 14.5582 3.77267 14.5582 2.86981C14.5582 1.93471 14.5582 1.93471 12.2366 1.93471H9.91496V0.967346V0H1.40231H-7.11034V0.967346ZM9.52802 2.90205C9.52802 3.8049 9.6441 3.8694 10.8823 3.8694C12.1205 3.8694 12.2366 3.93388 12.2366 4.83675C12.2366 5.70735 12.3527 5.80409 13.3974 5.80409C14.4421 5.80409 14.5582 5.90082 14.5582 6.77144C14.5582 7.64204 14.6743 7.73878 15.719 7.73878H16.8799V9.8347V11.9306H12.0431H7.20639V12.898V13.8331L2.48574 13.9298L-2.27361 14.0265L-2.38969 14.8972C-2.50578 15.8 -2.54446 15.8 -5.5239 15.8C-7.18774 15.8 -9.35459 15.8967 -10.3606 15.9935C-11.9084 16.187 -12.1406 16.3159 -12.1406 16.9608C-12.1406 17.5735 -12.334 17.7347 -13.0692 17.7347C-13.9205 17.7347 -14.0366 17.5735 -14.2687 15.8C-14.4235 14.7359 -14.4235 12.9947 -14.2687 11.9629C-14.0366 10.1894 -13.9205 10.0282 -12.9918 9.93143C-12.1406 9.86694 -11.9084 9.64124 -11.831 8.77063C-11.7149 7.93225 -11.5215 7.73878 -10.7863 7.73878C-10.0898 7.73878 -9.85762 7.54532 -9.74154 6.83594C-9.66415 6.12654 -9.43198 5.93307 -8.34855 5.86858C-7.26512 5.77185 -7.11034 5.64287 -7.11034 4.8045C-7.11034 3.96614 -6.99426 3.8694 -5.94953 3.8694C-4.90479 3.8694 -4.78871 3.77266 -4.78871 2.90205V1.93471H2.36965H9.52802V2.90205ZM24.7347 14.0588C25.8955 14.22 26.1664 14.4135 26.1664 14.9939C26.1664 15.6388 26.3986 15.7355 28.6428 15.9612L31.1192 16.1547L31.3514 17.767C31.5062 18.6376 31.5062 19.5082 31.3901 19.6694C31.2353 19.8629 26.0503 19.9919 18.002 19.9919H4.88476V20.9592V21.9265H0.0480194H-4.78871V22.8939V23.829L-9.50937 23.9257L-14.2687 24.0225L-14.3848 24.8931L-14.5009 25.7959H-17.9833H-21.4271V24.8286C-21.4271 23.958 -21.311 23.8612 -20.2663 23.8612C-19.2215 23.8612 -19.1055 23.7645 -19.1055 22.8939C-19.1055 22.0233 -18.9894 21.9265 -17.9446 21.9265C-16.8999 21.9265 -16.7838 21.8298 -16.7838 20.9592C-16.7838 20.0241 -16.7451 20.0241 -14.3461 19.9274C-12.0632 19.8306 -11.9471 19.7984 -11.831 18.96L-11.7149 18.1216L-6.87818 17.8959C-2.23492 17.6702 -2.08014 17.638 -2.08014 16.9286C-2.08014 16.187 -2.04145 16.187 5.07822 15.9612C12.2366 15.7355 12.2366 15.7355 12.2366 14.9616C12.2366 14.3812 12.4688 14.1878 13.5135 14.091C15.603 13.8653 23.187 13.8653 24.7347 14.0588ZM65.1698 15.9935C66.9498 16.187 67.1819 16.3159 67.1819 16.9608C67.1819 17.6057 67.4141 17.7025 69.697 17.8959C72.1348 18.1216 72.2121 18.1539 72.2121 19.0567C72.2121 19.9919 72.2508 19.9919 74.5338 19.9919H76.8554V21.9265V23.8612H78.0162H79.177V26.9245V29.9878H78.0162C76.9715 29.9878 76.8554 30.0845 76.8554 30.9551C76.8554 32.0192 76.4685 32.1159 73.6825 31.729C72.4443 31.5355 72.2121 31.3743 72.2121 30.7616C72.2121 30.0845 72.0187 29.9878 70.8578 29.9878C69.6196 29.9878 69.5036 29.891 69.5036 29.0527C69.5036 28.1498 69.4262 28.1176 67.1819 27.8918C65.0925 27.6984 64.8603 27.6016 64.8603 26.9245C64.8603 26.3118 64.5894 26.1829 63.0804 25.9894C62.0743 25.8927 60.4105 25.7959 59.4044 25.7959C57.5471 25.7959 57.5085 25.7637 57.5085 24.8286V23.8612H55.1868H52.8652V21.7653V19.6694H54.026C55.1868 19.6694 55.1868 19.6372 55.1868 17.9282C55.1868 16.187 55.1868 16.1547 56.4637 16.0257C58.5919 15.8 63.0417 15.8 65.1698 15.9935ZM10.4567 24.0547C12.0044 24.2482 12.2366 24.3772 12.2366 25.022C12.2366 25.6347 12.4301 25.7959 13.2039 25.7959C14.0165 25.7959 14.1713 25.6347 14.1713 24.8286V23.8612H19.2015H24.2317V25.022C24.2317 26.0861 24.3091 26.1506 25.3151 26.0539C26.1277 25.9894 26.3986 25.7637 26.476 25.0865C26.592 24.2804 26.7468 24.2159 28.9911 24.0225C30.3066 23.8935 32.4348 23.8612 33.7117 23.9257C35.9173 24.0225 36.0333 24.0547 36.1494 24.8931L36.2655 25.7959H40.4445C42.7661 25.7959 45.436 25.8927 46.442 25.9894C47.9898 26.1829 48.2219 26.3119 48.2219 26.9568C48.2219 27.6017 48.4154 27.7306 49.3827 27.7306C50.4275 27.7306 50.5436 27.8274 50.5436 28.698C50.5436 29.5686 50.6596 29.6653 51.7044 29.6653C52.6717 29.6653 52.8652 29.5363 52.8652 28.8592C52.8652 28.0853 52.9813 28.0531 55.1481 28.0531C57.3924 28.0531 57.4698 28.0853 57.5858 28.9237C57.7019 29.7943 57.818 29.8265 60.1396 29.9233L62.5387 30.02V31.9225C62.5387 33.8572 62.5387 33.8572 63.6995 33.8572C64.7442 33.8572 64.8603 33.7604 64.8603 32.8898C64.8603 32.0192 64.9764 31.9225 66.0211 31.9225C67.0658 31.9225 67.1819 32.0192 67.1819 32.8898V33.8572H69.697H72.2121V34.8245C72.2121 35.6951 72.3282 35.7919 73.373 35.7919C74.4564 35.7919 74.5338 35.8886 74.5338 36.9527V38.1135L76.8167 37.8878L79.1383 37.662L79.2544 38.7584C79.3318 39.6612 79.5253 39.8547 80.4539 39.9192C81.3439 40.0159 81.4987 40.1772 81.4987 40.9833V41.9184H84.0138H86.5289V42.8857C86.5289 43.7563 86.645 43.8531 87.6897 43.8531H88.8505V45.949V48.0449H91.1721H93.4938V49.0123C93.4938 49.8829 93.6098 49.9796 94.6546 49.9796C95.8154 49.9796 95.8154 49.9796 95.8154 51.8821V53.7523L98.0983 53.978C100.343 54.2037 100.381 54.2037 100.613 55.3968C100.73 56.0416 100.846 57.8151 100.846 59.2984V62.007L103.167 61.7812L105.489 61.5555V62.7163C105.489 63.7482 105.566 63.8449 106.611 63.8449C107.656 63.8449 107.733 63.9417 107.927 65.3604C108.043 66.231 108.043 67.5853 107.927 68.4237C107.733 69.8747 107.617 69.9715 106.611 69.9715C105.605 69.9715 105.489 70.1004 105.489 70.971V71.9706L107.927 71.8417L110.326 71.7449L110.442 72.7768C110.558 73.7119 110.713 73.8408 111.757 73.8408H112.918L112.802 76.8074L112.647 79.8061L113.924 79.9029L115.162 79.9996V83.8045V87.6094L113.15 87.8351C112.028 87.9319 110.442 88.0286 109.668 88.0286C108.314 88.0286 108.197 88.0931 108.197 88.9959V89.9633H112.841H117.484V93.9939V98.0245H116.323C115.278 98.0245 115.162 98.1213 115.162 98.9919V99.9592H112.841H110.519V100.927V101.894H114.002H117.484V102.861C117.484 103.667 117.329 103.829 116.555 103.829C115.781 103.829 115.627 104.022 115.395 105.312C115.278 106.15 115.162 107.44 115.162 108.182V109.568L112.841 109.794C110.596 110.02 110.519 110.052 110.519 110.955C110.519 111.89 110.519 111.89 112.841 111.89H115.162V113.825V115.759H114.002C112.957 115.759 112.841 115.856 112.841 116.727C112.841 117.662 112.802 117.662 110.442 117.758C108.12 117.855 108.004 117.887 107.888 118.726C107.772 119.5 107.927 119.596 109.049 119.693L110.326 119.79L110.442 121.789L110.558 123.82H106.843H103.167V124.788V125.755H105.489H107.811V127.851V129.947H106.65H105.489V131.882V133.816H102.006H98.524V132.849C98.524 131.978 98.4079 131.882 97.3632 131.882C96.3184 131.882 96.2023 131.978 96.2023 132.849C96.2023 133.655 96.3571 133.816 97.1697 133.816C97.9823 133.816 98.137 133.978 98.137 134.784C98.137 135.687 98.2531 135.751 99.4913 135.751H100.846V137.847V139.943H99.4913C98.2918 139.943 98.137 140.04 98.137 140.749C98.137 141.394 97.9436 141.555 97.1697 141.555C96.3958 141.555 96.2023 141.394 96.2023 140.749C96.2023 139.975 96.125 139.943 93.6872 139.943H91.1721V140.91V141.878H93.4938H95.8154V142.845C95.8154 143.651 95.6606 143.812 94.8867 143.812C94.0742 143.812 93.9194 144.006 93.8033 144.844C93.6872 145.779 93.5325 145.908 92.449 146.005C91.4043 146.102 91.1721 146.231 91.1721 146.908C91.1721 147.649 91.0561 147.682 88.8505 147.682H86.5289V146.682C86.5289 145.779 86.4515 145.715 85.2907 145.811C84.2459 145.876 83.9751 146.069 83.8977 146.779C83.7816 147.553 83.9364 147.649 85.0585 147.746L86.3354 147.843L86.4515 149.842L86.5676 151.874H85.1746C83.9364 151.874 83.8203 151.938 83.8203 152.841C83.8203 153.647 83.6655 153.808 82.853 153.808C82.0404 153.808 81.8856 153.647 81.8856 152.841C81.8856 151.938 81.7695 151.874 80.5313 151.874H79.1383L79.2544 153.873L79.3705 155.904L78.1323 156.001C77.0876 156.098 76.8554 156.227 76.8554 156.904C76.8554 157.645 76.7393 157.678 74.3403 157.678H71.8252V156.71C71.8252 155.84 71.7091 155.743 70.6644 155.743C69.6196 155.743 69.5036 155.646 69.5036 154.776C69.5036 153.905 69.3875 153.808 68.3427 153.808H67.1819V155.743V157.678H68.3427H69.5036V159.774V161.869H67.1819H64.8603V162.837C64.8603 163.804 64.8603 163.804 62.5773 163.804H60.2557L60.1396 162.74C60.0622 161.902 59.8301 161.676 58.9788 161.611C58.0502 161.515 57.9341 161.354 57.6632 159.741C57.4311 158.097 57.3537 158 56.3089 158C55.1868 158 55.1868 158.032 55.1868 159.935V161.869H56.3476H57.5085V163.804V165.739H55.1868H52.8652V166.706C52.8652 167.577 52.7491 167.674 51.7044 167.674C50.6596 167.674 50.5436 167.577 50.5436 166.706C50.5436 165.803 50.4275 165.739 49.1893 165.739C47.9511 165.739 47.835 165.803 47.835 166.706V167.674L45.5134 167.674H43.1917V165.739V163.804H42.0309H40.8701V165.9V167.996H39.7093C38.7419 167.996 38.5484 168.125 38.5484 168.802C38.5484 169.576 38.4711 169.608 36.0333 169.608H33.5182V167.835C33.5182 166.158 33.4795 166.061 32.5509 166.061C31.6996 166.061 31.5835 166.222 31.3514 167.996L31.0805 169.931H28.8363H26.5533V167.835C26.5533 165.739 26.5533 165.739 25.4312 165.739C24.3865 165.739 24.3091 165.803 24.0769 167.641L23.8061 169.511L22.0262 169.737C21.0588 169.834 19.5111 169.931 18.5824 169.931H16.8799V167.835V165.739H15.7577C14.7517 165.739 14.5969 165.868 14.4808 166.771C14.3648 167.674 14.21 167.835 13.2039 167.931C12.5848 167.996 10.9597 167.964 9.64411 167.835C7.28378 167.641 7.20639 167.609 7.20639 166.674C7.20639 165.836 7.05161 165.739 6.04558 165.739C5.00084 165.739 4.88476 165.836 4.88476 166.706V167.674H2.36965C-0.0293655 167.674 -0.145447 167.641 -0.145447 166.9C-0.145447 166.287 -0.377609 166.094 -1.19018 165.997C-2.08014 165.932 -2.31231 165.739 -2.38969 164.836C-2.50578 163.933 -2.66055 163.804 -3.66659 163.804C-4.67263 163.804 -4.78871 163.901 -4.78871 164.771V165.739H-7.11034H-9.43198V164.03C-9.43198 163.127 -9.54806 161.805 -9.66414 161.128C-9.89631 160.128 -10.0898 159.935 -10.825 159.935C-11.5988 159.935 -11.7536 160.096 -11.7536 160.902V161.869H-14.2687H-16.7838V159.935V158H-17.9446C-18.9894 158 -19.1055 158.097 -19.1055 159V160.031L-22.4331 159.838C-24.2904 159.741 -25.8382 159.58 -25.9156 159.548C-25.993 159.483 -26.0704 158.645 -26.1477 157.678C-26.2638 155.969 -26.2251 155.904 -25.1804 155.807C-24.2904 155.711 -24.1357 155.549 -24.1357 154.743C-24.1357 153.905 -24.2517 153.808 -25.2965 153.808C-26.3412 153.808 -26.4573 153.905 -26.4573 154.776V155.743H-29.9397H-33.4222V154.776C-33.4222 153.905 -33.5383 153.808 -34.583 153.808C-35.6277 153.808 -35.7438 153.711 -35.7438 152.873C-35.7438 152.067 -35.5891 151.906 -34.6604 151.809C-33.8478 151.745 -33.577 151.519 -33.4996 150.809C-33.3835 150.036 -33.4996 149.939 -34.5443 149.939C-35.5504 149.939 -35.7438 150.068 -35.7438 150.745C-35.7438 151.519 -35.8599 151.551 -38.0268 151.551C-40.271 151.551 -40.3484 151.519 -40.4645 150.648C-40.5419 149.939 -40.774 149.745 -41.8188 149.681L-43.0957 149.584V147.649V145.747H-45.4173H-47.7389V144.78C-47.7389 143.877 -47.855 143.812 -49.0932 143.812H-50.4475V140.717V137.621L-52.7691 137.847L-55.0908 138.073V136.912C-55.0908 135.848 -55.1682 135.751 -56.2516 135.751C-57.2963 135.751 -57.4124 135.654 -57.4124 134.784C-57.4124 133.913 -57.5285 133.816 -58.5732 133.816C-59.618 133.816 -59.734 133.72 -59.734 132.849C-59.734 131.978 -59.618 131.882 -58.5732 131.882C-57.5285 131.882 -57.4124 131.785 -57.4124 130.914C-57.4124 130.044 -57.2963 129.947 -56.2516 129.947C-55.1682 129.947 -55.0908 129.85 -55.0908 128.786V127.593L-56.8707 127.819C-57.8767 127.916 -58.9989 128.012 -59.3858 128.012C-59.9275 128.012 -60.121 128.238 -60.121 128.818C-60.121 129.463 -60.3144 129.625 -61.0496 129.625C-61.9009 129.625 -62.017 129.463 -62.2491 127.69C-62.4813 125.916 -62.5974 125.755 -63.4487 125.755C-64.2225 125.755 -64.3773 125.594 -64.3773 124.788C-64.3773 123.82 -64.3386 123.82 -62.2491 123.82C-60.1597 123.82 -60.121 123.82 -60.121 122.885C-60.121 122.047 -59.9662 121.918 -58.8441 121.821C-57.7993 121.757 -57.5672 121.563 -57.4898 120.822C-57.3737 119.951 -57.3737 119.951 -59.6953 119.951H-62.0557V120.918C-62.0557 121.821 -62.1718 121.886 -63.41 121.886C-64.6482 121.886 -64.7642 121.821 -64.7642 120.918C-64.7642 120.048 -64.8803 119.951 -65.9251 119.951C-67.0085 119.951 -67.0859 119.854 -67.0859 118.822C-67.0859 117.791 -67.0085 117.694 -65.9251 117.694C-64.8803 117.694 -64.7642 117.597 -64.7642 116.727C-64.7642 115.856 -64.8803 115.759 -65.9251 115.759H-67.0859V112.696L-67.0859 109.633H-64.7642C-62.5587 109.633 -62.4426 109.6 -62.4426 108.827C-62.4426 108.085 -62.5974 108.02 -64.1451 108.02C-65.0738 108.02 -66.6215 107.924 -67.6276 107.827L-69.4075 107.601V103.635V99.6368H-67.0859C-64.8803 99.6368 -64.7642 99.6045 -64.7642 98.8306C-64.7642 98.1535 -64.9577 98.0245 -65.9251 98.0245C-67.0085 98.0245 -67.0859 97.9278 -67.0859 96.896C-67.0859 95.8641 -67.1633 95.7674 -68.2467 95.7674H-69.4075V93.8327V91.898H-68.2467H-67.0859V89.8021V87.7062H-65.9251C-64.8803 87.7062 -64.7642 87.6094 -64.7642 86.7388C-64.7642 85.8682 -64.8803 85.7715 -65.9251 85.7715H-67.0859V83.8368C-67.0859 81.9021 -67.0859 81.9021 -65.9251 81.9021C-64.8029 81.9021 -64.8029 81.8698 -64.6869 79.8706L-64.5708 77.8715L-61.1657 77.7747C-57.8767 77.678 -57.7993 77.678 -57.7993 76.9041C-57.7993 76.1947 -57.9928 76.098 -60.121 75.9045L-62.4426 75.6788V74.3245C-62.4426 73.5829 -62.3265 72.2931 -62.2104 71.487C-61.9783 70.1972 -61.8235 70.0037 -60.9335 69.907C-59.9662 69.8102 -59.9275 69.7135 -59.8114 67.7788L-59.6953 65.7796H-57.4124C-55.0908 65.7796 -55.0908 65.7796 -55.0908 64.8123C-55.0908 63.9417 -55.2069 63.8449 -56.2516 63.8449C-57.2963 63.8449 -57.4124 63.7482 -57.4124 62.8776C-57.4124 62.007 -57.2963 61.9102 -56.2516 61.9102H-55.0908V59.8143V57.7184H-51.6083C-48.1646 57.7184 -48.1259 57.7184 -48.1259 56.9445C-48.1259 56.3319 -48.358 56.1384 -49.1706 56.0416L-50.254 55.9449L-50.1766 53.1074C-50.1766 51.5274 -50.0219 50.1731 -49.9058 50.0441C-49.751 49.9474 -48.1646 49.8506 -46.3846 49.8829H-43.0957V48.8188C-43.0957 47.8192 -43.2117 47.7225 -44.2565 47.7225C-45.4173 47.7225 -45.4173 47.6902 -45.4173 45.949C-45.4173 44.2078 -45.4173 44.1755 -44.2565 44.1755C-43.1731 44.1755 -43.0957 44.0788 -43.0957 43.047C-43.0957 42.0151 -43.0183 41.9184 -41.9348 41.9184C-40.8901 41.9184 -40.774 42.0151 -40.774 42.8857C-40.774 43.7563 -40.6579 43.8531 -39.6132 43.8531H-38.4524V40.9833V38.0812L-37.1755 37.9845C-36.0921 37.8878 -35.9373 37.7588 -35.8212 36.8237C-35.7051 35.9208 -35.5504 35.7919 -34.5443 35.7919C-33.5383 35.7919 -33.4222 35.8886 -33.4222 36.7592C-33.4222 37.6298 -33.3061 37.7265 -32.2614 37.7265H-31.1006V35.7919V33.8572H-29.9397C-28.895 33.8572 -28.7789 33.7604 -28.7789 32.9221C-28.7789 32.0837 -28.6241 31.9547 -27.502 31.858C-26.4573 31.7935 -26.2251 31.6 -26.1477 30.8584L-26.0317 29.9878H-22.5492H-19.1055V29.0527C-19.1055 28.1176 -19.0281 28.0853 -16.6677 27.8918C-15.3521 27.7629 -13.224 27.7306 -11.9471 27.7951C-9.70284 27.8919 -9.62545 27.8596 -9.50937 27.0535C-9.39329 26.3118 -9.16113 26.1829 -7.61337 25.9894C-6.64602 25.8927 -4.47916 25.7959 -2.81532 25.7959H0.241493V27.9241V30.02L1.32492 29.9233C2.33096 29.8265 2.36966 29.7298 2.48574 27.7951C2.60182 25.8282 2.60182 25.7959 3.72394 25.7959C4.76868 25.7959 4.88476 25.6992 4.88476 24.8286C4.88476 23.8935 4.92345 23.8612 6.78076 23.8612C7.7868 23.8612 9.45064 23.958 10.4567 24.0547ZM-45.4173 34.8245C-45.4173 35.6951 -45.3012 35.7919 -44.2565 35.7919H-43.0957V37.8878V39.9837H-44.2178C-45.3012 39.9837 -45.3399 40.0482 -45.6108 41.8861C-45.8429 43.6596 -45.959 43.8208 -46.8877 43.9176C-47.7002 43.9821 -47.9711 44.2078 -48.0485 44.8849C-48.1646 45.5621 -48.3967 45.7555 -49.2093 45.8523C-50.0606 45.9168 -50.2927 46.1425 -50.3701 46.9808C-50.4862 47.9159 -50.641 48.0449 -51.647 48.0449C-52.7691 48.0449 -52.7691 48.0449 -52.7691 49.9796V51.9143H-53.93C-54.9747 51.9143 -55.0908 52.011 -55.0908 52.8817C-55.0908 53.7523 -55.2069 53.849 -56.2516 53.849C-57.2963 53.849 -57.4124 53.7523 -57.4124 52.8817C-57.4124 51.9788 -57.5285 51.9143 -58.7667 51.9143C-60.0049 51.9143 -60.121 51.8498 -60.121 50.9792C-60.121 50.1731 -60.2758 50.0118 -61.1657 49.9151C-62.0557 49.8506 -62.2878 49.6572 -62.3652 48.7543C-62.4813 47.9159 -62.6361 47.7225 -63.4487 47.7225C-64.2225 47.7225 -64.3773 47.5612 -64.3773 46.7551C-64.3773 45.949 -64.2225 45.7878 -63.41 45.7878C-62.4813 45.7878 -62.4426 45.691 -62.4426 43.8531C-62.4426 41.9184 -62.4426 41.9184 -61.3205 41.9184C-60.2371 41.9184 -60.1984 41.8539 -59.9275 39.9837C-59.6566 38.1135 -59.618 38.049 -58.5345 38.049C-57.5672 38.049 -57.4124 37.92 -57.4124 37.1139C-57.4124 36.211 -57.335 36.1788 -55.0908 35.9531C-52.8465 35.7274 -52.7691 35.6951 -52.7691 34.7923V33.8572H-49.0932H-45.4173V34.8245Z" fill="#EA580C" fill-opacity="0.3"/>
<path d="M48.2219 30.9551C48.2219 31.8258 48.338 31.9225 49.3827 31.9225C50.4275 31.9225 50.5435 31.8258 50.5435 30.9551C50.5435 30.0845 50.4275 29.9878 49.3827 29.9878C48.338 29.9878 48.2219 30.0845 48.2219 30.9551Z" fill="#EA580C" fill-opacity="0.3"/>
<path d="M16.8799 32.8898V33.8572H10.8823H4.88476V34.8245V35.7919H2.56313H0.241493L0.241493 36.7592L0.241493 37.7266H8.56068H16.8799V36.9204C16.8799 36.1466 16.9959 36.1143 19.2015 36.1143C21.407 36.1143 21.5231 36.1466 21.5231 36.9204V37.7266H26.2825C28.875 37.7266 32.7057 37.8233 34.7951 37.9523C38.355 38.1457 38.5484 38.178 38.5484 38.8551C38.5484 39.4678 38.8193 39.5968 40.3284 39.7902C41.3344 39.887 42.9982 39.9837 44.0043 39.9837C45.8616 39.9837 45.9003 40.0159 45.9003 40.951V41.9184H49.3827H52.8652V42.8857V43.8531H55.1868C57.4698 43.8531 57.5085 43.8531 57.5085 44.7882C57.5085 45.6588 57.5858 45.7233 59.7914 45.9168C61.9582 46.1102 62.113 46.207 62.2291 47.0131C62.3065 47.7225 62.5773 47.9159 63.6221 47.9804C64.7055 48.0772 64.8603 48.2062 64.8603 49.0445C64.8603 49.8506 65.0151 49.9796 65.9824 49.9796C66.9498 49.9796 67.1432 50.1086 67.2593 50.8502C67.3754 51.7208 67.4915 51.7531 69.6196 51.8498C71.7865 51.9466 71.8252 51.9788 71.8252 52.8817C71.8252 53.72 71.98 53.849 72.9473 53.849C73.9534 53.849 74.1081 53.978 74.2242 54.8809C74.3403 55.816 74.4951 55.9449 75.6172 56.0417C76.7006 56.1384 76.8554 56.2674 76.8554 57.1058C76.8554 57.9441 76.9715 58.0408 78.0162 58.0408H79.177V59.9755V61.9102H80.3378C81.3826 61.9102 81.4987 62.007 81.4987 62.8776C81.4987 63.716 81.6147 63.8449 82.6208 63.8449C83.7042 63.8449 83.7429 63.9094 84.0138 65.7796C84.2846 67.6498 84.3233 67.7143 85.4067 67.7143C86.5289 67.7143 86.5289 67.7466 86.5289 69.6168C86.5289 71.487 86.5676 71.5515 87.6123 71.6482C88.6183 71.7449 88.657 71.8417 88.7731 73.7441C88.8892 75.7433 88.8892 75.7756 90.0113 75.7756C91.1334 75.7756 91.1721 75.8078 91.1721 77.4523C91.1721 80.4833 91.5591 81.5796 92.5264 81.5796C93.3777 81.5796 93.4164 81.6441 93.6872 87.7062L93.9581 93.8327H94.8867H95.8154V98.8307V103.829H94.8867H93.9581L93.6872 109.762L93.4164 115.727L92.3716 115.824C91.3656 115.92 91.3656 115.953 91.2495 118.887L91.1334 121.886H90.0113C88.8505 121.886 88.8505 121.886 88.8505 123.82V125.755H87.6897L86.5289 125.755V127.851V129.947H85.4067C84.3233 129.947 84.2846 130.011 84.0138 131.882C83.7429 133.752 83.7042 133.816 82.6208 133.816C81.6534 133.816 81.4987 133.945 81.4987 134.751C81.4987 135.558 81.3439 135.719 80.4539 135.816C79.564 135.88 79.3318 136.074 79.2544 136.944C79.1383 137.879 78.9836 138.008 77.9775 138.008C76.8554 138.008 76.8554 138.04 76.8554 139.749C76.8554 141.491 76.8554 141.523 75.6172 141.62C74.4951 141.716 74.3403 141.845 74.2242 142.748C74.1081 143.812 74.0694 143.812 71.98 143.812C69.9292 143.812 69.8905 143.812 69.8905 144.747C69.8905 145.586 69.7357 145.715 68.6523 145.811C67.5689 145.876 67.3367 146.069 67.2593 146.779C67.1432 147.553 66.9498 147.682 65.9824 147.682C64.9377 147.682 64.8603 147.778 64.8603 148.81V149.939H62.3452H59.8301V150.906V151.874H57.5085H55.1868V152.841V153.808H57.5085C59.7914 153.808 59.8301 153.808 59.8301 152.873C59.8301 151.97 59.9075 151.938 62.3452 151.712C64.6668 151.519 64.8603 151.454 64.8603 150.713C64.8603 150.068 65.0538 149.939 66.0211 149.939C67.0271 149.939 67.1819 149.842 67.1819 149.004C67.1819 148.101 67.2593 148.069 69.5036 147.843C71.7478 147.617 71.8252 147.585 71.8252 146.682C71.8252 145.844 71.9413 145.747 73.1795 145.747C74.4177 145.747 74.5338 145.683 74.5338 144.78C74.5338 143.909 74.6498 143.812 75.6946 143.812C76.7393 143.812 76.8554 143.716 76.8554 142.845C76.8554 141.974 76.9715 141.878 78.0162 141.878C79.0609 141.878 79.177 141.781 79.177 140.91C79.177 140.04 79.2931 139.943 80.2991 139.943C81.3052 139.943 81.46 139.814 81.576 138.879C81.6534 138.04 81.8856 137.815 82.7369 137.75C83.6655 137.654 83.7816 137.492 84.0138 135.719C84.2846 133.881 84.3233 133.816 85.4067 133.816C86.4128 133.816 86.5289 133.687 86.5289 132.849C86.5289 131.978 86.645 131.882 87.6897 131.882H88.8505V129.786V127.69H90.0113H91.1721V125.755V123.82H92.3329C93.4551 123.82 93.4938 123.788 93.4938 122.24C93.4938 121.402 93.6098 120.016 93.7259 119.177C93.9581 117.92 94.1129 117.694 94.8481 117.694C95.6993 117.694 95.738 117.565 96.0089 113.663C96.2797 109.762 96.3184 109.633 97.1697 109.633C97.9436 109.633 98.021 109.439 98.2531 106.956C98.6014 103.538 98.6014 92.9621 98.2531 88.8992C98.021 85.9327 97.9823 85.7715 97.1697 85.7715C96.3184 85.7715 96.2797 85.6102 96.0089 81.9021C95.738 78.1294 95.6993 78.0327 94.8481 78.0327C94.0355 78.0327 93.9194 77.8392 93.6872 75.9368C93.4164 74.0343 93.3003 73.8409 92.5264 73.8409C91.7912 73.8409 91.6365 73.6151 91.4043 72.3576C91.2882 71.5192 91.1721 70.2294 91.1721 69.4555C91.1721 68.1013 91.1334 68.0368 90.0113 68.0368C88.8892 68.0368 88.8892 68.0045 88.7731 66.0053C88.657 64.1029 88.6183 64.0062 87.6123 63.9094C86.6836 63.8127 86.5289 63.6515 86.5289 62.8453C86.5289 62.0392 86.3741 61.9102 85.4067 61.9102C84.3233 61.9102 84.2846 61.8457 84.0138 60.0078C83.7816 58.2343 83.6655 58.0731 82.7369 57.9764C81.8856 57.9119 81.6534 57.6862 81.576 56.8155C81.46 55.9127 81.3052 55.7837 80.2991 55.7837C79.2931 55.7837 79.177 55.687 79.177 54.8164C79.177 53.9457 79.0609 53.849 78.0162 53.849C76.9715 53.849 76.8554 53.7523 76.8554 52.8817C76.8554 52.011 76.7393 51.9143 75.6946 51.9143C74.6498 51.9143 74.5338 51.8176 74.5338 50.947C74.5338 50.0441 74.4177 49.9796 73.1795 49.9796C71.9413 49.9796 71.8252 49.8829 71.8252 49.0445C71.8252 48.1739 71.7091 48.1094 69.7357 47.9159C67.801 47.6902 67.6076 47.5935 67.4915 46.8196C67.4141 46.1102 67.1432 45.9168 66.1372 45.8523C65.0151 45.7555 64.8603 45.6266 64.8603 44.7882C64.8603 43.9176 64.7442 43.8531 63.506 43.8531C62.2678 43.8531 62.1517 43.7886 62.1517 42.8857V41.9184H59.8301H57.5085V40.951V39.9837H55.1868C52.8652 39.9837 52.8652 39.9837 52.8652 39.0486C52.8652 38.1135 52.8265 38.0813 50.3501 37.8878C48.0671 37.6621 47.835 37.5653 47.835 36.9204C47.835 36.1143 46.5194 35.7919 42.9209 35.7919C40.9088 35.7919 40.8701 35.7919 40.8701 34.8245V33.8572H33.7117H26.5533V32.8898V31.9225H21.7166H16.8799V32.8898Z" fill="#EA580C" fill-opacity="0.3"/>
<path d="M60.217 35.7919C60.217 37.5976 60.2557 37.7266 61.1457 37.7266C61.9582 37.7266 62.0743 37.5331 62.3065 36.1143C62.616 34.2119 62.4226 33.8572 61.1457 33.8572C60.2557 33.8572 60.217 33.9539 60.217 35.7919Z" fill="#EA580C" fill-opacity="0.3"/>
<path d="M72.2121 38.8551C72.2121 39.5 72.4056 39.6613 73.1795 39.6613C73.9534 39.6613 74.1468 39.5 74.1468 38.8551C74.1468 38.2102 73.9534 38.049 73.1795 38.049C72.4056 38.049 72.2121 38.2102 72.2121 38.8551Z" fill="#EA580C" fill-opacity="0.3"/>
<path d="M79.177 42.8857C79.177 43.7564 79.0609 43.8531 78.0162 43.8531C76.9715 43.8531 76.8554 43.9498 76.8554 44.8204C76.8554 45.691 76.9715 45.7878 78.0162 45.7878C79.0609 45.7878 79.177 45.691 79.177 44.8204C79.177 43.9498 79.2931 43.8531 80.3378 43.8531C81.3826 43.8531 81.4987 43.7564 81.4987 42.8857C81.4987 42.0151 81.3826 41.9184 80.3378 41.9184C79.2931 41.9184 79.177 42.0151 79.177 42.8857Z" fill="#EA580C" fill-opacity="0.3"/>
<path d="M8.71545 44.0788C7.86419 44.1755 7.63202 44.4335 7.43855 45.4976C7.28378 46.207 7.28378 47.529 7.43855 48.3996C7.67072 49.7861 7.7868 49.9796 8.59937 49.9796C9.48933 49.9796 9.52802 50.0441 9.52802 52.8816V55.7837H10.8823H12.2366L12.1592 49.8829L12.0431 44.0143L10.8823 43.9821C10.2632 43.9498 9.25717 43.9821 8.71545 44.0788Z" fill="#EA580C" fill-opacity="0.3"/>
<path d="M86.5289 49.0123C86.5289 49.8829 86.4128 49.9796 85.3681 49.9796C84.3233 49.9796 84.2072 50.0763 84.2072 50.947C84.2072 51.8176 84.3233 51.9143 85.3681 51.9143C86.4128 51.9143 86.5289 51.8176 86.5289 50.947C86.5289 50.0763 86.645 49.9796 87.6897 49.9796C88.7344 49.9796 88.8505 49.8829 88.8505 49.0123C88.8505 48.1417 88.7344 48.0449 87.6897 48.0449C86.645 48.0449 86.5289 48.1417 86.5289 49.0123Z" fill="#EA580C" fill-opacity="0.3"/>
<path d="M93.4938 54.8163C93.4938 55.687 93.3777 55.7837 92.333 55.7837C91.2882 55.7837 91.1721 55.8804 91.1721 56.751C91.1721 57.6216 91.2882 57.7184 92.333 57.7184C93.3777 57.7184 93.4938 57.6216 93.4938 56.751C93.4938 55.8804 93.6098 55.7837 94.6546 55.7837C95.6993 55.7837 95.8154 55.687 95.8154 54.8163C95.8154 53.9457 95.6993 53.849 94.6546 53.849C93.6098 53.849 93.4938 53.9457 93.4938 54.8163Z" fill="#EA580C" fill-opacity="0.3"/>
<path d="M98.524 62.8776C98.524 63.7482 98.64 63.8449 99.6848 63.8449C100.73 63.8449 100.846 63.7482 100.846 62.8776C100.846 62.007 100.73 61.9102 99.6848 61.9102C98.64 61.9102 98.524 62.007 98.524 62.8776Z" fill="#EA580C" fill-opacity="0.3"/>
<path d="M96.2023 64.8123C96.2023 65.6184 96.3571 65.7796 97.1697 65.7796C97.9823 65.7796 98.137 65.6184 98.137 64.8123C98.137 64.0061 97.9823 63.8449 97.1697 63.8449C96.3571 63.8449 96.2023 64.0061 96.2023 64.8123Z" fill="#EA580C" fill-opacity="0.3"/>
<path d="M12.1592 67.94C12.0431 69.6812 11.9657 69.8102 11.0371 69.9069C10.1471 70.0037 9.99236 70.1972 9.7602 71.487C9.64411 72.2931 9.52803 74.0988 9.52803 75.4853V78.0327H10.8823C12.0431 78.0327 12.2366 78.1294 12.2366 78.8065C12.2366 79.4192 12.4688 79.6127 13.32 79.7094L14.3648 79.8061L14.4808 83.74L14.5969 87.7061H15.7191H16.8799L16.8799 93.6392V99.5723L19.008 99.798C20.1689 99.8947 21.291 99.8947 21.5231 99.798C21.7553 99.669 22.9935 99.669 24.2704 99.798C26.476 100.024 26.5533 100.056 26.5533 100.959C26.5533 101.894 26.5533 101.894 28.875 101.894H31.1966V102.861C31.1966 103.764 31.3127 103.829 32.5509 103.829C33.7891 103.829 33.9052 103.893 33.9052 104.796V105.763H36.2268H38.5485V106.731C38.5485 107.666 38.6258 107.698 40.251 107.698C41.1796 107.698 42.7274 107.795 43.6947 107.891C45.2425 108.085 45.4747 108.214 45.5907 108.956C45.6681 109.633 45.939 109.826 46.9837 109.891C48.0671 109.987 48.2219 110.116 48.2219 110.955C48.2219 111.89 48.2219 111.89 50.5436 111.89H52.8652V112.857C52.8652 113.825 52.8652 113.825 55.1481 113.825H57.4698L57.5858 114.856C57.6632 115.727 57.8954 115.953 58.7467 116.017C59.714 116.114 59.7914 116.243 59.9075 117.952C60.0236 119.758 60.0236 119.79 61.3005 119.887C62.3839 119.983 62.5387 120.112 62.5387 120.951V121.886H67.1819H71.8252V122.853C71.8252 123.756 71.9413 123.82 73.1795 123.82C74.4177 123.82 74.5338 123.756 74.5338 122.853C74.5338 121.982 74.6499 121.886 75.6946 121.886H76.8554V119.951V118.016H75.6946H74.5338V115.469C74.5338 114.082 74.4177 112.277 74.3016 111.438C74.0695 110.149 73.9147 109.955 73.1408 109.955C72.3669 109.955 72.2121 109.794 72.2121 108.988C72.2121 108.085 72.0961 108.02 70.8579 108.02C69.6197 108.02 69.5036 108.085 69.5036 108.988C69.5036 109.858 69.3875 109.955 68.3428 109.955C67.298 109.955 67.1819 110.052 67.1819 110.922V111.89H63.6995H60.217V110.955C60.217 110.084 60.1396 110.02 57.9341 109.826C55.7672 109.633 55.6125 109.536 55.4964 108.73C55.3803 107.891 55.2642 107.859 52.9813 107.762C50.5822 107.666 50.5436 107.666 50.5436 106.731V105.763H48.0285H45.5134V104.796V103.829H42.0309H38.5485V102.861V101.894H36.2268C33.9439 101.894 33.9052 101.894 33.9052 100.959C33.9052 100.056 33.8278 100.024 31.3901 99.798C29.0685 99.6045 28.875 99.5078 28.875 98.8306C28.875 98.218 28.6428 98.0568 27.6368 97.96C26.5147 97.8633 26.3599 97.7343 26.2438 96.7992C26.1277 95.9608 25.9729 95.7674 25.1604 95.7674C24.3865 95.7674 24.2317 95.6061 24.2317 94.8C24.2317 93.8972 24.1156 93.8327 22.8774 93.8327H21.5231L21.5231 91.898V89.9633H20.3623H19.2015V84.9653V79.9674H18.0407C16.9573 79.9674 16.8799 79.8706 16.8799 78.8388C16.8799 77.807 16.9573 77.7102 18.0407 77.7102C19.0854 77.7102 19.2015 77.6135 19.2015 76.7429V75.7755H21.5231H23.8448V74.8082C23.8448 73.9376 23.7287 73.8408 22.684 73.8408C21.6392 73.8408 21.5231 73.7441 21.5231 72.8735C21.5231 72.0029 21.4071 71.9061 20.3623 71.9061C19.3176 71.9061 19.2015 71.8094 19.2015 70.9388C19.2015 70.0682 19.0854 69.9714 18.0407 69.9714C16.9573 69.9714 16.8799 69.8747 16.8799 68.8429C16.8799 67.7788 16.8025 67.7143 15.5256 67.7143C14.3261 67.7143 14.1713 67.6176 14.1713 66.9082C14.1713 66.2633 13.9778 66.1021 13.204 66.1021C12.3527 66.1021 12.2753 66.231 12.1592 67.94Z" fill="#EA580C" fill-opacity="0.3"/>
<path d="M103.167 72.8735C103.167 73.7441 103.283 73.8408 104.328 73.8408C105.373 73.8408 105.489 73.7441 105.489 72.8735C105.489 72.0029 105.373 71.9061 104.328 71.9061C103.283 71.9061 103.167 72.0029 103.167 72.8735Z" fill="#EA580C" fill-opacity="0.3"/>
<path d="M105.876 80.9347V81.902H108.197H110.519V80.9347V79.9673H108.197H105.876V80.9347Z" fill="#EA580C" fill-opacity="0.3"/>
<path d="M86.1419 90.7372C86.1419 91.3498 85.9098 91.5111 84.7103 91.7045C83.8977 91.8013 82.3112 91.898 81.2278 91.898C79.2157 91.898 79.177 91.898 79.177 92.8654V93.8327H82.853H86.5289V92.8654C86.5289 92.0592 86.6836 91.898 87.4962 91.898C88.3088 91.898 88.4636 91.7368 88.4636 90.9307C88.4636 90.06 88.3475 89.9633 87.3027 89.9633C86.3354 89.9633 86.1419 90.0923 86.1419 90.7372Z" fill="#EA580C" fill-opacity="0.3"/>
<path d="M105.876 108.827C105.876 109.6 105.992 109.633 108.004 109.633C110.016 109.633 110.132 109.6 110.132 108.827C110.132 108.053 110.016 108.02 108.004 108.02C105.992 108.02 105.876 108.053 105.876 108.827Z" fill="#EA580C" fill-opacity="0.3"/>
<path d="M-55.0908 116.888V119.951H-53.93C-52.8078 119.951 -52.7691 120.016 -52.7691 121.37C-52.7691 122.144 -52.6531 123.434 -52.537 124.272C-52.3048 125.529 -52.15 125.755 -51.4149 125.755C-50.6023 125.755 -50.4862 125.949 -50.254 127.658C-50.0219 129.431 -49.9058 129.592 -48.9771 129.689C-48.1259 129.754 -47.8937 129.979 -47.8163 130.818C-47.7002 131.753 -47.5455 131.882 -46.5394 131.882C-45.4173 131.882 -45.4173 131.882 -45.4173 133.816V135.751H-44.2565C-43.2118 135.751 -43.0957 135.848 -43.0957 136.718C-43.0957 137.589 -42.9796 137.686 -41.9735 137.686C-40.9675 137.686 -40.8127 137.815 -40.6966 138.718C-40.6193 139.62 -40.3871 139.814 -39.4971 139.878C-38.6072 139.975 -38.4524 140.136 -38.4524 140.943C-38.4524 141.813 -38.3363 141.878 -37.0981 141.878C-35.8599 141.878 -35.7438 141.942 -35.7438 142.845C-35.7438 143.716 -35.6278 143.812 -34.583 143.812C-33.5383 143.812 -33.4222 143.909 -33.4222 144.78V145.747H-31.1006C-28.7789 145.747 -28.7789 145.747 -28.7789 146.682C-28.7789 147.52 -28.6242 147.649 -27.502 147.746C-26.496 147.811 -26.2251 148.004 -26.1477 148.714C-26.0317 149.52 -25.8769 149.616 -23.71 149.81C-21.5045 150.003 -21.4271 150.068 -21.4271 150.938C-21.4271 151.874 -21.4271 151.874 -18.912 151.874H-16.3969V152.841V153.808H-12.9144H-9.43199V154.776V155.743H-6.22039C-1.38366 155.743 -0.145454 156.001 -0.145454 156.904C-0.145454 157.645 -0.0293732 157.678 2.87267 157.678C4.49781 157.678 8.32851 157.774 11.3853 157.903C16.8025 158.097 16.8799 158.097 16.8799 158.871V159.612H24.0382H31.1966V158.871C31.1966 158.129 31.3514 158.097 34.9886 157.903C37.0394 157.774 40.7927 157.678 43.3078 157.678H47.835V156.71V155.743H50.3501H52.8652V154.776V153.808H49.3827H45.9003V154.743V155.711L35.569 155.807C29.8423 155.872 20.0141 155.872 13.707 155.807L2.17618 155.711V154.743V153.808H-3.6279H-9.43199V152.841V151.874H-11.7536H-14.0753V150.906V149.939H-16.5904H-19.1055V149.004C-19.1055 148.101 -19.1828 148.069 -21.3884 147.843C-23.5166 147.649 -23.71 147.553 -23.8261 146.779C-23.9422 145.973 -24.097 145.908 -26.1477 145.811C-28.3533 145.715 -28.392 145.683 -28.392 144.78C-28.392 143.877 -28.5081 143.812 -29.7463 143.812C-30.9845 143.812 -31.1006 143.748 -31.1006 142.845C-31.1006 141.974 -31.2166 141.878 -32.2614 141.878C-33.3061 141.878 -33.4222 141.781 -33.4222 140.943C-33.4222 140.104 -33.577 139.975 -34.6604 139.878C-35.7051 139.814 -35.976 139.62 -36.0534 138.911C-36.1695 138.234 -36.4016 138.04 -37.2142 137.944C-38.0268 137.879 -38.2976 137.654 -38.375 136.976C-38.4911 136.299 -38.7233 136.106 -39.5358 136.009C-40.3871 135.945 -40.6193 135.719 -40.6966 134.848C-40.8127 133.945 -40.9675 133.816 -41.9735 133.816C-42.9796 133.816 -43.0957 133.72 -43.0957 132.849C-43.0957 132.011 -43.2118 131.882 -44.2178 131.882C-45.2625 131.882 -45.3399 131.817 -45.5721 129.947C-45.8042 128.174 -45.9203 128.012 -46.7716 128.012C-47.6229 128.012 -47.7389 127.851 -47.7389 126.884C-47.7389 125.852 -47.855 125.755 -48.8611 125.755C-49.8671 125.755 -49.9832 125.658 -50.2153 124.272C-50.3314 123.434 -50.4475 122.144 -50.4475 121.37C-50.4475 120.016 -50.4862 119.951 -51.6083 119.951H-52.7691V116.888V113.825H-53.93H-55.0908V116.888Z" fill="#EA580C" fill-opacity="0.3"/>
<path d="M26.5533 138.814V143.812H27.7142H28.875V145.747V147.682H30.0358H31.1966V143.812V139.943H30.0358H28.875V136.88L28.875 133.816H27.7142H26.5533L26.5533 138.814Z" fill="#EA580C" fill-opacity="0.3"/>
<path d="M88.8505 138.976C88.8505 139.846 88.9666 139.943 90.0113 139.943C91.056 139.943 91.1721 139.846 91.1721 138.976C91.1721 138.105 91.056 138.008 90.0113 138.008C88.9666 138.008 88.8505 138.105 88.8505 138.976Z" fill="#EA580C" fill-opacity="0.3"/>
<path d="M76.8554 150.906C76.8554 151.777 76.9715 151.874 78.0162 151.874C79.0609 151.874 79.177 151.777 79.177 150.906C79.177 150.036 79.0609 149.939 78.0162 149.939C76.9715 149.939 76.8554 150.036 76.8554 150.906Z" fill="#EA580C" fill-opacity="0.3"/>
<path d="M-2.08015 160.386C-2.08015 160.612 -2.19622 161.483 -2.31231 162.321L-2.58317 163.804H-1.1128H0.35757L0.086714 162.321C-0.0293677 161.483 -0.145452 160.612 -0.145452 160.386C-0.145452 160.128 -0.571084 159.935 -1.1128 159.935C-1.65451 159.935 -2.08015 160.128 -2.08015 160.386Z" fill="#EA580C" fill-opacity="0.3"/>
<path d="M7.20639 164.771C7.20639 165.642 7.32247 165.739 8.36721 165.739C9.41194 165.739 9.52802 165.642 9.52802 164.771C9.52802 163.901 9.41194 163.804 8.36721 163.804C7.32247 163.804 7.20639 163.901 7.20639 164.771Z" fill="#EA580C" fill-opacity="0.3"/>
</svg>
