<svg width="130" height="163" viewBox="0 0 130 163" fill="none" xmlns="http://www.w3.org/2000/svg">
<path d="M31.4861 0.706863V1.41374H29.1676C25.6615 1.41374 24.7001 1.60223 24.7001 2.23842C24.7001 2.70967 24.5305 2.78036 22.8623 2.9453C21.1658 3.08667 21.0244 3.15736 21.0244 3.65218C21.0244 4.09985 20.8548 4.21767 20.1196 4.28836C19.3562 4.33548 19.1583 4.47685 19.1017 4.99522C19.0169 5.58429 18.9038 5.65497 17.3204 5.79634C15.7087 5.93771 15.6522 5.98485 15.6522 6.62103C15.6522 7.23366 15.5391 7.30434 14.8039 7.30434C14.0405 7.30434 13.9557 7.37503 13.9557 8.01122C13.9557 8.6474 13.8709 8.71809 13.1074 8.71809C12.344 8.71809 12.2592 8.78879 12.2592 9.4014C12.2592 10.014 12.1461 10.1083 11.3544 10.179C10.591 10.2261 10.3931 10.3675 10.3365 10.8858C10.2517 11.3806 10.082 11.522 9.48826 11.5927C8.89449 11.6398 8.69656 11.8048 8.64001 12.2996C8.55518 12.7944 8.38554 12.9358 7.79176 13.0065C7.16972 13.0536 7.00007 13.2185 6.94351 13.8311C6.85869 14.5145 6.74558 14.6087 6.01044 14.6087C5.27529 14.6087 5.19047 14.6794 5.19047 15.3156V16.0224H2.64573H0.10099V15.3156V14.6087H-1.73689H-3.57475V13.9018V13.1949H-5.89329C-9.39938 13.1949 -10.3607 13.0065 -10.3607 12.3703C-10.3607 11.8755 -10.5021 11.8519 -13.1034 11.7105C-14.6302 11.6163 -16.666 11.5456 -17.6274 11.5456C-19.3239 11.5456 -19.4087 11.522 -19.4087 10.9565V10.3675H-22.8017H-26.1947V10.9565C-26.1947 11.5456 -26.2229 11.5456 -28.4284 11.5456C-29.6442 11.5456 -31.2276 11.6163 -31.9627 11.687C-33.1786 11.8283 -33.2634 11.899 -33.2634 12.5116C-33.2634 13.1949 -33.2917 13.1949 -34.9599 13.1949H-36.6564V13.9018C-36.6564 14.5144 -36.7412 14.6087 -37.4764 14.6087C-38.268 14.6087 -38.2963 14.6558 -38.4942 16.0224C-38.6922 17.3891 -38.7204 17.4362 -39.5121 17.4362C-40.3321 17.4362 -40.3321 17.4362 -40.3321 18.8499C-40.3321 20.2401 -40.3321 20.2637 -41.1521 20.2637C-41.9438 20.2637 -41.9721 20.3108 -42.17 21.7952C-42.3396 23.1854 -42.4245 23.3268 -43.0182 23.3268C-43.612 23.3268 -43.6968 23.4682 -43.8665 24.717C-44.0361 26.0129 -44.121 26.1307 -44.7996 26.2014C-45.5347 26.2721 -45.563 26.3428 -45.6478 27.733C-45.7326 29.0996 -45.7892 29.2174 -46.3829 29.2174C-46.9484 29.2174 -47.0615 29.3587 -47.2312 30.3013C-47.316 30.9139 -47.4008 32.1862 -47.4008 33.1287V34.8724H-48.2491H-49.0973V37.1108V39.3492H-49.9456C-50.7656 39.3492 -50.7938 39.3728 -50.7938 40.5038C-50.7938 41.1164 -50.8787 42.1296 -50.9635 42.7422C-51.1331 43.6611 -51.2462 43.8261 -51.7834 43.8261C-52.4055 43.8261 -52.4338 43.9439 -52.6317 46.63L-52.8296 49.4575L-53.5648 49.5282C-54.3282 49.5989 -54.3282 49.6224 -54.413 51.7666L-54.4978 53.9579H-55.3178H-56.1661V56.1964V58.4348H-57.0143H-57.8626V61.3801V64.3254H-58.7108H-59.559V66.2575C-59.559 69.2264 -59.7852 69.9804 -60.5769 69.9804C-61.2273 69.9804 -61.2555 70.051 -61.2555 71.8418C-61.2555 72.855 -61.3404 74.1745 -61.4252 74.7635C-61.5948 75.706 -61.7079 75.8474 -62.3583 75.9181L-63.0934 75.9888L-63.1782 78.8634L-63.2631 81.7616H-64.083H-64.9313V84.7069V87.6522H-65.7795H-66.6278V91.1865V94.7209H-67.476H-68.296L-68.3808 97.0064L-68.4656 99.3156L-69.2291 99.3862L-70.0208 99.4569V101.86C-70.0208 103.18 -70.1056 104.829 -70.1904 105.489C-70.3601 106.573 -70.4732 106.738 -71.0104 106.738C-71.6042 106.738 -71.6324 106.879 -71.8304 108.905C-72.0565 111.639 -72.0565 119.909 -71.8304 121.511C-71.6607 122.595 -71.5476 122.76 -71.0104 122.76C-70.4732 122.76 -70.3601 122.925 -70.1904 123.844C-70.1056 124.457 -70.0208 125.399 -70.0208 125.965C-70.0208 126.954 -69.9925 127.001 -69.1725 127.001C-68.4091 127.001 -68.3243 127.072 -68.3243 127.708C-68.3243 128.344 -68.2394 128.415 -67.476 128.415C-66.6843 128.415 -66.6278 128.486 -66.6278 129.24C-66.6278 129.994 -66.5712 130.065 -65.7795 130.065C-65.0161 130.065 -64.9313 130.135 -64.9313 130.771C-64.9313 131.431 -64.8465 131.478 -63.9417 131.478C-63.0369 131.478 -62.952 131.525 -62.952 132.185V132.892H-61.2555C-59.559 132.892 -59.559 132.892 -59.559 133.599C-59.559 134.282 -59.5308 134.282 -57.7777 134.353C-56.1095 134.424 -56.0247 134.447 -55.9399 135.06C-55.855 135.672 -55.7419 135.719 -54.6392 135.719C-53.9606 135.719 -52.8296 135.79 -52.0945 135.861C-50.9918 136.002 -50.7938 136.096 -50.7938 136.544C-50.7938 136.992 -50.5959 137.086 -49.4932 137.227C-48.758 137.298 -47.627 137.369 -46.9484 137.369C-45.7609 137.369 -45.7043 137.392 -45.7043 138.076V138.783H-43.8665H-42.0286V139.489V140.196H-39.3425H-36.6564V140.903V141.61H-34.1116H-31.5669V142.317V143.024H-29.4746C-28.3436 143.024 -26.8167 143.095 -26.0816 143.165C-24.9788 143.307 -24.7809 143.401 -24.7809 143.849C-24.7809 144.296 -24.583 144.39 -23.2824 144.532C-22.4907 144.603 -21.2748 144.673 -20.6245 144.673C-19.5501 144.673 -19.437 144.72 -19.3521 145.309L-19.2673 145.969L-15.7895 146.04L-12.34 146.111V146.794V147.501H-9.65385H-6.96774V148.208V148.914H-3.57475H-0.181763V149.598V150.281L3.3526 150.446C6.80214 150.611 6.88696 150.634 6.88696 151.153C6.88696 151.671 6.97179 151.695 10.4213 151.86L13.9557 152.025V152.708V153.391H17.3204H20.7134L20.7982 154.027L20.883 154.687L24.3608 154.758L27.8104 154.829V155.512V156.195L31.4296 156.266L35.0205 156.337L35.1053 156.973C35.1901 157.609 35.275 157.633 36.8301 157.633C37.7349 157.633 39.6293 157.703 41.043 157.774C43.503 157.939 43.6443 157.962 43.6443 158.457C43.6443 158.976 43.7574 158.999 47.1787 159.164C50.6 159.329 50.7131 159.353 50.7131 159.871C50.7131 160.319 50.911 160.413 52.0137 160.554C52.7488 160.625 55.0957 160.696 57.2446 160.696H61.1465L61.2313 161.332L61.3161 161.992L74.4074 162.062L87.4704 162.109V161.426C87.4704 160.766 87.527 160.743 89.3083 160.578C91.1179 160.436 91.1461 160.413 91.1461 159.73C91.1461 159.117 91.2592 159.046 91.9944 159.046C92.7578 159.046 92.8427 158.976 92.8427 158.339C92.8427 157.727 92.9275 157.633 93.6626 157.633C94.4543 157.633 94.4826 157.585 94.6805 156.219C94.8502 154.946 94.935 154.805 95.5288 154.805C96.066 154.805 96.2074 154.664 96.2922 154.027C96.3487 153.415 96.5184 153.25 97.1404 153.203C97.8473 153.132 97.9321 153.038 98.1018 151.718C98.2714 150.375 98.328 150.328 99.0914 150.328C99.9114 150.328 99.9114 150.305 99.9114 148.914V147.501H100.76H101.608V145.262V143.024H102.456C103.276 143.024 103.304 142.977 103.304 141.987C103.304 141.422 103.389 140.479 103.474 139.866C103.644 138.924 103.757 138.783 104.322 138.783C104.944 138.783 105.001 138.688 105.001 137.746C105.001 137.18 105.086 136.238 105.171 135.649C105.34 134.706 105.453 134.565 106.104 134.494C106.81 134.424 106.839 134.353 106.924 132.939C107.008 131.596 107.065 131.478 107.659 131.478C108.224 131.478 108.337 131.337 108.507 130.394C108.592 129.782 108.677 128.462 108.677 127.449V125.588H109.525H110.373V124.056V122.525H111.221H112.07V120.404V118.283H112.918H113.766V116.422C113.766 115.409 113.851 114.089 113.936 113.477C114.105 112.558 114.218 112.393 114.756 112.393C115.293 112.393 115.406 112.228 115.576 111.309C115.66 110.696 115.745 109.424 115.745 108.481C115.745 106.785 115.745 106.761 116.537 106.691L117.3 106.62L117.385 104.429L117.47 102.261H118.29H119.138V99.3156V96.3703H119.987H120.835V92.7181V89.0659H121.683H122.531V87.3459C122.531 86.4269 122.616 85.0839 122.701 84.4006C122.871 83.3402 122.984 83.1753 123.521 83.1753C124.058 83.1753 124.171 83.0104 124.341 82.0914C124.426 81.4788 124.511 79.9001 124.511 78.5571V76.1301L125.302 76.0595L126.066 75.9888L126.15 72.3837L126.235 68.8022H127.055H127.904V65.0322V61.2623H128.752H129.6V53.251L129.6 45.2398H128.752H127.904V43.8261V42.4123H127.055C126.32 42.4123 126.207 42.3417 126.207 41.729C126.207 41.0693 126.15 41.0457 124.511 40.8808C122.871 40.7158 122.814 40.6923 122.814 40.0325C122.814 39.4199 122.729 39.3492 121.824 39.3492C120.92 39.3492 120.835 39.3021 120.835 38.6423V37.9355H118.997H117.159V37.2286C117.159 36.5453 117.131 36.5217 115.83 36.5217C115.067 36.5217 113.992 36.451 113.427 36.3804C112.522 36.239 112.352 36.1212 112.352 35.6735C112.352 35.1551 112.239 35.108 110.967 35.108C110.232 35.108 109.016 35.0373 108.281 34.9666C107.178 34.8252 106.98 34.731 106.98 34.2833C106.98 33.7649 106.867 33.7414 103.446 33.5764C100.024 33.4115 99.9114 33.3879 99.9114 32.8696C99.9114 32.4219 99.7135 32.3276 98.6107 32.1862C97.8756 32.1156 95.8963 32.0449 94.2281 32.0449H91.1461V31.338C91.1461 30.7018 91.0613 30.6311 90.2979 30.6311H89.4779L89.3931 28.4398C89.3083 26.2957 89.3083 26.2721 88.5732 26.2014C87.9228 26.1307 87.8097 25.9893 87.6401 25.0468C87.5552 24.4578 87.4704 23.5153 87.4704 22.9498C87.4704 21.9602 87.4421 21.913 86.6222 21.913H85.7739V20.4993V19.0856H84.9257C84.134 19.0856 84.0774 19.0149 84.0774 18.2609C84.0774 17.5069 84.0209 17.4362 83.2292 17.4362C82.4658 17.4362 82.3809 17.3655 82.3809 16.7293C82.3809 16.1167 82.2961 16.0224 81.561 16.0224C80.7693 16.0224 80.741 15.9753 80.5431 14.6087C80.3451 13.2421 80.3169 13.1949 79.5252 13.1949C78.8183 13.1949 78.7052 13.1007 78.7052 12.5116C78.7052 11.9226 78.5921 11.8048 77.9418 11.7341C77.3197 11.687 77.1218 11.522 77.0653 11.0036C76.9804 10.4617 76.8391 10.3675 76.1322 10.3675C75.3688 10.3675 75.3122 10.2968 75.3122 9.54277C75.3122 8.76521 75.2557 8.71809 74.3226 8.71809C73.4178 8.71809 73.333 8.67096 73.333 8.01122C73.333 7.30434 73.3047 7.30434 71.7778 7.30434C70.251 7.30434 70.2227 7.30434 70.2227 6.59747C70.2227 5.93773 70.1379 5.89059 69.2331 5.89059C68.3283 5.89059 68.2435 5.8199 68.2435 5.20729C68.2435 4.54753 68.1869 4.52397 66.547 4.35904C65.0202 4.21767 64.8505 4.14699 64.8505 3.65218C64.8505 3.15736 64.6808 3.08667 63.0126 2.9453C61.2313 2.78036 61.1748 2.75681 61.1748 2.09706V1.41374H58.4886H55.8025V0.706863V0L43.6443 0H31.4861V0.706863ZM44.3229 1.55511C45.4539 1.69649 45.6236 1.79074 45.6236 2.26198C45.6236 2.80392 45.6801 2.80392 49.1014 2.87462L52.5509 2.9453L52.6357 3.58148C52.7206 4.19411 52.8337 4.24123 53.9364 4.24123C54.615 4.24123 55.746 4.3119 56.4811 4.3826C57.5838 4.52397 57.7818 4.61823 57.7818 5.06592C57.7818 5.5136 57.9797 5.60785 59.0824 5.74924C59.8176 5.81992 61.0334 5.89059 61.7685 5.89059C63.1257 5.89059 63.154 5.91415 63.154 6.59747V7.30434H64.8505H66.547V8.01122C66.547 8.6474 66.6318 8.71809 67.3952 8.71809C68.1587 8.71809 68.2435 8.78877 68.2435 9.42496C68.2435 10.0847 68.3283 10.1318 69.2331 10.1318C70.1379 10.1318 70.2227 10.2025 70.2227 10.8152C70.2227 11.4749 70.2793 11.4985 71.9192 11.6634C73.5592 11.8283 73.6157 11.8519 73.6157 12.5116C73.6157 13.1243 73.7288 13.1949 74.464 13.1949C75.2274 13.1949 75.3122 13.2656 75.3122 13.9018C75.3122 14.538 75.397 14.6087 76.1605 14.6087C76.9239 14.6087 77.0087 14.6794 77.0087 15.3156C77.0087 15.9282 77.0935 16.0224 77.8287 16.0224C78.5921 16.0224 78.6487 16.0696 78.8183 17.4126C78.988 18.7321 79.0728 18.8264 79.7796 18.897C80.4017 18.9442 80.5713 19.1091 80.6279 19.7217C80.7127 20.405 80.8258 20.4993 81.561 20.4993C82.3809 20.4993 82.3809 20.4993 82.3809 21.913V23.3268H83.2292H84.0774V24.8583V26.3899H84.9257H85.7739V28.1335C85.7739 29.076 85.8587 30.3484 85.9436 30.961C86.1132 31.9035 86.2263 32.0449 86.7918 32.0449H87.4704V38.6423V45.2398H86.6222H85.7739L85.7739 47.4783V49.7167H84.9257H84.0774V51.8373V53.9579H83.2292H82.3809V55.3717V56.7854H81.5327C80.741 56.7854 80.6844 56.8561 80.6844 57.6101C80.6844 58.3641 80.5996 58.4348 79.8645 58.4348C79.0728 58.4348 79.0445 58.4819 78.8466 59.8485C78.6487 61.2151 78.6204 61.2623 77.8287 61.2623C77.0935 61.2623 77.0087 61.3565 77.0087 61.9691C77.0087 62.6053 76.9239 62.676 76.1605 62.676C75.3688 62.676 75.3122 62.7467 75.3122 63.5007C75.3122 64.2547 75.2557 64.3254 74.464 64.3254C73.7005 64.3254 73.6157 64.3961 73.6157 65.0322C73.6157 65.692 73.5309 65.7391 72.6261 65.7391C71.7213 65.7391 71.6365 65.7862 71.6365 66.446V67.1529H69.94H68.2435V67.8597C68.2435 68.4959 68.1587 68.5666 67.3952 68.5666C66.6601 68.5666 66.547 68.6373 66.547 69.2499C66.547 69.9332 66.5187 69.9568 64.7091 70.0982C63.0409 70.2631 62.8713 70.3338 62.8713 70.805C62.8713 71.2527 62.6733 71.347 61.5706 71.4883C60.8355 71.559 59.7045 71.6297 59.0259 71.6297C57.8383 71.6297 57.7818 71.6533 57.7818 72.3366V73.0435H54.2474H50.7131V73.7503V74.4572H43.7857H36.8584V73.7503V73.0435H34.1722H31.4861V72.3366C31.4861 71.6533 31.4296 71.6297 30.242 71.6297C29.5634 71.6297 28.4324 71.559 27.6973 71.4883C26.5946 71.347 26.3966 71.2527 26.3966 70.805C26.3966 70.3338 26.227 70.2631 24.5588 70.0982C22.7492 69.9568 22.7209 69.9332 22.7209 69.2499C22.7209 68.6373 22.6078 68.5666 21.8727 68.5666C21.1092 68.5666 21.0244 68.4959 21.0244 67.8597V67.1529H19.3279H17.6314V66.446C17.6314 65.8098 17.5466 65.7391 16.8115 65.7391C16.0763 65.7391 15.9632 65.6449 15.8784 64.9616C15.7935 64.3018 15.6805 64.2076 14.8888 64.1369C14.0688 64.0662 13.9557 63.9719 13.9557 63.3593C13.9557 62.7703 13.8426 62.676 13.1357 62.676C12.344 62.676 12.3157 62.6289 12.1178 61.2623C11.9482 59.9663 11.8633 59.8485 11.2413 59.8485C10.6758 59.8485 10.5627 59.7307 10.5627 59.1416C10.5627 58.529 10.4779 58.4348 9.74273 58.4348C8.95103 58.4348 8.92275 58.3876 8.72483 57.021C8.52691 55.6544 8.49863 55.6073 7.70693 55.6073C6.97179 55.6073 6.88696 55.5366 6.88696 54.7826C6.88696 54.0757 6.80214 53.9579 6.20837 53.9579C5.67114 53.9579 5.52977 53.8166 5.36012 53.0626C5.27529 52.5913 5.19047 51.6252 5.19047 50.9419C5.19047 49.7402 5.19047 49.7167 4.34222 49.7167H3.49397V48.1851V46.6536H2.64573H1.82576L1.74093 43.7554L1.65611 40.8808L0.892677 40.8101L0.10099 40.7394V34.9666V29.2174H0.779579C1.34508 29.2174 1.45818 29.076 1.62783 28.1335C1.71265 27.5209 1.79748 26.5077 1.79748 25.8951C1.79748 24.7641 1.82575 24.7405 2.64573 24.7405H3.49397V23.209V21.6774H4.34222H5.19047V20.2637C5.19047 18.8499 5.19047 18.8499 6.01044 18.8499C6.80214 18.8499 6.83041 18.8028 7.02834 17.4362C7.22626 16.0696 7.25454 16.0224 8.04623 16.0224C8.78138 16.0224 8.8662 15.9282 8.8662 15.3156C8.8662 14.6794 8.95103 14.6087 9.71445 14.6087C10.4779 14.6087 10.5627 14.538 10.5627 13.9018C10.5627 13.2656 10.6475 13.1949 11.4109 13.1949C12.2026 13.1949 12.2592 13.1243 12.2592 12.3703C12.2592 11.6163 12.3157 11.5456 13.0792 11.5456C13.786 11.5456 13.9274 11.4513 14.0122 10.8858C14.0688 10.391 14.2667 10.2261 14.8888 10.179C15.5391 10.1083 15.6522 9.99046 15.6522 9.4014C15.6522 8.71809 15.6522 8.71809 17.3487 8.71809H19.0452V8.01122C19.0452 7.35147 19.13 7.30434 20.0348 7.30434C20.9396 7.30434 21.0244 7.25722 21.0244 6.59747C21.0244 5.91415 21.0527 5.91415 22.8057 5.84348C24.4739 5.77278 24.5588 5.74924 24.6436 5.16017C24.7284 4.61824 24.8981 4.52397 26.0291 4.3826C26.7359 4.3119 27.8669 4.24123 28.5455 4.24123C29.6765 4.24123 29.7896 4.19411 29.7896 3.67572C29.7896 3.20448 29.9593 3.11023 31.0903 2.96886C31.8254 2.89816 33.3523 2.82748 34.4833 2.82748C36.4908 2.82748 36.5756 2.80392 36.5756 2.28555C36.5756 1.97925 36.6604 1.64937 36.7735 1.57867C36.9997 1.36662 42.5699 1.36661 44.3229 1.55511ZM-17.4295 13.9018V14.6087H-22.8017H-28.1739V15.3156V16.0224H-30.7187H-33.2634V16.7293C-33.2634 17.3655 -33.3482 17.4362 -34.0834 17.4362C-34.8185 17.4362 -34.9316 17.5304 -35.0164 18.1902C-35.073 18.8264 -35.2426 18.9913 -35.8647 19.0384C-36.5716 19.1091 -36.6564 19.2034 -36.826 20.5229C-36.9957 21.8659 -37.0522 21.913 -37.8157 21.913C-38.6356 21.913 -38.6356 21.9366 -38.6356 23.3268V24.7405H-39.4839H-40.3321V26.2721V27.8036H-41.1804H-42.0286V26.2721V24.7405H-41.1804H-40.3321V23.3268V21.913H-39.4839H-38.6356V20.3815C-38.6356 18.8499 -38.6356 18.8499 -37.8157 18.8499C-37.0522 18.8499 -36.9957 18.7792 -36.826 17.5775L-36.6281 16.2816L-35.073 16.1167C-33.631 15.9753 -33.5461 15.9282 -33.5461 15.292C-33.5461 14.6794 -33.4613 14.6087 -32.5565 14.6087C-31.6517 14.6087 -31.5669 14.5616 -31.5669 13.9018V13.1949H-24.4982H-17.4295V13.9018ZM-6.96774 15.3156V16.0224H-3.43337H0.10099V16.7293C0.10099 17.3655 0.185814 17.4362 0.977509 17.4362C1.76921 17.4362 1.82575 17.4833 1.74093 18.1902L1.65611 18.9677H-0.04039C-1.65205 18.9677 -1.73689 18.9442 -1.82171 18.3551C-1.90653 17.8132 -2.07618 17.7189 -3.20718 17.5775C-3.91405 17.5069 -5.4409 17.4362 -6.57189 17.4362H-8.66423L-8.66423 16.7293V16.0224H-12.1986H-15.733V15.3156V14.6087H-11.3503H-6.96774V15.3156ZM-20.7093 16.1638C-19.5783 16.3052 -19.4087 16.3994 -19.4087 16.8707C-19.4087 17.4362 -19.3804 17.4362 -16.3267 17.4362C-14.6585 17.4362 -12.6793 17.5069 -11.9441 17.5775C-10.8131 17.7189 -10.6435 17.8132 -10.6435 18.2844C-10.6435 18.8264 -10.5586 18.8499 -8.43803 18.8499C-7.25049 18.8499 -5.58227 18.9206 -4.76229 18.9913C-3.46165 19.1327 -3.292 19.2034 -3.292 19.6982C-3.292 20.193 -3.15063 20.2401 -1.65205 20.3108C-0.0969391 20.3815 -0.04039 20.405 0.0444412 21.0883C0.10099 21.4653 0.0727081 22.455 -0.04039 23.2561C-0.210037 24.5992 -0.294861 24.7405 -0.860359 24.7405C-1.42586 24.7405 -1.53896 24.9055 -1.7086 25.8244C-1.79343 26.437 -1.87826 30.8668 -1.87826 35.6971C-1.87826 40.5273 -1.79343 44.9571 -1.7086 45.5697C-1.53896 46.4886 -1.42586 46.6536 -0.888634 46.6536C-0.35141 46.6536 -0.238312 46.8185 -0.0686646 47.8788C0.0161591 48.5621 0.10099 49.5753 0.10099 50.1172C0.10099 51.0833 0.129265 51.1304 0.949234 51.1304H1.79748V52.5442V53.9579H2.64573H3.49397V55.4895V57.021H4.34222H5.19047V58.4348V59.8485H6.03871C6.80214 59.8485 6.88696 59.9192 6.88696 60.5554C6.88696 61.1916 6.97179 61.2623 7.70693 61.2623C8.44208 61.2623 8.55518 61.3565 8.64001 62.0163C8.69656 62.6525 8.86621 62.8174 9.48826 62.8645C10.1951 62.9352 10.28 63.0294 10.4496 64.3489C10.6192 65.692 10.6758 65.7391 11.4392 65.7391C12.1744 65.7391 12.2592 65.8334 12.2592 66.446C12.2592 67.0822 12.344 67.1529 13.1074 67.1529C13.8426 67.1529 13.9557 67.2236 13.9557 67.8362C13.9557 68.4724 14.0122 68.5195 15.6239 68.6609C17.2073 68.8022 17.3204 68.8729 17.4052 69.462C17.4618 69.9804 17.6597 70.1217 18.4231 70.1689C19.2148 70.2395 19.3279 70.3338 19.3279 70.9464C19.3279 71.6297 19.3279 71.6297 21.0244 71.6297H22.7209V72.3366V73.0435H24.4174H26.1139V73.7503V74.4572H27.9518H29.7896V75.1641C29.7896 75.8003 29.8745 75.871 30.6379 75.871H31.4861V78.8163V81.7616H32.3061H33.0978L33.2392 79.0519C33.2957 77.5675 33.4088 76.2951 33.4936 76.248C33.5785 76.1773 34.3136 76.1066 35.1619 76.0595C36.6604 75.9888 36.717 76.0123 36.8018 76.625L36.8866 77.2847H43.9554H50.9958V76.7192C50.9958 76.248 51.1655 76.1537 52.2964 76.0123C53.0316 75.9417 54.926 75.871 56.5377 75.871H59.4783V75.1641V74.4572H61.3161H63.154V73.7503C63.154 73.067 63.2106 73.0435 64.3981 73.0435C65.0767 73.0435 66.2077 72.9728 66.9428 72.9021C68.0738 72.7607 68.2435 72.6665 68.2435 72.1952C68.2435 71.7711 68.4131 71.6533 69.1766 71.5826C69.9117 71.5355 70.1096 71.3941 70.1662 70.8757C70.251 70.3102 70.3924 70.2395 71.7778 70.0982C73.1633 69.9332 73.3047 69.8625 73.3895 69.2971C73.4461 68.8022 73.644 68.6609 74.4074 68.6137C75.1991 68.5431 75.3122 68.4488 75.3122 67.8362C75.3122 67.2236 75.397 67.1529 76.1605 67.1529C76.9239 67.1529 77.0087 67.0822 77.0087 66.446C77.0087 65.8098 77.0935 65.7391 77.8287 65.7391C78.5638 65.7391 78.6769 65.6449 78.7617 64.9616C78.8183 64.3489 78.9879 64.184 79.61 64.1369C80.2038 64.0662 80.3734 63.9248 80.4583 63.43C80.5148 62.9352 80.7127 62.7703 81.3065 62.7231C82.0134 62.6525 82.0982 62.5582 82.2678 61.2387C82.4375 59.8956 82.494 59.8485 83.2574 59.8485C84.0774 59.8485 84.0774 59.825 84.0774 58.4348C84.0774 57.0446 84.0774 57.021 84.8974 57.021C85.6608 57.021 85.7174 56.9739 85.887 55.6073C86.0567 54.3349 86.1415 54.1935 86.7353 54.1935C87.3573 54.1935 87.4139 54.0522 87.6118 52.662C87.7814 51.2718 87.8663 51.1304 88.4318 51.1304C88.9973 51.1304 89.1104 50.9891 89.28 49.8816C89.3648 49.2219 89.4497 47.5725 89.4497 46.2295L89.4497 43.8261H90.2979H91.1461V40.8808V37.9355H92.8427C94.5391 37.9355 94.5391 37.9355 94.5391 38.6423V39.3257L97.1687 39.3964C99.7417 39.467 99.77 39.467 99.8548 40.0797L99.9396 40.7158L103.304 40.8808L106.669 41.0457L106.754 41.6819C106.839 42.271 106.924 42.2945 108.62 42.3652C110.345 42.4359 110.373 42.4359 110.373 43.1192V43.8261H112.211H114.049V44.533V45.2398H115.745H117.442V45.9467C117.442 46.5829 117.527 46.6536 118.29 46.6536C119.082 46.6536 119.138 46.7243 119.138 47.4783C119.138 48.2323 119.195 48.3029 119.987 48.3029H120.835V53.3689V58.4348H119.987H119.138V62.087V65.7391H118.29H117.442V69.0143C117.442 70.805 117.357 72.7607 117.272 73.3733C117.103 74.3158 116.989 74.4572 116.424 74.4572C115.774 74.4572 115.745 74.5279 115.745 76.1537C115.745 77.0962 115.66 78.4393 115.576 79.099C115.406 80.1829 115.293 80.3478 114.756 80.3478C114.218 80.3478 114.105 80.5128 113.936 81.4317C113.851 82.0443 113.766 83.3638 113.766 84.377C113.766 86.1677 113.738 86.2384 113.087 86.2384C112.522 86.2384 112.409 86.3798 112.239 87.3223C112.154 87.9349 112.07 89.2544 112.07 90.2676V92.129H111.221H110.373V95.6634V99.1978H109.525H108.677V101.436V103.675H107.828H106.98V105.371C106.98 106.314 106.895 107.657 106.81 108.316C106.641 109.4 106.528 109.565 105.99 109.565C105.453 109.565 105.34 109.73 105.171 110.649C105.086 111.262 105.001 112.534 105.001 113.477C105.001 115.173 105.001 115.197 104.237 115.267L103.446 115.338L103.361 117.506L103.276 119.697H102.456H101.608V122.642V125.588H100.76C99.9397 125.588 99.9114 125.611 99.9114 126.742C99.9114 127.355 99.8266 128.368 99.7417 128.981C99.5721 129.923 99.459 130.065 98.8935 130.065C98.2714 130.065 98.2149 130.159 98.2149 131.101C98.2149 131.667 98.1301 132.609 98.0452 133.222C97.8756 134.141 97.7625 134.306 97.2253 134.306C96.688 134.306 96.5749 134.471 96.4053 135.531C96.3204 136.214 96.2356 137.227 96.2356 137.769C96.2356 138.665 96.1508 138.783 95.557 138.783C94.9915 138.783 94.8784 138.924 94.7088 139.866C94.624 140.479 94.5391 141.422 94.5391 141.987C94.5391 142.977 94.5109 143.024 93.6909 143.024H92.8427V144.438V145.851H91.9944C91.2027 145.851 91.1461 145.922 91.1461 146.676C91.1461 147.43 91.0613 147.501 90.3262 147.501C89.5345 147.501 89.5062 147.548 89.3083 148.914C89.1104 150.281 89.0821 150.328 88.2904 150.328C87.5553 150.328 87.4704 150.422 87.4704 151.035C87.4704 151.671 87.3856 151.742 86.6222 151.742C85.887 151.742 85.7739 151.813 85.7739 152.425C85.7739 153.109 85.7457 153.132 83.9361 153.273C82.2678 153.438 82.0982 153.509 82.0982 153.98C82.0982 154.734 81.2782 154.805 72.6261 154.805C63.9174 154.805 63.154 154.734 63.154 153.957C63.154 153.391 63.1257 153.391 60.0721 153.391C58.4038 153.391 56.4246 153.321 55.6894 153.25C54.5867 153.109 54.3888 153.014 54.3888 152.567C54.3888 152.072 54.2474 152.048 51.6461 151.907C50.1193 151.813 47.7725 151.742 46.4153 151.742C43.9836 151.742 43.9271 151.718 43.9271 151.176C43.9271 150.682 43.7574 150.611 42.4568 150.47C41.6368 150.399 40.0534 150.328 38.9224 150.328C36.9149 150.328 36.8866 150.328 36.8018 149.668L36.717 149.032L32.4192 148.962L28.0931 148.891V148.208V147.501H24.5588H21.0244V146.817V146.158L17.7728 146.04C15.9915 145.993 14.4364 145.875 14.3233 145.781C14.2102 145.686 14.0688 144.39 14.0122 142.906L13.8709 140.196H14.7757H15.6522V138.335C15.6522 137.322 15.737 136.002 15.8218 135.39C15.9915 134.471 16.1046 134.306 16.6418 134.306C17.2638 134.306 17.2921 134.211 17.4901 131.502L17.688 128.674L18.4514 128.604L19.1865 128.533L19.2714 125.517C19.3562 122.548 19.3562 122.525 20.0065 122.525C20.8265 122.525 21.0244 121.771 21.0244 118.684V116.634H21.8727H22.7209V113.806V110.979H23.5692H24.4174V109.023C24.4174 106.125 24.6436 105.324 25.407 105.324C26.0291 105.324 26.0573 105.23 26.2553 102.379C26.4532 99.5276 26.4815 99.4334 27.1035 99.4334C27.6407 99.4334 27.7538 99.2684 27.9235 98.3495C28.0083 97.7369 28.0931 96.4174 28.0931 95.4042V93.5428H28.9414H29.7896V90.5975V87.6522H28.9414H28.0931V89.5843C28.0931 92.506 27.8669 93.3071 27.1035 93.3071C26.5663 93.3071 26.4532 93.4721 26.2835 94.5324C26.1987 95.2157 26.1139 96.2289 26.1139 96.7708C26.1139 97.6662 26.0291 97.784 25.4353 97.784C24.8698 97.784 24.7567 97.9254 24.5871 98.8679C24.5022 99.4805 24.4174 100.8 24.4174 101.813V103.675H23.5692H22.7209L22.7209 106.62V109.565H21.8727H21.0244V112.393V115.22H20.1762H19.3279V117.459V119.697H18.5079H17.688L17.4901 122.642C17.2921 125.493 17.2638 125.588 16.6418 125.588C16.1046 125.588 15.9915 125.753 15.8218 126.672C15.737 127.284 15.6522 128.604 15.6522 129.617V131.478H14.8039H13.9557V133.717V135.955H13.1074H12.2592V138.783V141.61H11.4109H10.5627V143.024V144.438H8.8662C7.28281 144.438 7.16971 144.414 7.16971 143.872C7.16971 143.377 7.00006 143.307 5.69941 143.165C4.87944 143.095 3.60707 143.024 2.87193 143.024C1.62783 143.024 1.51473 142.977 1.51473 142.458C1.51473 141.799 0.609932 141.61 -2.92442 141.61H-5.27124V140.903V140.196H-7.81599H-10.3607V139.489V138.783H-13.0468H-15.733V138.076C-15.733 137.392 -15.7895 137.369 -16.9205 137.369C-17.5991 137.369 -18.8149 137.298 -19.6066 137.227C-20.9073 137.086 -21.1052 136.992 -21.1052 136.544C-21.1052 136.096 -21.3031 136.002 -22.4058 135.861C-23.141 135.79 -24.3568 135.719 -25.0919 135.719C-26.3643 135.719 -26.4774 135.672 -26.4774 135.154C-26.4774 134.706 -26.6471 134.588 -27.5236 134.447C-28.1174 134.376 -29.2766 134.306 -30.0683 134.306C-31.5386 134.306 -31.5669 134.306 -31.5669 133.599L-31.5669 132.892H-35.1013H-38.6356V132.185C-38.6356 131.478 -38.6639 131.478 -40.1059 131.478C-40.9259 131.478 -42.0852 131.408 -42.6507 131.337C-43.5555 131.196 -43.7251 131.078 -43.7251 130.63C-43.7251 130.112 -43.8382 130.065 -45.1106 130.065C-45.8457 130.065 -47.0615 129.994 -47.7967 129.923C-49.0125 129.782 -49.0973 129.711 -49.0973 129.098C-49.0973 128.415 -49.1256 128.415 -50.7656 128.415C-52.4055 128.415 -52.462 128.392 -52.5469 127.755C-52.6317 127.143 -52.7165 127.119 -54.3847 127.049C-56.1378 126.978 -56.1661 126.978 -56.1661 126.295C-56.1661 125.658 -56.2509 125.588 -57.0143 125.588C-57.7777 125.588 -57.8626 125.517 -57.8626 124.904C-57.8626 124.292 -57.9757 124.197 -58.7673 124.127C-59.5308 124.08 -59.7287 123.938 -59.7852 123.42C-59.8701 122.925 -60.0397 122.784 -60.6335 122.713C-61.2555 122.666 -61.4252 122.501 -61.4817 121.865C-61.5666 121.205 -61.6797 121.111 -62.4148 121.111H-63.2348V118.872C-63.2348 116.634 -63.2348 116.634 -63.9417 116.634C-64.5072 116.634 -64.6485 116.516 -64.6485 116.045C-64.6485 115.574 -64.5072 115.456 -63.9417 115.456H-63.2348V112.558C-63.2348 110.955 -63.15 108.67 -63.0651 107.492C-62.8672 105.465 -62.8389 105.324 -62.2452 105.324C-61.6514 105.324 -61.6231 105.183 -61.4535 103.015C-61.3404 101.766 -61.2555 100.07 -61.2555 99.2449C-61.2555 97.8547 -61.2273 97.784 -60.5769 97.784C-60.0114 97.784 -59.8983 97.6426 -59.7287 96.7001C-59.6439 96.0875 -59.559 94.768 -59.559 93.7548V91.8934H-58.7108H-57.8626V88.9481V86.0028H-57.0143H-56.1661V83.1753L-56.1661 80.3478H-55.3178H-54.4696V78.6278C-54.4696 77.7088 -54.3847 76.3658 -54.2999 75.6825C-54.1303 74.6222 -54.0172 74.4572 -53.4799 74.4572C-52.9427 74.4572 -52.8296 74.2923 -52.66 73.3733C-52.5751 72.7607 -52.4903 71.7475 -52.4903 71.1349C-52.4903 70.0746 -52.4338 69.9804 -51.8117 69.9804C-51.2462 69.9804 -51.1331 69.839 -50.9635 68.8965C-50.8787 68.2839 -50.7938 67.0115 -50.7938 66.069V64.3254H-49.9456H-49.0973V61.3801V58.4348H-48.2491H-47.4008V56.4791C-47.4008 53.5338 -47.1746 52.7798 -46.3829 52.7798C-45.7609 52.7798 -45.7043 52.6855 -45.7043 51.6252C-45.7043 51.0126 -45.6195 49.9994 -45.5347 49.3868C-45.365 48.4679 -45.2519 48.3029 -44.7147 48.3029C-44.1775 48.3029 -44.0644 48.138 -43.8948 47.0541C-43.8099 46.3944 -43.7251 45.0513 -43.7251 44.1088C-43.7251 42.483 -43.6968 42.4123 -43.0465 42.4123C-42.481 42.4123 -42.3679 42.271 -42.1983 41.3285C-42.1134 40.7159 -42.0286 39.3964 -42.0286 38.3832V36.5217H-41.1804H-40.3321V34.2833V32.0449H-39.4839H-38.6356V29.9243V27.8036H-37.7874C-36.9674 27.8036 -36.9391 27.7801 -36.9391 26.6491C-36.9391 26.0365 -36.8543 25.0233 -36.7695 24.4106C-36.5998 23.4917 -36.4867 23.3268 -35.9495 23.3268C-35.3557 23.3268 -35.2709 23.1854 -35.1013 21.913C-34.9033 20.5464 -34.8751 20.4993 -34.0834 20.4993C-33.3765 20.4993 -33.2634 20.405 -33.2634 19.816C-33.2634 19.1562 -33.2068 19.1327 -31.5669 18.9677C-29.927 18.8028 -29.8704 18.7793 -29.8704 18.1195V17.4362H-28.0325H-26.1947L-26.1947 16.7293V16.0224H-24.1023C-22.9713 16.0224 -21.4445 16.0931 -20.7093 16.1638ZM-42.0286 30.2541C-42.0286 30.8196 -42.1134 31.7621 -42.1983 32.3748C-42.3679 33.3172 -42.481 33.4586 -43.0465 33.4586C-43.6968 33.4586 -43.7251 33.5293 -43.7251 35.3201C-43.7251 36.3332 -43.8099 37.6527 -43.8948 38.2654C-44.0644 39.1843 -44.1775 39.3492 -44.7147 39.3492C-45.2519 39.3492 -45.365 39.5142 -45.5347 40.4331C-45.6195 41.0457 -45.7043 42.3652 -45.7043 43.3784V45.2398H-46.5526H-47.4008V47.4783V49.7167H-48.2491H-49.0973V52.5442V55.3717H-49.9456H-50.7938V57.6101V59.8485H-51.6421H-52.4903V61.5921C-52.4903 62.5346 -52.5751 63.807 -52.66 64.4196C-52.8296 65.3386 -52.9427 65.5035 -53.4799 65.5035C-54.0172 65.5035 -54.1303 65.6684 -54.2999 66.7288C-54.3847 67.4121 -54.4696 68.4724 -54.4696 69.085C-54.4696 70.1217 -54.5261 70.216 -55.1482 70.216C-55.9399 70.216 -56.1661 70.97 -56.1661 73.9153V75.871H-57.0143H-57.8626V78.1094V80.3478H-58.7108H-59.559V82.2093C-59.559 83.2224 -59.6439 84.5419 -59.7287 85.1545C-59.8983 86.097 -60.0114 86.2384 -60.5769 86.2384C-61.2273 86.2384 -61.2555 86.3091 -61.2555 88.0999C-61.2555 89.113 -61.3404 90.4325 -61.4252 91.0452C-61.5948 91.9641 -61.7079 92.129 -62.2452 92.129C-62.7824 92.129 -62.8955 92.294 -63.0651 93.2129C-63.15 93.8255 -63.2348 95.145 -63.2348 96.1582C-63.2348 97.9489 -63.2631 98.0196 -63.9134 98.0196C-64.7899 98.0196 -64.9313 98.7501 -64.9313 103.133V106.502H-65.7795H-66.6278V115.22V123.938H-65.7795C-64.9878 123.938 -64.9313 124.009 -64.9313 124.763C-64.9313 125.541 -64.8747 125.588 -63.9417 125.588C-63.0369 125.588 -62.952 125.635 -62.952 126.295C-62.952 126.931 -62.8672 127.001 -62.1038 127.001C-61.3404 127.001 -61.2555 127.072 -61.2555 127.708V128.415H-59.559C-57.8626 128.415 -57.8626 128.415 -57.8626 129.098C-57.8626 129.782 -57.8343 129.805 -56.0247 129.947C-54.3565 130.112 -54.1868 130.182 -54.1868 130.654C-54.1868 131.243 -53.2255 131.478 -50.5676 131.478C-49.1256 131.478 -49.0973 131.478 -49.0973 132.185V132.892H-46.4112H-43.7251V133.599V134.306H-41.1804H-38.6356V135.013C-38.6356 135.696 -38.5791 135.719 -37.4198 135.719C-36.7695 135.719 -35.5537 135.79 -34.7337 135.861C-33.433 136.002 -33.2634 136.073 -33.2634 136.568C-33.2634 137.086 -33.1503 137.133 -32.0193 137.133C-31.3407 137.133 -30.2097 137.204 -29.4746 137.275C-28.3718 137.416 -28.1739 137.51 -28.1739 137.958C-28.1739 138.406 -27.976 138.5 -26.8733 138.641C-26.1381 138.712 -24.9223 138.783 -24.1871 138.783C-22.83 138.783 -22.8017 138.806 -22.8017 139.489V140.196H-20.1156H-17.4295V140.903V141.61H-14.0365H-10.6435V142.317C-10.6435 143 -10.6152 143.024 -9.25801 143.024C-8.52286 143.024 -7.30704 143.095 -6.57189 143.165C-5.46917 143.307 -5.27124 143.401 -5.27124 143.849C-5.27124 144.367 -5.15814 144.39 -1.73689 144.555L1.79748 144.72V145.404V146.087H4.4836H7.16971V146.794V147.501H10.5627H13.9557V148.208V148.914H17.4901H21.0244V149.621V150.328H23.2581C24.4739 150.328 26.0573 150.399 26.7925 150.47C27.9235 150.611 28.0931 150.705 28.0931 151.176C28.0931 151.695 28.2062 151.742 29.7331 151.742C30.6096 151.742 32.5888 151.813 34.1157 151.907C36.717 152.048 36.8584 152.072 36.8584 152.567C36.8584 153.014 37.0563 153.109 38.159 153.25C38.8941 153.321 40.8734 153.391 42.5416 153.391C45.5953 153.391 45.6236 153.391 45.6236 153.957C45.6236 154.428 45.7932 154.522 46.9242 154.664C47.6594 154.734 50.0062 154.805 52.1551 154.805H56.0853V155.512V156.219H60.4679H64.8505V156.926V157.633H73.6157H82.3809V156.926V156.219H84.0774C85.7739 156.219 85.7739 156.219 85.7739 155.535C85.7739 154.923 85.887 154.829 86.707 154.758C87.4704 154.711 87.6401 154.569 87.6966 154.027C87.7814 153.486 87.9228 153.391 88.6297 153.391C89.3648 153.391 89.4497 153.321 89.4497 152.684C89.4497 152.048 89.5345 151.978 90.2979 151.978C91.0896 151.978 91.1461 151.907 91.1461 151.153C91.1461 150.399 91.2027 150.328 91.9944 150.328H92.8427V148.914C92.8427 147.501 92.8427 147.501 93.6626 147.501C94.3978 147.501 94.5109 147.406 94.5957 146.723C94.6523 146.087 94.8219 145.946 95.4722 145.898C96.1791 145.828 96.2356 145.734 96.2356 144.815C96.2356 144.249 96.3204 143.307 96.4053 142.694C96.5749 141.775 96.688 141.61 97.2535 141.61C97.819 141.61 97.9039 141.469 98.0735 140.079C98.2714 138.688 98.3562 138.547 98.9218 138.547C99.6286 138.547 99.9114 137.746 99.9114 135.531C99.9114 134.329 99.9114 134.306 100.76 134.306H101.608V132.067V129.829H102.456H103.304V128.085C103.304 127.143 103.389 125.87 103.474 125.258C103.644 124.315 103.757 124.174 104.322 124.174C104.944 124.174 105.001 124.08 105.001 123.019C105.001 122.407 105.086 121.394 105.171 120.781C105.34 119.862 105.453 119.697 105.99 119.697C106.528 119.697 106.641 119.532 106.81 118.613C106.895 118.001 106.98 116.987 106.98 116.375C106.98 115.314 107.037 115.22 107.659 115.22C108.224 115.22 108.337 115.079 108.507 114.136C108.592 113.524 108.677 112.251 108.677 111.309V109.565H109.525H110.373V106.62V103.675H111.221H112.041L112.126 101.483L112.211 99.3156L113.003 99.2449C113.766 99.1742 113.766 99.1506 113.766 97.4777C113.766 96.5352 113.851 95.2157 113.936 94.5324C114.105 93.4721 114.218 93.3071 114.756 93.3071C115.349 93.3071 115.378 93.1658 115.576 91.1394C115.66 89.9613 115.745 88.3826 115.745 87.605C115.745 86.3327 115.774 86.2384 116.424 86.2384C116.989 86.2384 117.103 86.097 117.272 85.1545C117.357 84.5419 117.442 83.2224 117.442 82.2093V80.3478H118.29H119.138V76.6956V73.0435H119.987H120.835V69.3913V65.7391H121.683H122.531V63.5478C122.531 62.3226 122.616 60.3669 122.701 59.1888C122.899 57.1624 122.927 57.021 123.521 57.021C124.058 57.021 124.171 56.8561 124.341 55.7722C124.567 54.17 124.567 49.1512 124.341 47.7374C124.171 46.7243 124.086 46.6536 123.351 46.6536C122.616 46.6536 122.531 46.5593 122.531 45.9467C122.531 45.3105 122.446 45.2398 121.683 45.2398C120.92 45.2398 120.835 45.1691 120.835 44.533C120.835 43.8968 120.75 43.8261 119.987 43.8261C119.251 43.8261 119.138 43.7554 119.138 43.1428C119.138 42.5066 119.082 42.4595 117.442 42.3181C115.915 42.1767 115.745 42.106 115.745 41.6112C115.745 41.0928 115.576 41.0457 113.907 40.8808C112.239 40.7394 112.07 40.6687 112.07 40.1975C112.07 39.7262 111.872 39.632 110.769 39.4906C110.034 39.4199 108.818 39.3492 108.083 39.3492C106.726 39.3492 106.697 39.3257 106.697 38.6423V37.9355H103.304L99.9114 37.9355V37.2286V36.5217H96.377H92.8427V35.6971C92.8427 34.9431 92.7861 34.8724 91.9944 34.8724C91.2875 34.8724 91.1461 34.7781 91.1461 34.2833C91.1461 33.7885 91.2875 33.6942 91.9944 33.6942C92.7013 33.6942 92.8427 33.7885 92.8427 34.2598C92.8427 34.731 93.0123 34.8252 94.1433 34.9666C94.8784 35.0373 96.8577 35.108 98.5259 35.108H101.608V35.8149V36.5217L105.001 36.5217H108.394V37.2286V37.9355H110.232H112.07V38.6423V39.3492H113.907H115.745V40.0561V40.763H117.442C119.138 40.763 119.138 40.763 119.138 41.4463C119.138 42.106 119.195 42.1296 120.835 42.2945C122.475 42.4595 122.531 42.483 122.531 43.1428C122.531 43.7554 122.616 43.8261 123.521 43.8261C124.426 43.8261 124.511 43.8732 124.511 44.5094C124.511 45.0984 124.624 45.2163 125.302 45.287C126.037 45.3576 126.066 45.4283 126.15 46.8185C126.235 48.2794 126.235 48.3029 127.055 48.3029H127.904V52.662V57.021H127.055H126.207V59.66C126.207 63.3593 126.037 64.0898 125.189 64.0898C124.539 64.0898 124.511 64.1604 124.511 65.7863C124.511 66.7288 124.426 68.3781 124.313 69.4384C124.171 71.2527 124.086 71.3941 123.521 71.3941C122.927 71.3941 122.899 71.5355 122.729 73.6797C122.616 74.952 122.531 76.6485 122.531 77.4496C122.531 78.8634 122.503 78.9341 121.853 78.9341C121.033 78.9341 120.835 79.6881 120.835 82.7512V84.8247H119.987H119.138V87.77V90.7153H118.29H117.442V93.1658C117.442 94.5088 117.357 96.0875 117.272 96.7001C117.103 97.6426 116.989 97.784 116.424 97.784C115.774 97.784 115.745 97.8547 115.745 99.4805C115.745 100.423 115.66 101.766 115.576 102.426C115.406 103.51 115.293 103.675 114.756 103.675C114.218 103.675 114.105 103.84 113.936 104.9C113.851 105.583 113.766 106.856 113.766 107.727C113.766 109.259 113.738 109.306 113.003 109.377L112.211 109.447L112.126 111.615L112.041 113.806H111.221H110.373V116.752V119.697H109.525C108.677 119.697 108.677 119.721 108.677 120.922C108.677 121.606 108.592 122.572 108.507 123.043C108.337 123.797 108.196 123.938 107.659 123.938C107.037 123.938 106.98 124.033 106.98 125.093C106.98 125.705 106.895 126.719 106.81 127.331C106.641 128.25 106.528 128.415 105.962 128.415C105.397 128.415 105.312 128.557 105.142 129.947C104.944 131.337 104.859 131.478 104.294 131.478C103.757 131.478 103.644 131.643 103.474 132.562C103.389 133.175 103.304 134.188 103.304 134.801C103.304 135.932 103.276 135.955 102.456 135.955H101.608V138.076V140.196H100.76C99.9397 140.196 99.9396 140.22 99.8548 141.657C99.77 143.071 99.7417 143.142 99.0066 143.212C98.2714 143.283 98.2149 143.377 98.2149 144.296C98.2149 144.862 98.1301 145.804 98.0452 146.417C97.8756 147.336 97.7625 147.501 97.2253 147.501C96.6315 147.501 96.5467 147.642 96.377 148.891C96.2074 150.187 96.1225 150.305 95.4439 150.375C94.7088 150.446 94.6805 150.517 94.5957 151.907C94.5109 153.368 94.5109 153.391 93.6909 153.391C92.9275 153.391 92.8427 153.462 92.8427 154.098C92.8427 154.711 92.7578 154.805 92.0227 154.805C91.2592 154.805 91.2027 154.852 91.0331 156.195L90.8351 157.585L89.3083 157.75C87.9228 157.892 87.7532 157.962 87.7532 158.457C87.7532 158.952 87.6118 159.023 85.9153 159.164C84.2471 159.329 84.0774 159.4 84.0774 159.871C84.0774 160.319 83.8795 160.413 82.7768 160.554C81.052 160.743 71.5517 160.743 69.8269 160.554C68.7242 160.413 68.5262 160.319 68.5262 159.871C68.5262 159.353 68.4697 159.329 63.154 159.164C57.8383 158.999 57.7818 158.999 57.7818 158.457C57.7818 157.962 57.6404 157.939 55.0391 157.797C53.5123 157.703 51.1654 157.633 49.8083 157.633L47.3201 157.633V156.926V156.219H43.7857H40.2513V155.512V154.805H36.717H33.1826V154.098V153.391H30.2986C28.6869 153.391 26.7077 153.321 25.916 153.25C24.6153 153.109 24.4174 153.014 24.4174 152.567C24.4174 152.048 24.3043 152.025 21.0244 151.86C17.7445 151.695 17.6314 151.671 17.6314 151.153C17.6314 150.705 17.4335 150.611 16.1611 150.47C15.3412 150.399 14.0688 150.328 13.3336 150.328C12.0895 150.328 11.9764 150.281 11.9764 149.763C11.9764 149.103 11.0716 148.914 7.53728 148.914H5.19047V148.208V147.501H1.65611H-1.87826V146.794V146.087H-3.9706C-5.10159 146.087 -6.62843 146.016 -7.36359 145.946C-8.49458 145.804 -8.66423 145.71 -8.66423 145.239C-8.66423 144.72 -8.77733 144.673 -10.0497 144.673C-10.7848 144.673 -12.0007 144.603 -12.7358 144.532C-13.8385 144.39 -14.0365 144.296 -14.0365 143.849C-14.0365 143.33 -14.1496 143.307 -17.5708 143.142C-20.9921 142.977 -21.1052 142.953 -21.1052 142.435C-21.1052 141.987 -21.3031 141.893 -22.4058 141.751C-23.141 141.681 -24.6678 141.61 -25.7988 141.61H-27.8912V140.903V140.196H-30.5773H-33.2634V139.489C-33.2634 138.806 -33.2917 138.783 -34.6489 138.783C-35.384 138.783 -36.5998 138.712 -37.335 138.641C-38.4377 138.5 -38.6356 138.406 -38.6356 137.958C-38.6356 137.51 -38.8335 137.416 -39.9363 137.275C-40.6714 137.204 -41.8024 137.133 -42.481 137.133C-43.612 137.133 -43.7251 137.086 -43.7251 136.568C-43.7251 136.026 -43.8665 135.979 -45.563 135.837C-47.3443 135.672 -47.4008 135.649 -47.4008 134.989V134.306H-49.9456H-52.4903V133.599V132.892H-54.3282H-56.1661V132.185C-56.1661 131.502 -56.2226 131.478 -57.4102 131.478C-58.0888 131.478 -59.2197 131.408 -59.9549 131.337C-61.0859 131.196 -61.2555 131.101 -61.2555 130.63C-61.2555 130.206 -61.4252 130.088 -62.1603 130.017C-62.9238 129.97 -63.1217 129.829 -63.1782 129.311C-63.2631 128.816 -63.4327 128.674 -64.0265 128.604C-64.6485 128.557 -64.8182 128.392 -64.8747 127.755C-64.9596 127.096 -65.0727 127.001 -65.8078 127.001C-66.6278 127.001 -66.6278 127.001 -66.6278 125.588C-66.6278 124.174 -66.6278 124.174 -67.476 124.174H-68.296L-68.3808 121.983L-68.4656 119.815L-69.2291 119.744L-70.0208 119.673V116.163V112.652L-69.2291 112.581L-68.4656 112.511L-68.3808 108.081L-68.3243 103.675H-67.476H-66.6278V100.729L-66.6278 97.784H-65.7795H-64.9313V95.2157C-64.9313 93.8255 -64.8465 92.1762 -64.7616 91.5635C-64.592 90.621 -64.4789 90.4797 -63.9134 90.4797C-63.2631 90.4797 -63.2348 90.409 -63.2348 88.736C-63.2348 87.7935 -63.15 86.5212 -63.0651 85.9086C-62.8955 84.9896 -62.7824 84.8247 -62.2452 84.8247C-61.7079 84.8247 -61.5948 84.6597 -61.4252 83.5759C-61.3404 82.9161 -61.2555 81.5259 -61.2555 80.5128C-61.2555 78.7691 -61.2273 78.6984 -60.5769 78.6984C-60.0114 78.6984 -59.8983 78.5571 -59.7287 77.6146C-59.6439 77.002 -59.559 75.7296 -59.559 74.7871V73.0435H-58.7108H-57.8626V70.0982V67.1529H-57.0143H-56.1661V65.1972C-56.1661 62.299 -55.9399 61.4979 -55.1764 61.4979C-54.5544 61.4979 -54.5261 61.4036 -54.3282 58.5526C-54.1303 55.7015 -54.102 55.6073 -53.4799 55.6073C-52.9427 55.6073 -52.8296 55.4424 -52.66 54.5234C-52.5751 53.9108 -52.4903 52.8976 -52.4903 52.285C-52.4903 51.2247 -52.4338 51.1304 -51.8117 51.1304C-51.2462 51.1304 -51.1331 50.9891 -50.9635 50.0466C-50.8787 49.4339 -50.7938 48.4208 -50.7938 47.8081C-50.7938 46.6771 -50.7656 46.6536 -49.9456 46.6536H-49.0973V43.8261V40.9986H-48.2491H-47.4008V38.7602V36.5217H-46.5526C-45.7326 36.5217 -45.7326 36.4982 -45.6478 35.0373C-45.563 33.6471 -45.5347 33.5764 -44.8278 33.5058C-43.9796 33.4351 -43.7251 32.7282 -43.7251 30.4426C-43.7251 29.241 -43.7251 29.2174 -42.8769 29.2174C-42.0569 29.2174 -42.0286 29.2645 -42.0286 30.2541Z" fill="#EA580C" fill-opacity="0.3"/>
</svg>
