<svg width="172" height="233" viewBox="0 0 172 233" fill="none" xmlns="http://www.w3.org/2000/svg">
<path d="M162.41 34.1173C161.72 34.6919 161.612 34.7098 161.009 34.2071L160.363 33.6685L158.768 34.9971C157.907 35.7153 156.678 36.631 156.054 37.0439C155.063 37.6544 154.847 37.6903 154.416 37.3312C153.899 36.9003 153.856 36.9362 151.895 38.5701C150.775 39.5037 148.922 40.94 147.78 41.7839C145.777 43.2023 145.626 43.2921 145.173 42.915C144.721 42.538 144.57 42.6278 142.48 44.1539C141.23 45.0516 139.313 46.5418 138.236 47.4396C136.275 49.0734 136.232 49.1093 135.715 48.6784C135.047 48.1218 134.293 48.5707 130.156 52.0179L126.967 54.6752L126.321 54.1366L125.675 53.5979L121.042 57.4581L116.41 61.3183L115.764 60.7797L115.117 60.2411L111.778 63.024L108.438 65.807L107.792 65.2683L107.146 64.7297L104.797 66.6867C103.526 67.746 101.953 68.949 101.328 69.3619C100.359 69.9544 100.122 70.0083 99.7126 69.6672C99.2601 69.2901 99.1308 69.3619 97.0194 70.906C95.7698 71.8037 94.197 73.0067 93.5291 73.5633C92.3656 74.5328 92.2363 74.5687 91.7623 74.1737C91.3314 73.8146 91.116 73.8506 90.1249 74.461C89.5001 74.874 87.9273 76.0769 86.6561 77.1362L84.3077 79.0932L83.6613 78.5546L83.0149 78.016L80.9681 79.7217L78.9213 81.4273L78.275 80.8887L77.6286 80.3501L74.9354 82.5944L72.2423 84.8387L71.5959 84.3L70.9495 83.7614L68.7519 85.5928C67.5238 86.6162 65.951 87.8191 65.2831 88.268C64.1628 88.9861 63.9258 89.04 63.5164 88.6989C63.0424 88.3039 62.9347 88.3577 60.2846 90.3148C57.6345 92.2718 57.5268 92.3257 57.0528 91.9307C56.6434 91.5895 56.4064 91.6434 55.4369 92.2359C54.8121 92.6489 53.5409 93.6004 52.6145 94.3725C50.9555 95.755 50.9339 95.7729 50.2876 95.342L49.6197 94.8932L44.9874 98.6456L40.3552 102.434L41.0015 102.973C41.6048 103.475 41.5832 103.565 40.8938 104.14C40.2043 104.714 40.1828 104.804 40.7861 105.307C41.3678 105.792 41.3678 105.899 40.7861 106.384L40.1397 106.923L41.5402 108.09L42.9406 109.257L42.2942 109.795L41.6479 110.334L46.3879 114.284L51.1278 118.234L51.7742 117.695C52.3559 117.211 52.4852 117.211 53.0669 117.695C53.6486 118.18 53.7779 118.18 54.3596 117.695C54.9414 117.211 55.0706 117.211 55.6524 117.695L56.2987 118.234L58.3455 116.528L60.3923 114.823L61.0387 115.361L61.685 115.9L64.3782 113.656L67.0714 111.411L67.7177 111.95L68.3641 112.489L71.7036 109.706L75.0432 106.923L75.6895 107.461L76.3143 107.982L79.6754 105.289L83.0149 102.614L83.6398 103.027C84.243 103.422 84.3077 103.404 86.376 101.931C87.5179 101.087 89.0261 99.9384 89.7371 99.3459C90.9005 98.3763 91.0083 98.3225 91.5038 98.7354C91.9563 99.1125 92.1502 99.0586 93.2921 98.3225C93.96 97.8736 95.5328 96.6707 96.7609 95.6472L98.9585 93.8159L99.6048 94.3545L100.251 94.8932L102.923 92.6668L105.573 90.4584L106.564 91.0689C107.081 91.392 109.451 93.367 111.821 95.4498L116.109 99.2381L115.613 99.7588L115.117 100.28L119.103 103.709L123.089 107.102L122.443 107.641L121.797 108.179L125.136 110.962L128.476 113.745L127.829 114.284L127.183 114.823L130.07 117.228C131.643 118.539 133.323 120.047 133.819 120.568C134.53 121.376 134.594 121.573 134.185 121.915C133.776 122.256 133.84 122.453 134.702 123.387C135.241 123.943 136.404 125.021 137.266 125.739C138.753 126.978 138.796 127.05 138.3 127.463C137.848 127.84 137.912 128.001 138.796 128.953C139.334 129.509 140.498 130.587 141.36 131.305L142.911 132.598L142.265 133.136L141.618 133.675L144.311 135.919L147.005 138.163L146.358 138.702L145.712 139.241L149.051 142.024L152.391 144.807L151.745 145.345L151.098 145.884L153.447 147.841C154.718 148.9 156.161 150.211 156.657 150.732L157.497 151.683L154.308 154.34L151.098 157.016L150.452 156.477L149.805 155.938L146.466 158.721L143.126 161.504L142.48 160.966L141.834 160.427L138.731 163.012C137.029 164.431 135.133 165.903 134.508 166.316C133.539 166.908 133.302 166.962 132.892 166.621C132.397 166.208 132.354 166.244 128.26 169.404C124.167 172.564 124.102 172.582 123.628 172.187C123.219 171.846 122.982 171.9 122.012 172.492C121.387 172.905 119.814 174.108 118.543 175.168L116.195 177.125L115.548 176.586L114.902 176.047L110.916 179.369L106.93 182.69L107.555 183.211C108.158 183.714 108.137 183.768 107.06 184.917L105.939 186.102L106.952 187.197C107.857 188.167 107.921 188.328 107.469 188.705C107.016 189.082 107.103 189.226 108.223 190.411C109.365 191.578 109.43 191.739 108.999 192.099C108.568 192.458 108.632 192.655 109.343 193.463C110.464 194.684 113.868 197.521 115.311 198.436C116.302 199.047 116.518 199.083 117.078 198.724C117.574 198.383 117.854 198.401 118.479 198.849C119.146 199.298 119.319 199.298 119.879 198.831C120.439 198.365 120.568 198.365 121.15 198.849C121.797 199.388 121.797 199.388 123.068 198.329C124.317 197.287 124.382 197.269 125.028 197.7L125.675 198.131L129.144 195.348L132.591 192.583L133.216 193.104L133.862 193.643L139.141 189.316L144.419 185.025L145.087 185.473L145.733 185.904L148.06 183.965C149.331 182.906 151.766 180.985 153.468 179.71C156.441 177.448 156.571 177.376 157.023 177.753C157.476 178.13 157.626 178.04 159.738 176.496C160.966 175.616 162.884 174.126 163.982 173.21C165.921 171.595 165.965 171.559 166.482 171.99C167.149 172.546 167.904 172.097 172.062 168.632L175.229 165.993L175.875 166.531L176.522 167.07L180.508 163.748L184.493 160.427L185.14 160.966L185.786 161.504L188.781 159.009C190.418 157.644 192.271 156.208 192.896 155.795C193.887 155.184 194.103 155.148 194.534 155.507C195.029 155.92 195.115 155.884 196.753 154.52C197.679 153.748 198.95 152.796 199.575 152.383C200.566 151.773 200.782 151.737 201.213 152.096C201.687 152.491 201.816 152.455 202.979 151.486C203.647 150.929 205.22 149.726 206.47 148.828C208.581 147.284 208.71 147.212 209.163 147.589C209.572 147.931 209.809 147.877 210.779 147.284C211.404 146.871 212.976 145.668 214.248 144.609L216.596 142.652L217.242 143.191L217.889 143.729L220.474 141.575L223.06 139.42L223.706 139.959L224.352 140.497L226.399 138.792L228.446 137.086L229.092 137.625L229.739 138.163L231.441 136.745C232.367 135.973 233.638 135.021 234.263 134.608C235.254 133.998 235.47 133.962 235.901 134.321C236.418 134.752 236.461 134.716 238.465 133.046C240.49 131.359 240.511 131.341 239.994 130.91C239.52 130.515 239.563 130.371 240.619 129.276L241.761 128.073L240.49 127.014C239.219 125.954 239.219 125.954 239.865 125.416C240.49 124.895 240.49 124.859 239.456 123.997C238.895 123.531 238.034 122.705 237.538 122.184C236.827 121.376 236.762 121.178 237.172 120.837C237.624 120.46 237.538 120.353 235.642 118.521C234.522 117.48 233.014 116.223 232.303 115.738C231.118 114.966 230.924 114.912 230.471 115.289C230.105 115.595 229.846 115.595 229.329 115.271C228.791 114.894 228.532 114.894 227.907 115.343L227.132 115.882L231.764 119.742L236.418 123.62L235.771 124.159L235.125 124.698L236.525 125.865L237.926 127.032L237.28 127.57C236.698 128.055 236.698 128.163 237.28 128.648L237.926 129.186L235.233 131.43L232.54 133.675L231.893 133.136L231.247 132.598L228.554 134.842L225.861 137.086L225.214 136.547L224.568 136.009L222.866 137.427C221.939 138.199 220.668 139.151 220.043 139.564C219.074 140.156 218.837 140.21 218.427 139.869C217.953 139.474 217.846 139.528 215.196 141.485C212.546 143.442 212.438 143.496 211.964 143.101C211.554 142.76 211.317 142.814 210.219 143.514C209.529 143.981 208.193 144.986 207.288 145.74C205.673 147.087 205.586 147.123 205.091 146.71C204.444 146.171 203.647 146.62 200.178 149.511L197.636 151.629L196.99 151.091L196.365 150.57L193.025 153.245L189.664 155.938L189.018 155.507L188.35 155.059L185.614 157.339C184.106 158.596 182.016 160.229 180.96 160.966C179.193 162.258 178.999 162.312 178.569 161.953C178.116 161.576 178.008 161.63 174.906 164C173.118 165.346 170.92 167.07 170.015 167.824C168.399 169.171 168.313 169.207 167.817 168.794C167.343 168.399 167.236 168.453 165.189 169.907C164.047 170.751 161.892 172.438 160.427 173.659L157.777 175.868L157.131 175.329L156.485 174.79L152.391 178.202L148.297 181.613L147.651 181.075L147.005 180.536L141.726 184.935L136.447 189.334L135.801 188.795L135.155 188.256L131.341 191.434C126.558 195.42 125.782 195.887 125.115 195.33C124.684 194.971 124.49 195.025 123.089 195.977C121.581 196.982 121.516 197 120.913 196.497C120.353 196.031 120.202 196.049 119.642 196.515C119.06 197 118.931 197 118.349 196.515C117.768 196.031 117.638 196.031 117.057 196.515L116.41 197.054L113.846 194.917L111.261 192.763L111.8 192.206C112.295 191.686 112.252 191.614 111.045 190.501C109.774 189.334 109.753 189.316 110.378 188.795C110.981 188.292 110.959 188.202 110.27 187.628C109.58 187.053 109.559 186.964 110.141 186.479C110.679 186.03 110.701 185.868 110.27 185.402L109.731 184.845L111.713 183.085C112.791 182.116 115.527 179.907 117.768 178.148C121.797 175.042 121.84 175.006 122.335 175.419C122.745 175.76 122.982 175.706 123.951 175.114C124.576 174.701 126.429 173.264 128.066 171.9L131.061 169.404L131.707 169.943L132.354 170.481L136.34 167.16L140.326 163.838L140.972 164.377L141.618 164.916L145.712 161.504L149.805 158.093L150.452 158.631L151.098 159.17L153.102 157.5C154.222 156.567 156.075 155.13 157.217 154.286C159.221 152.868 159.372 152.778 159.824 153.155C160.277 153.532 160.427 153.443 162.431 152.024C163.573 151.18 165.081 150.031 165.771 149.457C166.956 148.469 167.042 148.433 167.688 148.864L168.334 149.295L171.803 146.512L175.251 143.747L175.746 144.16C176.177 144.519 176.392 144.483 177.384 143.873C178.008 143.46 179.581 142.257 180.852 141.198L183.201 139.241L183.847 139.779L184.493 140.318L187.833 137.535L191.173 134.752L191.819 135.291L192.465 135.829L194.9 133.8C198.261 131 199.058 130.551 199.704 131.089C200.2 131.502 200.286 131.466 201.902 130.12C202.807 129.366 204.143 128.36 204.832 127.893L206.103 127.085L205.457 126.547C204.854 126.044 204.725 126.044 203.669 126.708C203.044 127.121 201.773 128.073 200.846 128.845C199.187 130.228 199.166 130.245 198.52 129.815L197.852 129.366L194.512 132.041L191.151 134.734L190.526 134.213L189.88 133.675L186.54 136.458L183.201 139.241L182.554 138.702L181.908 138.163L179.861 139.869L177.814 141.575L175.121 139.33L172.428 137.086L173.074 136.547L173.721 136.009L172.019 134.59C171.092 133.818 169.95 132.759 169.455 132.238C168.744 131.43 168.679 131.233 169.089 130.892C169.563 130.497 169.541 130.443 165.749 127.032C161.957 123.62 161.914 123.584 162.41 123.171C162.819 122.83 162.754 122.633 162.043 121.825C161.548 121.304 159.824 119.76 158.187 118.396L155.192 115.9L155.838 115.361L156.485 114.823L153.145 112.04L149.805 109.257L150.452 108.718L151.077 108.197L147.759 105.325L144.419 102.434L144.958 101.877L145.475 101.339L142.609 98.9509C141.037 97.6402 139.356 96.132 138.86 95.6113C138.149 94.8034 138.085 94.6059 138.494 94.2648C138.947 93.8877 138.86 93.78 137.008 92.0205C135.93 90.9791 134.487 89.6684 133.819 89.1118C132.569 88.0705 132.569 88.0705 133.216 87.5318L133.862 86.9932L130.522 84.2103L127.183 81.4273L127.829 80.8887C128.433 80.386 128.411 80.2962 127.722 79.7217L126.967 79.0932L129.316 77.1362C130.587 76.0769 132.16 74.874 132.785 74.461C133.754 73.8685 133.991 73.8146 134.401 74.1558C134.853 74.5328 134.982 74.461 137.115 72.899C138.343 72.0192 140.196 70.5828 141.252 69.7031L143.126 68.141L142.502 67.6203C141.941 67.1535 141.812 67.1535 140.756 67.8179C140.132 68.2308 138.559 69.4338 137.288 70.4931C134.961 72.4321 134.939 72.4501 134.422 72.0192C133.991 71.6601 133.776 71.696 132.785 72.3065C132.16 72.7194 130.005 74.4071 128.023 76.0589L124.382 79.0932L123.736 78.5546L123.089 78.016L119.75 80.7989L116.41 83.5819L115.764 83.0432L115.117 82.5046L111.778 85.2875L108.438 88.0705L107.792 87.5318L107.146 86.9932L104.797 88.9502C103.526 90.0096 101.953 91.2125 101.328 91.6255C100.359 92.2179 100.122 92.2718 99.7126 91.9307C99.2601 91.5536 99.1309 91.6255 97.0194 93.1695C95.7698 94.0673 94.1539 95.3061 93.4213 95.9166C92.1286 96.9938 92.0424 97.0297 91.5469 96.6168C90.9005 96.0782 90.1034 96.527 86.7423 99.3279L84.3077 101.357L83.6613 100.818L83.0149 100.279L80.3218 102.524L77.6286 104.768L76.9822 104.229L76.3359 103.691L72.9964 106.474L69.6568 109.257L69.0105 108.718L68.3641 108.179L66.0157 110.136C64.7445 111.196 63.1717 112.399 62.5469 112.812C61.5773 113.404 61.3403 113.458 60.931 113.117C60.4785 112.74 60.2846 112.794 59.0134 113.638C57.6992 114.517 57.5268 114.553 56.9451 114.176C56.428 113.817 56.1479 113.835 55.5446 114.266C54.8552 114.733 54.6828 114.733 54.1226 114.266C53.5625 113.799 53.4332 113.799 52.8515 114.284C52.2482 114.787 52.1405 114.769 51.451 114.194C50.7616 113.62 50.6538 113.602 50.0506 114.104L49.4042 114.643L46.8188 112.489L44.2333 110.334L44.8797 109.795C45.526 109.257 45.526 109.257 44.2549 108.197L42.9621 107.12L43.6085 106.474C44.1256 105.971 44.1471 105.738 43.7162 105.307C43.2638 104.822 43.3069 104.678 44.3626 103.583C45.3752 102.524 45.4399 102.362 44.9874 101.985C44.578 101.644 44.6427 101.447 45.246 100.764C45.6553 100.315 46.8188 99.3459 47.8314 98.6097C49.5335 97.3709 49.7058 97.2991 50.1583 97.6761C50.5677 98.0172 50.8047 97.9634 51.925 97.2452C52.5929 96.7963 53.8856 95.8268 54.7474 95.1086C56.2341 93.8698 56.3203 93.8339 56.8158 94.2468C57.2467 94.6059 57.4622 94.57 58.4532 93.9595C59.0781 93.5466 60.0691 92.8284 60.6293 92.3616C61.5989 91.5536 61.7281 91.5177 62.2021 91.9127C62.633 92.2718 62.8485 92.2359 63.8396 91.6255C64.4644 91.2125 66.0372 90.0096 67.3084 88.9502L69.6568 86.9932L70.3032 87.5318L70.9495 88.0705L73.6427 85.8262L76.3359 83.5819L76.9822 84.1205L77.6071 84.6412L80.3218 82.4866L83.0149 80.3501L83.6398 80.763L84.2861 81.1939L87.0224 79.1651C89.6509 77.226 89.7586 77.1721 90.2326 77.5671C90.642 77.9083 90.879 77.8544 91.9993 77.1362C92.6672 76.6874 94.2401 75.4844 95.4681 74.461L97.6658 72.6296L98.3121 73.1683L98.9585 73.7069L101.652 71.4626L104.345 69.2183L104.991 69.7569L105.638 70.2956L108.331 68.0513L111.024 65.807L111.67 66.3456L112.317 66.8842L114.665 64.9272C115.936 63.8679 117.509 62.6649 118.134 62.252C119.103 61.6595 119.34 61.6056 119.75 61.9467C120.224 62.3417 120.288 62.3238 124.382 59.1638C128.476 56.0038 128.519 55.9679 129.014 56.3809C129.467 56.7579 129.596 56.6861 131.729 55.1241C132.957 54.2443 135.155 52.5207 136.62 51.2998C139.248 49.1093 139.248 49.1093 139.765 49.5402C140.455 50.1148 141.187 49.648 145.992 45.6441L149.805 42.4662L150.452 43.0048L151.098 43.5434L155.084 40.2219L159.07 36.9003L159.716 37.4389L160.363 37.9776L161.655 36.9003L162.948 35.823L166.395 38.6957L169.843 41.5684L169.326 41.9994C168.895 42.3584 168.938 42.538 169.67 43.3639C170.166 43.8846 171.265 44.908 172.126 45.6261L173.721 46.9548L172.428 48.0321L171.135 49.1093L171.782 49.6479L172.428 50.1866L174.346 48.5886L176.263 46.9907L175.121 45.7877C174.087 44.7105 174.022 44.5489 174.475 44.1718C174.884 43.8307 174.82 43.6332 174.109 42.8253C173.613 42.3046 170.963 39.9884 168.205 37.6903L163.164 33.4889L162.41 34.1173ZM129.251 85.5569C131.987 88.0525 132.052 88.1423 131.6 88.5193C131.19 88.8605 131.255 89.058 131.966 89.8659C132.461 90.3866 133.905 91.6973 135.176 92.7566L137.525 94.7136L136.878 95.2523L136.232 95.7909L139.033 98.125L141.834 100.459L141.187 100.998L140.541 101.536L144.441 104.858L148.297 108.179L147.78 108.718L147.242 109.275L149.568 111.214C150.861 112.291 152.283 113.584 152.779 114.104C153.49 114.912 153.554 115.11 153.145 115.451C152.671 115.846 152.736 115.936 155.192 118.234C157.648 120.532 157.713 120.622 157.239 121.017C156.829 121.358 156.894 121.556 157.605 122.363C158.1 122.884 159.479 124.141 160.707 125.164L162.927 127.014L162.41 127.552L161.871 128.109L165.749 131.448L169.627 134.752L168.981 135.291L168.334 135.829L171.652 138.594L174.949 141.341L174.109 142.293C172.988 143.514 170.877 145.273 169.412 146.207C168.442 146.799 168.205 146.853 167.796 146.512C167.343 146.135 167.214 146.207 165.103 147.751C163.853 148.649 162.28 149.852 161.612 150.408L160.363 151.45L158.424 149.834L156.485 148.218L157.131 147.679L157.777 147.141L156.075 145.722C155.149 144.95 154.007 143.891 153.511 143.37C152.779 142.544 152.736 142.365 153.167 142.006C153.641 141.611 153.597 141.503 152.456 140.551C151.766 139.977 150.323 138.666 149.267 137.643C147.414 135.883 147.306 135.757 147.759 135.38C148.211 135.003 148.103 134.878 146.401 133.208C145.389 132.256 143.945 130.946 143.191 130.317C141.898 129.24 141.855 129.168 142.351 128.755C142.782 128.396 142.739 128.217 142.006 127.391C141.511 126.87 140.067 125.559 138.796 124.5L136.447 122.543L137.094 122.004L137.74 121.466L134.401 118.683L131.061 115.9L131.707 115.361L132.354 114.823L128.368 111.429L124.382 108L124.921 107.443L125.438 106.905L123.24 105.073C122.034 104.068 120.59 102.757 120.051 102.201C119.19 101.267 119.125 101.069 119.534 100.728C120.03 100.315 119.987 100.279 116.302 96.9579C112.64 93.6543 112.597 93.5825 113.071 93.1875C113.48 92.8464 113.415 92.6489 112.575 91.7332C112.015 91.1586 111.153 90.3327 110.658 89.9198L109.731 89.1477L112.963 86.4546L116.195 83.7614L116.841 84.3L117.487 84.8387L120.138 82.6303C121.603 81.4094 122.938 80.4039 123.089 80.4219C123.456 80.4039 125.696 82.2712 129.251 85.5569Z" fill="#EA580C" fill-opacity="0.3"/>
<path d="M157.131 58.6253L153.684 61.498L154.33 62.0366L154.976 62.5753L158.424 59.7025L161.871 56.8298L161.225 56.2912L160.578 55.7526L157.131 58.6253Z" fill="#EA580C" fill-opacity="0.3"/>
<path d="M123.736 28.6413L123.09 29.1799L121.689 28.0129L120.289 26.8459L118.371 28.4438L116.432 30.0597L115.786 29.6288L115.118 29.1799L111.778 31.8552L108.417 34.5483L107.792 34.0276L107.168 33.507L104.367 35.7333L101.544 37.9776L100.898 37.5467L100.23 37.0979L98.0108 38.9472C96.7827 39.9706 95.2745 41.1196 94.6713 41.5146C93.6802 42.1251 93.4647 42.161 92.9045 41.8019C92.4305 41.4787 92.1289 41.4787 91.6334 41.8199C91.0516 42.1969 90.8577 42.179 90.3191 41.7301C89.802 41.2992 89.7805 41.1376 90.2329 40.7606C90.75 40.3297 90.7069 40.2578 89.4788 39.2344C88.2508 38.211 88.1646 38.1751 87.669 38.5881C87.195 38.9831 87.0442 38.9292 85.6007 37.9776C84.0925 36.9363 84.0494 36.9363 83.4246 37.4569C82.8644 37.9238 82.7136 37.9058 82.1534 37.439C81.5717 36.9542 81.4424 36.9542 80.8607 37.439C80.3221 37.8878 80.1282 37.9058 79.6973 37.5467C79.2663 37.1876 79.0509 37.2235 78.0598 37.834C76.5947 38.7676 74.4833 40.5272 73.3629 41.7481C72.6519 42.556 72.5873 42.7535 72.9967 43.0946C73.4491 43.4717 73.3845 43.6333 72.3718 44.6926L71.2515 45.8776L72.2426 46.9548C73.169 47.9423 73.2121 48.086 72.7597 48.5707C72.3288 49.0017 72.3503 49.2351 72.8889 49.7557C73.3845 50.2764 73.4276 50.456 72.9751 50.833C72.5442 51.1921 72.5658 51.3537 73.1044 51.8025L73.7507 52.3412L71.0576 54.5855L68.3644 56.8298L67.718 56.2912L67.0717 55.7525L63.7322 58.5355L60.3926 61.3184L59.7463 60.7798L59.0999 60.2411L57.3978 61.6595C56.4714 62.4316 55.2002 63.3832 54.5754 63.7961C53.5843 64.4066 53.3689 64.4425 52.9379 64.0834C52.4209 63.6525 52.4209 63.6525 49.7277 65.8968L47.0345 68.1411L47.6809 68.6797C48.2626 69.1645 48.2626 69.2722 47.6809 69.757L47.0345 70.2956L48.9736 71.9115L50.9127 73.5274L50.3094 74.0302L49.6846 74.5508L51.6668 76.4181C52.7225 77.4415 54.166 78.7522 54.8555 79.3267C56.0189 80.2963 56.062 80.3681 55.5449 80.799C55.0278 81.2299 55.0494 81.2838 56.4067 82.4149C57.7641 83.546 57.8287 83.564 58.3458 83.1331C58.7983 82.756 58.9922 82.774 59.5308 83.2228L60.1772 83.7615L62.3317 81.966L64.4862 80.1706L65.1326 80.7092L65.779 81.2478L69.0108 78.5547L72.2426 75.8615L72.8889 76.4001L73.5353 76.9388L76.5301 74.4431C78.1675 73.0786 80.0204 71.6422 80.6453 71.2293C81.6148 70.6368 81.8518 70.5829 82.2612 70.924C82.7136 71.3011 82.8429 71.2293 84.9759 69.6672C86.2039 68.7875 87.7768 67.5845 88.4662 67.01C89.6081 66.0584 89.7374 66.0225 90.2114 66.4175C90.6638 66.7945 90.8577 66.7407 91.9996 66.0045C92.6675 65.5557 94.2404 64.3527 95.4684 63.3293L97.6661 61.4979L98.3124 62.0366L98.9588 62.5752L102.298 59.7923L105.638 57.0093L106.284 57.548L106.931 58.0866L110.27 55.3037L113.61 52.5207L114.256 53.0594L114.902 53.598L117.251 51.641C118.522 50.5816 120.095 49.3787 120.72 48.9657C121.689 48.3732 121.926 48.3194 122.335 48.6605C122.788 49.0376 122.896 48.9837 125.352 47.1164C126.709 46.0571 129.165 44.0821 130.76 42.7535L133.647 40.3117L132.376 39.1447C131.104 37.9776 131.083 37.9597 131.708 37.439L132.354 36.9004L129.661 34.656L126.968 32.4117L127.614 31.8731L128.26 31.3345L126.321 29.7186L124.382 28.1027L123.736 28.6413ZM127.743 36.3617L127.205 36.9183L129.122 38.5163L131.018 40.0962L130.2 40.9222C129.747 41.4069 128.174 42.6817 126.752 43.7949L124.102 45.8237L123.499 45.321L122.874 44.8003L120.289 46.9548L117.703 49.1094L117.057 48.5707L116.411 48.0321L113.717 50.2764L111.024 52.5207L110.378 51.9821L109.731 51.4435L107.857 53.0055C106.801 53.8853 104.948 55.3216 103.72 56.2014C101.609 57.7455 101.458 57.8352 101.006 57.4582C100.553 57.0812 100.402 57.1709 98.3986 58.5893C97.2567 59.4332 95.6839 60.6361 94.9298 61.2645C93.6371 62.3418 93.5509 62.3777 93.0554 61.9648C92.6245 61.6057 92.409 61.6416 91.4179 62.252C90.7931 62.665 89.2203 63.8679 87.9491 64.9273L85.6007 66.8843L84.9543 66.3457L84.308 65.807L80.3221 69.1286L76.3362 72.4502L75.6898 71.9115L75.0435 71.3729L71.7039 74.1558L68.3644 76.9388L67.718 76.4001L67.0717 75.8615L64.3785 78.1058L61.6854 80.3501L61.039 79.8115C60.4573 79.3267 60.328 79.3267 59.7463 79.8115L59.0999 80.3501L56.9454 78.5547L54.7908 76.7592L55.4372 76.2206L56.0836 75.682L52.8518 72.9888L49.62 70.2956L52.9595 67.5127L56.299 64.7298L56.9454 65.2684L57.5917 65.807L61.5776 62.4854L65.5635 59.1639L66.2099 59.7025L66.8562 60.2411L69.2047 58.2841C70.4759 57.2248 72.0487 56.0218 72.6735 55.6089C73.643 55.0164 73.88 54.9625 74.2894 55.3037C74.7418 55.6807 74.8711 55.6089 77.0041 54.0469C78.2322 53.1671 79.805 51.9641 80.4944 51.3896C81.6363 50.438 81.7656 50.4021 82.2396 50.7971C82.6705 51.1562 82.886 51.1203 83.8771 50.5098C84.5019 50.0969 86.0747 48.8939 87.3459 47.8346L89.6943 45.8776L90.3407 46.4162L90.987 46.9548L94.3265 44.1719L97.6661 41.389L98.3124 41.9276L98.9588 42.4662L102.298 39.6833L105.638 36.9004L106.284 37.439L106.931 37.9776L109.279 36.0206C110.55 34.9613 112.123 33.7583 112.748 33.3454C113.739 32.7349 113.954 32.699 114.385 33.0581C114.881 33.4711 114.967 33.4351 116.497 32.1604C117.359 31.4422 118.587 30.5265 119.19 30.1315C120.569 29.2697 120.418 29.1799 124.942 33.0222L128.26 35.8231L127.743 36.3617ZM86.8934 45.698C84.3295 47.8346 84.308 47.8526 83.7909 47.4217C83.36 47.0626 83.1445 47.0985 82.1534 47.7089C81.5286 48.1219 80.2574 49.0735 79.331 49.8455L77.6289 51.2639L76.3362 50.1866L75.0435 49.1094L75.6898 48.5707C76.2715 48.086 76.2715 47.9782 75.6898 47.4935C75.1081 47.0087 75.1081 46.901 75.6898 46.4162C76.25 45.9494 76.2715 45.8237 75.7114 45.3569C75.1512 44.8901 75.1512 44.7824 75.9484 43.9026C76.4439 43.3819 77.435 42.4483 78.1675 41.8378C78.9001 41.2274 80.0204 40.4015 80.6453 39.9885C81.701 39.3242 81.8302 39.3242 82.3904 39.791C82.9506 40.2578 83.1014 40.2399 83.6616 39.7731L84.308 39.2344L86.8934 41.389L89.4788 43.5435L86.8934 45.698Z" fill="#EA580C" fill-opacity="0.3"/>
<path d="M147.759 64.2808L144.419 67.0638L145.066 67.6024L145.712 68.141L149.052 65.3581L152.391 62.5752L151.745 62.0365L151.098 61.4979L147.759 64.2808Z" fill="#EA580C" fill-opacity="0.3"/>
<path d="M220.582 150.462L219.16 151.647L220.474 152.635C221.164 153.173 223.254 154.915 225.107 156.495L228.446 159.35L227.8 159.888L227.154 160.427L228.554 161.594L229.954 162.761L228.403 164.054C227.541 164.772 225.387 166.46 223.62 167.788C220.496 170.176 220.388 170.23 219.936 169.853C219.526 169.512 219.289 169.566 218.32 170.158C217.695 170.571 215.842 172.008 214.205 173.372L211.232 175.85L210.585 175.419L209.917 174.97L205.931 178.184L201.945 181.434L201.299 180.895L200.674 180.374L197.227 183.139L193.758 185.922L193.112 185.491L192.466 185.06L189.126 187.736L185.786 190.411L185.162 189.998L184.515 189.567L180.379 192.763C176.307 195.905 176.242 195.923 175.768 195.528C175.359 195.187 175.122 195.241 174.152 195.833C173.527 196.246 171.954 197.449 170.683 198.508C168.356 200.447 168.335 200.465 167.818 200.034C167.387 199.675 167.171 199.711 166.18 200.322C165.555 200.735 164.564 201.453 164.004 201.92C162.97 202.781 162.927 202.781 162.302 202.261C161.72 201.776 161.591 201.776 161.009 202.261L160.363 202.799L156.075 199.226C153.727 197.269 151.422 195.241 150.969 194.756L150.107 193.822L151.055 192.817C151.551 192.26 152.994 191.057 154.266 190.142C156.463 188.562 156.571 188.508 157.045 188.903C157.541 189.316 157.648 189.262 158.919 188.202C159.652 187.592 161.268 186.353 162.518 185.455C164.629 183.911 164.758 183.84 165.211 184.217C165.62 184.558 165.857 184.504 166.827 183.911C167.451 183.498 169.304 182.062 170.942 180.697L173.937 178.202L174.454 178.633C174.885 178.992 175.1 178.956 176.091 178.345C176.716 177.933 178.569 176.496 180.206 175.132L183.201 172.636L183.847 173.175L184.494 173.713L187.833 170.93L191.173 168.147L191.819 168.686L192.466 169.225L195.46 166.729C197.098 165.364 198.951 163.928 199.576 163.515C200.545 162.923 200.782 162.869 201.191 163.21C201.687 163.623 201.73 163.587 205.824 160.427C209.917 157.267 209.982 157.249 210.456 157.644C210.865 157.985 211.102 157.931 212.072 157.339C212.697 156.926 214.097 155.866 215.196 154.951C216.295 154.035 217.566 152.868 218.061 152.347C218.772 151.539 218.837 151.342 218.428 151.001C217.954 150.606 217.846 150.66 215.088 152.707C212.33 154.753 212.223 154.807 211.749 154.412C211.339 154.071 211.102 154.125 210.133 154.717C209.508 155.13 208 156.279 206.772 157.303L204.552 159.152L203.906 158.721L203.238 158.272L199.145 161.576L195.051 164.916L194.405 164.377L193.758 163.838L189.794 167.07L185.786 170.302L185.14 169.871L184.472 169.422L182.145 171.361C180.853 172.438 179.301 173.623 178.677 174.036C177.707 174.629 177.47 174.683 177.061 174.342C176.608 173.965 176.479 174.036 174.367 175.58C173.118 176.478 171.545 177.681 170.877 178.238C169.714 179.207 169.584 179.243 169.11 178.848C168.636 178.453 168.529 178.507 166.482 179.961C165.34 180.805 163.487 182.242 162.367 183.175L160.363 184.845L159.717 184.306L159.07 183.768L155.084 187.089L151.098 190.411L150.452 189.872L149.806 189.334L147.759 191.039L145.712 192.745L148.405 194.989L151.098 197.234L150.452 197.772L149.806 198.311L155.084 202.71L160.341 207.091L161.763 206.013C163.099 205.008 163.185 204.972 163.789 205.367L164.435 205.798L168.572 202.602C172.644 199.46 172.708 199.442 173.182 199.837C173.592 200.178 173.829 200.124 174.798 199.532C175.423 199.119 177.276 197.682 178.914 196.318L181.908 193.822L182.555 194.361L183.201 194.899L185.14 193.284L187.058 191.686L189.126 193.302C191.173 194.899 191.173 194.899 191.819 194.469C192.422 194.074 192.552 194.109 193.758 195.007C195.029 195.959 195.051 195.977 195.827 195.438C196.495 194.989 196.667 194.989 197.227 195.456C197.787 195.923 197.917 195.923 198.498 195.438C199.058 194.971 199.209 194.953 199.769 195.42L200.373 195.923L202.419 194.433C203.561 193.625 205.35 192.134 206.405 191.111L208.344 189.28L207.72 188.759C207.181 188.31 207.181 188.202 207.87 187.628C208.56 187.053 208.581 186.964 207.978 186.461C207.44 186.012 207.418 185.85 207.849 185.491C208.323 185.096 208.258 185.007 206.513 183.301C205.5 182.349 204.682 181.487 204.682 181.416C204.682 181.344 205.285 180.877 206.039 180.392C207.224 179.62 207.44 179.548 207.87 179.908C208.366 180.32 208.409 180.285 212.503 177.125C216.575 173.983 216.661 173.947 217.135 174.342C217.587 174.719 217.717 174.647 219.742 173.21C220.884 172.367 222.737 170.93 223.857 169.997L225.861 168.327L226.507 168.866L227.175 169.422L229.868 167.07L232.54 164.736L232.023 164.197C231.635 163.766 231.635 163.551 232.023 163.12C232.432 162.707 232.432 162.456 232.023 162.043C231.613 161.594 231.613 161.379 231.98 161.073C232.411 160.714 232.368 160.535 231.506 159.601C230.946 159.026 230.084 158.201 229.588 157.788C228.769 157.105 228.726 156.962 229.179 156.585C229.653 156.19 229.588 156.1 227.843 154.394C226.83 153.443 225.107 151.899 223.986 150.965L221.983 149.295L220.582 150.462ZM203.885 184.486L203.238 185.025L204.531 186.102L205.824 187.179L205.177 187.718C204.596 188.202 204.596 188.31 205.177 188.795L205.824 189.334L203.13 191.578L200.437 193.822L199.791 193.284C199.209 192.799 199.08 192.799 198.498 193.284C197.895 193.786 197.787 193.768 197.098 193.194C196.408 192.619 196.279 192.619 195.719 193.086L195.116 193.589L193.263 192.26C192.25 191.524 191.087 190.554 190.677 190.106C190.009 189.37 189.988 189.244 190.548 188.777C191.108 188.31 191.259 188.328 191.819 188.795L192.466 189.334L194.814 187.377C196.085 186.317 197.658 185.114 198.283 184.701C199.274 184.091 199.489 184.055 199.92 184.414C200.416 184.827 200.524 184.773 201.73 183.768L203.023 182.69L203.777 183.319C204.466 183.893 204.488 183.983 203.885 184.486Z" fill="#EA580C" fill-opacity="0.3"/>
</svg>
